<?xml version="1.0" standalone="no"?>
<!DOCTYPE svg PUBLIC "-//W3C//DTD SVG 1.1//EN" "http://www.w3.org/Graphics/SVG/1.1/DTD/svg11.dtd" >
<svg xmlns="http://www.w3.org/2000/svg" xmlns:xlink="http://www.w3.org/1999/xlink" version="1.1">
<metadata>
Created by FontForge 20161003 at Mon Apr 10 16:44:33 2017
 By www-data
Copyright \\\(C\\\)2015 Commercial Type.
</metadata>
<defs>
<font id="GraphikLC-Regular" horiz-adv-x="600" >
  <font-face 
    font-family="Graphik LC Regular"
    font-weight="400"
    font-stretch="normal"
    units-per-em="1000"
    panose-1="2 11 5 3 3 2 2 6 2 3"
    ascent="818"
    descent="-182"
    x-height="523"
    cap-height="715"
    bbox="-230 -220 1092 1113"
    underline-thickness="66"
    underline-position="-92"
    stemh="72"
    stemv="83"
    unicode-range="U+0020-FB02"
  />
<missing-glyph horiz-adv-x="500" 
 />
    <glyph glyph-name="f_f" unicode="ff" horiz-adv-x="634" 
d="M102 0v453h-75v70h75v78c0 106 52 168 156 168c27 0 41 -3 62 -10v-70c-15 6 -36 11 -59 11c-54 0 -76 -37 -76 -90v-87h205v85c0 106 52 168 156 168c27 0 41 -3 62 -10v-70c-15 6 -36 11 -59 11c-54 0 -76 -37 -76 -90v-94h128v-70h-128v-453h-83v453h-205v-453h-83z
" />
    <glyph glyph-name=".notdef" horiz-adv-x="500" 
 />
    <glyph glyph-name="space" unicode=" " horiz-adv-x="265" 
 />
    <glyph glyph-name="exclam" unicode="!" horiz-adv-x="286" 
d="M112 202l-14 513h92l-14 -513h-64zM143 -5c-35 0 -64 28 -64 64s29 64 64 64s64 -28 64 -64s-29 -64 -64 -64z" />
    <glyph glyph-name="quotedbl" unicode="&#x22;" horiz-adv-x="375" 
d="M239 470l-15 245h90l-15 -245h-60zM76 470l-15 245h90l-15 -245h-60z" />
    <glyph glyph-name="numbersign" unicode="#" horiz-adv-x="503" 
d="M211 484l-19 -132h97l19 132h-97zM252 99l26 183h-97l-26 -183h-68l26 183h-83v70h94l19 132h-85v70h95l24 161h68l-24 -161h97l24 161h68l-24 -161h87v-70h-97l-19 -132h88v-70h-99l-26 -183h-68z" />
    <glyph glyph-name="dollar" unicode="$" horiz-adv-x="627" 
d="M153 538c0 -63 21 -101 132 -124v241c-84 -7 -132 -55 -132 -117zM484 196c0 74 -31 109 -140 132v-268c80 8 140 62 140 136zM285 -135v127c-171 12 -228 111 -240 226h84c10 -78 34 -147 156 -158v278c-132 25 -211 72 -211 192c0 104 86 185 211 193v90h59v-91
c120 -11 195 -79 208 -195h-78c-15 77 -56 117 -130 127v-250c147 -26 223 -73 223 -202c0 -114 -93 -202 -223 -210v-127h-59z" />
    <glyph glyph-name="percent" unicode="%" horiz-adv-x="784" 
d="M198 383c-85 0 -164 70 -164 167c0 99 77 171 164 171c89 0 164 -72 164 -169c0 -99 -78 -169 -164 -169zM135 0l437 715h76l-437 -715h-76zM198 448c54 0 88 37 88 104c0 64 -34 104 -88 104c-53 0 -88 -37 -88 -105s35 -103 88 -103zM586 -8c-85 0 -164 70 -164 167
c0 99 77 171 164 171c89 0 164 -72 164 -169c0 -99 -78 -169 -164 -169zM586 57c54 0 88 37 88 104c0 64 -34 104 -88 104c-53 0 -88 -37 -88 -105s35 -103 88 -103z" />
    <glyph glyph-name="ampersand" unicode="&#x26;" horiz-adv-x="686" 
d="M232 554c0 -36 23 -72 62 -121c80 36 111 72 111 141c0 46 -33 80 -81 80c-50 0 -92 -30 -92 -100zM280 61c57 0 109 26 152 78l-178 217c-70 -34 -119 -75 -119 -159c0 -86 55 -136 145 -136zM644 369l-117 -223l120 -146h-101l-71 86c-45 -52 -108 -93 -198 -93
c-131 0 -226 78 -226 196c0 113 72 170 164 215c-42 54 -63 103 -63 151c0 108 85 164 175 164c88 0 156 -61 156 -147c0 -87 -62 -146 -153 -185l150 -183l87 165h77z" />
    <glyph glyph-name="quotesingle" unicode="'" horiz-adv-x="212" 
d="M76 470l-15 245h90l-15 -245h-60z" />
    <glyph glyph-name="parenleft" unicode="(" horiz-adv-x="322" 
d="M219 -148c-92 108 -166 261 -166 460s74 353 166 461h83c-90 -112 -162 -255 -162 -461s72 -348 162 -460h-83z" />
    <glyph glyph-name="parenright" unicode=")" horiz-adv-x="322" 
d="M20 -145c90 112 162 255 162 461s-72 348 -162 460h83c92 -108 166 -261 166 -460s-74 -353 -166 -461h-83z" />
    <glyph glyph-name="asterisk" unicode="*" horiz-adv-x="422" 
d="M139 409l-57 41l83 111l-123 29l22 67l118 -48l-7 134h73l-7 -134l117 48l22 -67l-124 -29l83 -111l-56 -41l-74 120z" />
    <glyph glyph-name="plus" unicode="+" horiz-adv-x="519" 
d="M223 105v202h-187v70h187v202h73v-202h187v-70h-187v-202h-73z" />
    <glyph glyph-name="comma" unicode="," horiz-adv-x="282" 
d="M90 -123l-54 28l96 219l81 -38z" />
    <glyph glyph-name="hyphen" unicode="-" horiz-adv-x="334" 
d="M60 236v78h214v-78h-214z" />
    <glyph glyph-name="period" unicode="." horiz-adv-x="282" 
d="M141 -5c-35 0 -64 28 -64 64s29 64 64 64s64 -28 64 -64s-29 -64 -64 -64z" />
    <glyph glyph-name="slash" unicode="/" horiz-adv-x="403" 
d="M6 -148l291 924h76l-291 -924h-76z" />
    <glyph glyph-name="zero" unicode="0" horiz-adv-x="681" 
d="M344 -9c-171 0 -284 138 -284 346v40c0 211 107 347 282 347c176 0 279 -141 279 -345v-40c0 -208 -101 -348 -277 -348zM344 63c125 0 189 96 189 277v40c0 166 -70 274 -191 274s-193 -100 -193 -276v-40c0 -181 76 -275 195 -275z" />
    <glyph glyph-name="one" unicode="1" horiz-adv-x="399" 
d="M193 0v629l-160 -115v81l166 120h81v-715h-87z" />
    <glyph glyph-name="two" unicode="2" horiz-adv-x="554" 
d="M19 0v20l284 299c65 69 103 134 103 207c0 80 -47 128 -128 128c-83 0 -137 -47 -151 -159h-81c11 140 96 229 232 229c132 0 216 -78 216 -201c0 -88 -56 -174 -144 -260l-197 -192h345v-71h-479z" />
    <glyph glyph-name="three" unicode="3" horiz-adv-x="604" 
d="M290 -9c-152 0 -245 95 -250 220h80c8 -85 59 -150 172 -150c112 0 163 54 163 138c0 92 -50 139 -151 139h-54v73h50c93 0 134 44 134 122c0 68 -43 120 -130 120c-89 0 -149 -54 -158 -135h-76c5 113 98 206 234 206s215 -90 215 -189c0 -81 -48 -129 -113 -156
c84 -22 138 -81 138 -180c0 -130 -106 -208 -254 -208z" />
    <glyph glyph-name="four" unicode="4" horiz-adv-x="617" 
d="M397 0v150h-358v28l327 537h116v-494h99v-71h-99v-150h-85zM149 221h248v428z" />
    <glyph glyph-name="five" unicode="5" horiz-adv-x="587" 
d="M281 -9c-154 0 -228 85 -238 202h83c14 -78 45 -132 154 -132c97 0 157 65 157 173c0 101 -59 167 -150 167c-83 0 -131 -26 -169 -69h-32v383h402v-75h-330v-218c29 27 78 49 146 49c128 0 222 -91 222 -237c0 -151 -109 -243 -245 -243z" />
    <glyph glyph-name="six" unicode="6" horiz-adv-x="619" 
d="M317 -9c-195 0 -257 146 -257 325v17c0 257 116 391 280 391c111 0 190 -58 209 -173h-83c-16 66 -52 102 -132 102c-108 0 -184 -97 -188 -286c34 58 101 97 184 97c142 0 234 -103 234 -234c0 -143 -96 -239 -247 -239zM317 59c94 0 158 66 158 167
c0 103 -62 170 -159 170c-96 0 -164 -65 -164 -158c0 -117 69 -179 165 -179z" />
    <glyph glyph-name="seven" unicode="7" horiz-adv-x="525" 
d="M146 0l249 645h-363v70h471v-12l-268 -703h-89z" />
    <glyph glyph-name="eight" unicode="8" horiz-adv-x="607" 
d="M304 -9c-117 0 -247 70 -247 212c0 96 59 158 135 185c-68 26 -108 80 -108 150c0 116 110 186 220 186c111 0 219 -72 219 -184c0 -72 -44 -122 -110 -151c83 -30 137 -92 137 -184c0 -143 -125 -214 -246 -214zM307 419c76 0 128 44 128 120c0 69 -57 117 -131 117
s-132 -45 -132 -119c0 -75 62 -118 135 -118zM304 62c88 0 157 51 157 146c0 94 -70 142 -155 142s-160 -49 -160 -144c0 -94 75 -144 158 -144z" />
    <glyph glyph-name="nine" unicode="9" horiz-adv-x="620" 
d="M303 320c96 0 164 62 164 155c0 117 -69 182 -165 182c-94 0 -158 -66 -158 -167c0 -103 62 -170 159 -170zM290 -8c-132 0 -211 69 -230 184h84c16 -70 56 -113 148 -113c114 0 181 94 183 284c-34 -58 -103 -95 -185 -95c-139 0 -235 99 -235 234c0 143 96 239 247 239
c169 0 257 -114 257 -320v-45c0 -237 -98 -368 -269 -368z" />
    <glyph glyph-name="colon" unicode=":" horiz-adv-x="292" 
d="M146 292c-35 0 -64 28 -64 64s29 64 64 64s64 -28 64 -64s-29 -64 -64 -64zM146 -5c-35 0 -64 28 -64 64s29 64 64 64s64 -28 64 -64s-29 -64 -64 -64z" />
    <glyph glyph-name="semicolon" unicode=";" horiz-adv-x="292" 
d="M155 292c-35 0 -64 28 -64 64s29 64 64 64s64 -28 64 -64s-29 -64 -64 -64zM75 -123l-54 28l96 219l81 -38z" />
    <glyph glyph-name="less" unicode="&#x3c;" horiz-adv-x="504" 
d="M437 95l-384 217v20l384 217v-80l-263 -147l263 -147v-80z" />
    <glyph glyph-name="equal" unicode="=" horiz-adv-x="484" 
d="M40 376v72h404v-72h-404zM40 196v72h404v-72h-404z" />
    <glyph glyph-name="greater" unicode="&#x3e;" horiz-adv-x="504" 
d="M67 95v80l263 147l-263 147v80l384 -217v-20z" />
    <glyph glyph-name="question" unicode="?" horiz-adv-x="489" 
d="M179 202v50c0 81 53 131 103 180c39 39 73 75 73 123c0 59 -33 100 -107 100c-75 0 -126 -51 -133 -130h-78c7 117 90 199 212 199c136 0 190 -82 190 -166c0 -74 -50 -121 -98 -167c-45 -43 -88 -85 -88 -146v-43h-74zM214 -5c-35 0 -64 28 -64 64s29 64 64 64
s64 -28 64 -64s-29 -64 -64 -64z" />
    <glyph glyph-name="at" unicode="@" horiz-adv-x="915" 
d="M459 -147c-267 0 -414 194 -414 407c0 245 196 428 427 428c239 0 398 -160 398 -366c0 -188 -108 -255 -188 -255c-81 0 -107 34 -115 86c-29 -52 -87 -93 -149 -93c-97 0 -161 66 -161 174c0 134 88 232 197 232c71 0 107 -34 121 -68l7 60h83l-30 -252
c-7 -53 10 -79 48 -79c57 0 115 57 115 193c0 179 -120 302 -326 302c-202 0 -350 -148 -350 -360c0 -182 114 -343 337 -343c109 0 174 28 236 81h77c-51 -87 -169 -147 -313 -147zM436 124c62 0 128 57 128 163c0 76 -39 113 -104 113c-63 0 -118 -60 -118 -165
c0 -70 40 -111 94 -111z" />
    <glyph glyph-name="A" unicode="A" horiz-adv-x="674" 
d="M335 643l-124 -368h248zM36 0l246 715h114l242 -715h-86l-70 206h-295l-69 -206h-82z" />
    <glyph glyph-name="B" unicode="B" horiz-adv-x="622" 
d="M90 0v715h215c133 0 230 -44 230 -185v-4c0 -65 -26 -123 -108 -151c104 -25 143 -78 143 -171v-4c0 -135 -92 -200 -235 -200h-245zM175 403h130c105 0 145 38 145 126v4c0 81 -47 114 -147 114h-128v-244zM175 68h158c104 0 152 46 152 133v4c0 88 -49 130 -164 130
h-146v-267z" />
    <glyph glyph-name="C" unicode="C" horiz-adv-x="730" 
d="M389 -9c-207 0 -334 142 -334 362v8c0 212 142 365 336 365c149 0 275 -79 290 -234h-86c-18 109 -81 165 -203 165c-148 0 -247 -115 -247 -295v-8c0 -182 92 -292 246 -292c117 0 198 59 216 175h81c-25 -165 -139 -246 -299 -246z" />
    <glyph glyph-name="D" unicode="D" horiz-adv-x="696" 
d="M90 0v715h189c246 0 362 -152 362 -351v-9c0 -198 -114 -355 -364 -355h-187zM177 71h98c184 0 276 110 276 285v8c0 165 -80 281 -277 281h-97v-574z" />
    <glyph glyph-name="E" unicode="E" horiz-adv-x="566" 
d="M90 0v715h417v-71h-330v-243h266v-71h-266v-259h348v-71h-435z" />
    <glyph glyph-name="F" unicode="F" horiz-adv-x="546" 
d="M90 0v715h418v-71h-331v-253h258v-71h-258v-320h-87z" />
    <glyph glyph-name="G" unicode="G" horiz-adv-x="767" 
d="M401 -9c-220 0 -346 153 -346 362v8c0 209 141 365 346 365c142 0 269 -66 291 -227h-87c-20 114 -98 158 -202 158c-164 0 -258 -120 -258 -295v-8c0 -177 88 -293 256 -293c155 0 222 101 225 228h-209v72h294v-53c0 -207 -127 -317 -310 -317z" />
    <glyph glyph-name="H" unicode="H" horiz-adv-x="730" 
d="M90 0v715h87v-324h376v324h87v-715h-87v318h-376v-318h-87z" />
    <glyph glyph-name="I" unicode="I" horiz-adv-x="277" 
d="M95 0v715h87v-715h-87z" />
    <glyph glyph-name="J" unicode="J" horiz-adv-x="420" 
d="M138 -9c-54 0 -81 9 -100 19v72c26 -11 52 -20 95 -20c71 0 116 40 116 136v517h87v-521c0 -143 -89 -203 -198 -203z" />
    <glyph glyph-name="K" unicode="K" horiz-adv-x="616" 
d="M90 0v715h87v-344l311 345h97l-318 -348l334 -368h-105l-319 349v-349h-87z" />
    <glyph glyph-name="L" unicode="L" horiz-adv-x="535" 
d="M90 0v715h87v-644h327v-71h-414z" />
    <glyph glyph-name="M" unicode="M" horiz-adv-x="856" 
d="M90 0v715h121l221 -557l214 557h120v-715h-87v602l-237 -602h-27l-245 602v-602h-80z" />
    <glyph glyph-name="N" unicode="N" horiz-adv-x="724" 
d="M90 0v715h113l348 -591v591h83v-715h-100l-361 613v-613h-83z" />
    <glyph glyph-name="O" unicode="O" horiz-adv-x="811" 
d="M409 -9c-211 0 -354 162 -354 362v8c0 203 142 363 352 363s349 -160 349 -361v-8c0 -202 -139 -364 -347 -364zM409 63c159 0 257 120 257 293v8c0 160 -94 290 -259 290c-166 0 -262 -122 -262 -292v-8c0 -173 115 -291 264 -291z" />
    <glyph glyph-name="P" unicode="P" horiz-adv-x="581" 
d="M90 0v715h203c137 0 250 -60 250 -209v-4c0 -152 -114 -211 -250 -211h-116v-291h-87zM177 360h122c102 0 157 50 157 142v4c0 101 -60 139 -157 139h-122v-285z" />
    <glyph glyph-name="Q" unicode="Q" horiz-adv-x="811" 
d="M659 -89l-100 112c-44 -21 -95 -32 -150 -32c-211 0 -354 162 -354 362v8c0 203 142 363 352 363s349 -160 349 -361v-8c0 -121 -50 -227 -134 -293l90 -100zM409 63c36 0 69 6 98 18l-80 90l53 51l91 -103c61 52 95 135 95 237v8c0 160 -94 290 -259 290
c-166 0 -262 -122 -262 -292v-8c0 -173 115 -291 264 -291z" />
    <glyph glyph-name="R" unicode="R" horiz-adv-x="628" 
d="M177 380h134c102 0 157 44 157 132v4c0 97 -60 129 -157 129h-134v-265zM90 0v715h215c137 0 250 -56 250 -199v-4c0 -118 -79 -176 -177 -195l219 -317h-97l-213 311h-110v-311h-87z" />
    <glyph glyph-name="S" unicode="S" horiz-adv-x="627" 
d="M321 -9c-191 0 -260 105 -273 227h84c11 -85 45 -157 189 -157c92 0 163 54 163 135s-37 115 -173 137c-150 23 -239 70 -239 197c0 110 95 194 230 194c143 0 232 -70 246 -197h-78c-17 90 -69 127 -168 127c-98 0 -149 -49 -149 -116c0 -70 26 -106 172 -128
c159 -25 243 -73 243 -208c0 -120 -105 -211 -247 -211z" />
    <glyph glyph-name="T" unicode="T" horiz-adv-x="561" 
d="M237 0v644h-208v71h503v-71h-208v-644h-87z" />
    <glyph glyph-name="U" unicode="U" horiz-adv-x="696" 
d="M341 -9c-164 0 -257 96 -257 270v454h87v-444c0 -150 53 -208 172 -208c114 0 182 46 182 221v431h87v-443c0 -174 -87 -281 -271 -281z" />
    <glyph glyph-name="V" unicode="V" horiz-adv-x="654" 
d="M273 0l-243 715h86l213 -631l213 631h82l-247 -715h-104z" />
    <glyph glyph-name="W" unicode="W" horiz-adv-x="928" 
d="M220 0l-186 715h89l145 -577l168 577h62l168 -579l147 579h81l-186 -715h-80l-162 565l-167 -565h-79z" />
    <glyph glyph-name="X" unicode="X" horiz-adv-x="657" 
d="M45 0l236 367l-220 348h96l178 -281l177 281h89l-222 -348l233 -367h-98l-191 301l-191 -301h-87z" />
    <glyph glyph-name="Y" unicode="Y" horiz-adv-x="598" 
d="M262 0v312l-239 403h98l187 -332l180 332h87l-226 -404v-311h-87z" />
    <glyph glyph-name="Z" unicode="Z" horiz-adv-x="595" 
d="M28 0v14l405 630h-369v71h489v-13l-394 -628h388v-74h-519z" />
    <glyph glyph-name="bracketleft" unicode="[" horiz-adv-x="356" 
d="M88 -148v924h224v-66h-141v-792h141v-66h-224z" />
    <glyph glyph-name="backslash" unicode="\" horiz-adv-x="403" 
d="M321 -148l-291 924h76l291 -924h-76z" />
    <glyph glyph-name="bracketright" unicode="]" horiz-adv-x="356" 
d="M44 -148v66h141v792h-141v66h224v-924h-224z" />
    <glyph glyph-name="asciicircum" unicode="^" horiz-adv-x="507" 
d="M44 408l167 307h85l167 -307h-84l-127 236l-126 -236h-82z" />
    <glyph glyph-name="underscore" unicode="_" horiz-adv-x="394" 
d="M-1 -158v66h396v-66h-396z" />
    <glyph glyph-name="grave" unicode="`" horiz-adv-x="400" 
d="M177 613l-104 147h104l62 -147h-62z" />
    <glyph glyph-name="a" unicode="a" horiz-adv-x="540" 
d="M223 57c88 0 155 45 155 126v65h-72c-105 0 -182 -26 -182 -103c0 -54 26 -88 99 -88zM215 -9c-97 0 -174 47 -174 154c0 121 128 162 262 162h75v38c0 83 -32 118 -112 118c-72 0 -112 -30 -120 -94h-83c11 119 106 163 207 163c100 0 191 -41 191 -187v-345h-83v66
c-39 -49 -86 -75 -163 -75z" />
    <glyph glyph-name="b" unicode="b" horiz-adv-x="627" 
d="M344 -9c-85 0 -147 43 -177 95v-86h-83v773h83v-338c30 51 101 97 177 97c137 0 238 -100 238 -263v-8c0 -160 -94 -270 -238 -270zM336 60c104 0 160 70 160 197v8c0 132 -73 198 -161 198c-97 0 -171 -64 -171 -198v-8c0 -134 70 -197 172 -197z" />
    <glyph glyph-name="c" unicode="c" horiz-adv-x="570" 
d="M301 -9c-146 0 -256 103 -256 265v8c0 160 114 268 254 268c109 0 211 -50 227 -183h-82c-13 83 -73 114 -145 114c-95 0 -168 -76 -168 -199v-8c0 -128 70 -196 171 -196c74 0 141 43 150 128h77c-11 -113 -102 -197 -228 -197z" />
    <glyph glyph-name="d" unicode="d" horiz-adv-x="627" 
d="M290 60c97 0 173 64 173 198v8c0 134 -64 197 -166 197c-104 0 -166 -73 -166 -200v-8c0 -132 71 -195 159 -195zM281 -9c-137 0 -236 97 -236 260v8c0 160 100 273 244 273c87 0 141 -42 171 -93v334h83v-773h-83v90c-30 -51 -103 -99 -179 -99z" />
    <glyph glyph-name="e" unicode="e" horiz-adv-x="568" 
d="M298 -9c-148 0 -253 104 -253 265v8c0 158 101 268 245 268c121 0 235 -73 235 -260v-27h-394c4 -119 61 -185 168 -185c81 0 128 30 139 91h83c-18 -105 -105 -160 -223 -160zM134 312h306c-8 108 -64 151 -150 151c-85 0 -142 -58 -156 -151z" />
    <glyph glyph-name="f" unicode="f" horiz-adv-x="346" 
d="M102 0v453h-75v70h75v85c0 106 52 168 156 168c27 0 41 -3 62 -10v-70c-15 6 -36 11 -59 11c-54 0 -76 -37 -76 -90v-94h128v-70h-128v-453h-83z" />
    <glyph glyph-name="g" unicode="g" horiz-adv-x="627" 
d="M292 86c97 0 171 68 171 185v7c0 117 -64 185 -166 185c-104 0 -166 -77 -166 -187v-8c0 -114 73 -182 161 -182zM293 -191c-155 0 -223 73 -237 161h85c12 -60 62 -91 151 -91c103 0 168 49 168 161v76c-30 -51 -101 -99 -177 -99c-137 0 -238 104 -238 248v7
c0 142 100 260 244 260c87 0 141 -42 171 -93v84h83v-488c-1 -152 -104 -226 -250 -226z" />
    <glyph glyph-name="h" unicode="h" horiz-adv-x="598" 
d="M84 0v773h83v-333c24 49 82 92 168 92c108 0 184 -59 184 -211v-321h-83v327c0 92 -39 133 -123 133c-77 0 -146 -49 -146 -143v-317h-83z" />
    <glyph glyph-name="i" unicode="i" horiz-adv-x="255" 
d="M126 632c-30 0 -55 25 -55 55s25 55 55 55s55 -25 55 -55s-25 -55 -55 -55zM86 0v523h83v-523h-83z" />
    <glyph glyph-name="j" unicode="j" horiz-adv-x="255" 
d="M126 632c-30 0 -55 25 -55 55s25 55 55 55s55 -25 55 -55s-25 -55 -55 -55zM9 -191v70c59 5 77 35 77 81v563h83v-556c0 -100 -44 -154 -160 -158z" />
    <glyph glyph-name="k" unicode="k" horiz-adv-x="516" 
d="M84 0v773h83v-491l217 241h97l-224 -243l243 -280h-101l-232 271v-271h-83z" />
    <glyph glyph-name="l" unicode="l" horiz-adv-x="256" 
d="M86 0v773h84v-773h-84z" />
    <glyph glyph-name="m" unicode="m" horiz-adv-x="910" 
d="M84 0v523h83v-80c24 49 81 89 156 89c67 0 126 -28 153 -98c36 68 114 98 179 98c94 0 176 -56 176 -208v-324h-83v330c0 92 -39 130 -111 130c-68 0 -138 -46 -138 -140v-320h-83v330c0 92 -39 130 -111 130c-68 0 -138 -46 -138 -140v-320h-83z" />
    <glyph glyph-name="n" unicode="n" horiz-adv-x="598" 
d="M84 0v523h83v-83c24 49 82 92 168 92c108 0 184 -59 184 -211v-321h-83v327c0 92 -39 133 -123 133c-77 0 -146 -49 -146 -143v-317h-83z" />
    <glyph glyph-name="o" unicode="o" horiz-adv-x="604" 
d="M301 -9c-149 0 -256 113 -256 266v8c0 157 109 267 257 267s257 -109 257 -266v-8c0 -158 -109 -267 -258 -267zM302 60c105 0 171 79 171 197v7c0 121 -67 199 -171 199c-105 0 -171 -78 -171 -198v-8c0 -119 65 -197 171 -197z" />
    <glyph glyph-name="p" unicode="p" horiz-adv-x="627" 
d="M336 60c104 0 160 70 160 197v8c0 132 -73 198 -161 198c-97 0 -171 -64 -171 -198v-8c0 -134 70 -197 172 -197zM84 -182v705h83v-88c30 51 101 97 177 97c137 0 238 -100 238 -263v-8c0 -160 -94 -270 -238 -270c-86 0 -147 43 -177 95v-268h-83z" />
    <glyph glyph-name="q" unicode="q" horiz-adv-x="627" 
d="M460 -182v272c-30 -51 -103 -99 -179 -99c-137 0 -236 97 -236 260v8c0 160 100 273 244 273c87 0 141 -42 171 -93v84h83v-705h-83zM290 60c97 0 173 64 173 198v8c0 134 -64 197 -166 197c-104 0 -166 -73 -166 -200v-8c0 -132 71 -195 159 -195z" />
    <glyph glyph-name="r" unicode="r" horiz-adv-x="376" 
d="M84 0v523h83v-94c33 59 78 100 172 103v-78c-105 -5 -172 -38 -172 -167v-287h-83z" />
    <glyph glyph-name="s" unicode="s" horiz-adv-x="480" 
d="M246 -9c-125 0 -200 63 -205 170h81c6 -62 39 -101 123 -101c79 0 114 27 114 83c0 55 -41 73 -122 88c-136 25 -182 63 -182 154c0 97 95 147 177 147c94 0 175 -38 189 -151h-80c-12 57 -44 82 -110 82c-60 0 -99 -30 -99 -75c0 -47 26 -66 122 -83
c108 -20 184 -44 184 -155c0 -95 -65 -159 -192 -159z" />
    <glyph glyph-name="t" unicode="t" horiz-adv-x="355" 
d="M243 -7c-95 0 -141 56 -141 138v322h-75v70h75v119h83v-119h122v-70h-122v-314c0 -51 23 -76 65 -76c26 0 46 4 64 11v-70c-17 -6 -37 -11 -71 -11z" />
    <glyph glyph-name="u" unicode="u" horiz-adv-x="594" 
d="M261 -9c-104 0 -182 57 -182 201v331h83v-327c0 -92 39 -133 121 -133c74 0 144 49 144 143v317h83v-523h-83v83c-24 -49 -82 -92 -166 -92z" />
    <glyph glyph-name="v" unicode="v" horiz-adv-x="534" 
d="M215 0l-190 523h90l155 -439l153 439h86l-188 -523h-106z" />
    <glyph glyph-name="w" unicode="w" horiz-adv-x="794" 
d="M189 0l-161 523h90l122 -421l127 421h72l119 -421l123 421h85l-163 -523h-92l-109 392l-122 -392h-91z" />
    <glyph glyph-name="x" unicode="x" horiz-adv-x="528" 
d="M28 0l187 269l-175 254h97l128 -190l127 190h90l-173 -248l191 -275h-98l-141 211l-144 -211h-89z" />
    <glyph glyph-name="y" unicode="y" horiz-adv-x="529" 
d="M131 -182l99 236l-205 469h89l160 -375l145 375h85l-289 -705h-84z" />
    <glyph glyph-name="z" unicode="z" horiz-adv-x="483" 
d="M21 0v12l309 441h-279v70h407v-15l-302 -435h298v-73h-433z" />
    <glyph glyph-name="braceleft" unicode="{" horiz-adv-x="381" 
d="M337 -147c-148 0 -225 57 -198 208l19 104c11 59 -16 120 -118 120v62c102 0 129 61 118 120l-19 104c-27 151 50 208 198 208v-63c-98 -1 -137 -33 -119 -147l19 -115c12 -75 -31 -121 -98 -138c67 -17 110 -63 98 -138l-19 -115c-18 -114 21 -146 119 -147v-63z" />
    <glyph glyph-name="bar" unicode="|" horiz-adv-x="253" 
d="M93 -148v924h67v-924h-67z" />
    <glyph glyph-name="braceright" unicode="}" horiz-adv-x="381" 
d="M44 -147v63c98 1 137 33 119 147l-19 115c-12 75 31 121 98 138c-67 17 -110 63 -98 138l19 115c18 114 -21 146 -119 147v63c148 0 225 -57 198 -208l-19 -104c-11 -59 16 -120 118 -120v-62c-102 0 -129 -61 -118 -120l19 -104c27 -151 -50 -208 -198 -208z" />
    <glyph glyph-name="asciitilde" unicode="~" horiz-adv-x="445" 
d="M44 223c7 87 56 128 106 128c66 0 107 -51 140 -51c21 0 42 17 45 53h66c-6 -89 -56 -128 -103 -128c-69 0 -110 51 -142 51c-22 0 -41 -18 -46 -53h-66z" />
    <glyph glyph-name="uni00A0" unicode="&#xa0;" horiz-adv-x="265" 
 />
    <glyph glyph-name="exclamdown" unicode="&#xa1;" horiz-adv-x="288" 
d="M144 475c-35 0 -64 28 -64 64s29 64 64 64s64 -28 64 -64s-29 -64 -64 -64zM97 -117l14 513h64l14 -513h-92z" />
    <glyph glyph-name="cent" unicode="&#xa2;" horiz-adv-x="565" 
d="M267 -135v128c-130 13 -222 113 -222 263v8c0 148 96 251 222 266v99h59v-99c98 -8 185 -60 200 -181h-82c-11 71 -59 104 -118 112v-399c63 9 118 51 126 126h77c-10 -105 -91 -185 -203 -195v-128h-59zM131 256c0 -114 53 -180 136 -194v398
c-80 -15 -136 -87 -136 -196v-8z" />
    <glyph glyph-name="sterling" unicode="&#xa3;" horiz-adv-x="596" 
d="M48 315v62h65c-10 42 -18 88 -18 141c0 122 96 206 220 206c128 0 205 -75 214 -189h-84c-14 76 -47 118 -130 118c-77 0 -132 -54 -132 -136c0 -54 8 -98 17 -140h213v-62h-199c8 -40 15 -82 15 -132c0 -24 -5 -46 -13 -65c66 -16 129 -54 172 -54c53 0 87 21 91 86h73
c-6 -92 -60 -159 -154 -159c-88 0 -165 63 -222 63c-44 0 -62 -28 -65 -54h-73c4 45 34 109 103 122c7 17 12 37 12 62c0 44 -11 86 -23 131h-82z" />
    <glyph glyph-name="yen" unicode="&#xa5;" horiz-adv-x="576" 
d="M84 281v58h156l-212 376h94l175 -324l167 324h84l-200 -376h157v-58h-168v-78h168v-58h-168v-145h-85v145h-168v58h168v78h-168z" />
    <glyph glyph-name="brokenbar" unicode="&#xa6;" horiz-adv-x="260" 
d="M93 367v409h67v-409h-67zM93 -148v445h67v-445h-67z" />
    <glyph glyph-name="section" unicode="&#xa7;" horiz-adv-x="539" 
d="M326 185c61 15 89 48 89 94c0 58 -45 80 -125 101l-79 21c-52 -11 -87 -46 -87 -95c0 -53 43 -77 127 -100zM266 -137c-111 0 -186 59 -188 163h85c5 -57 31 -93 101 -93s102 40 102 90c0 52 -25 78 -141 107c-110 28 -183 70 -183 169c0 66 43 115 113 135
c-40 28 -61 65 -61 127c0 95 86 163 178 163c109 0 180 -56 183 -157h-84c-4 53 -27 87 -97 87s-100 -41 -100 -91c0 -52 23 -77 134 -105c110 -28 189 -63 189 -172c0 -57 -40 -112 -110 -134c38 -28 59 -67 59 -127c0 -90 -80 -162 -180 -162z" />
    <glyph glyph-name="dieresis" unicode="&#xa8;" horiz-adv-x="400" 
d="M294 634c-29 0 -53 24 -53 53s24 53 53 53s53 -24 53 -53s-24 -53 -53 -53zM106 634c-29 0 -53 24 -53 53s24 53 53 53s53 -24 53 -53s-24 -53 -53 -53z" />
    <glyph glyph-name="copyright" unicode="&#xa9;" horiz-adv-x="844" 
d="M421 -9c-203 0 -366 159 -366 366c0 204 162 367 368 367c208 0 366 -162 366 -365c0 -208 -162 -368 -368 -368zM421 33c170 0 320 133 320 326c0 190 -145 323 -318 323c-175 0 -320 -134 -320 -325c0 -193 151 -324 318 -324zM423 155c-121 0 -192 77 -192 198v8
c0 119 81 199 192 199c90 0 161 -45 169 -138h-76c-8 51 -38 78 -93 78c-69 0 -113 -51 -113 -139v-7c0 -88 41 -138 113 -138c54 0 93 27 101 83h72c-10 -96 -79 -144 -173 -144z" />
    <glyph glyph-name="ordfeminine" unicode="&#xaa;" horiz-adv-x="419" 
d="M184 351c66 0 116 33 116 94v46h-56c-79 0 -135 -19 -135 -75c0 -41 20 -65 75 -65zM170 290c-77 0 -140 38 -140 124c0 97 99 131 212 131h58v26c0 62 -24 90 -85 90c-55 0 -83 -24 -90 -68h-77c8 93 84 131 171 131s159 -35 159 -152v-274h-78v52
c-29 -38 -67 -60 -130 -60z" />
    <glyph glyph-name="guillemotleft" unicode="&#xab;" horiz-adv-x="500" 
d="M367 83l-130 178l130 178h82l-125 -178l125 -178h-82zM189 83l-130 178l130 178h82l-125 -178l125 -178h-82z" />
    <glyph glyph-name="registered" unicode="&#xae;" horiz-adv-x="514" 
d="M257 282c-123 0 -222 95 -222 220c0 123 98 222 222 222c126 0 222 -98 222 -221c0 -125 -98 -221 -222 -221zM257 318c103 0 182 76 182 185s-76 185 -182 185s-182 -77 -182 -186c0 -110 80 -184 182 -184zM229 514h28c25 0 38 11 38 32v1c0 23 -14 31 -38 31h-28v-64z
M181 396v219h77c51 0 84 -21 84 -66v-1c0 -33 -19 -51 -45 -59l58 -93h-50l-53 85h-23v-85h-48z" />
    <glyph glyph-name="macron" unicode="&#xaf;" horiz-adv-x="400" 
d="M69 648v64h262v-64h-262z" />
    <glyph glyph-name="degree" unicode="&#xb0;" horiz-adv-x="427" 
d="M214 406c-91 0 -164 72 -164 158c0 88 73 160 164 160c90 0 163 -72 163 -160c0 -86 -73 -158 -163 -158zM214 464c53 0 89 44 89 100c0 58 -36 102 -89 102c-54 0 -93 -44 -93 -102c0 -56 39 -100 93 -100z" />
    <glyph glyph-name="plusminus" unicode="&#xb1;" horiz-adv-x="519" 
d="M223 145v182h-187v70h187v182h73v-182h187v-70h-187v-182h-73zM36 0v70h447v-70h-447z" />
    <glyph glyph-name="twosuperior" unicode="&#xb2;" horiz-adv-x="286" 
d="M8 373v11l128 136c33 34 54 65 54 97c0 31 -18 50 -50 50c-33 0 -54 -19 -60 -66h-61c4 75 50 118 123 118c72 0 114 -40 114 -101c0 -45 -26 -83 -66 -122l-73 -72h142v-51h-251z" />
    <glyph glyph-name="threesuperior" unicode="&#xb3;" horiz-adv-x="311" 
d="M152 368c-83 0 -129 44 -131 111h61c4 -35 23 -61 68 -61c43 0 63 21 63 54c0 36 -20 54 -60 54h-26v47h25c38 0 56 18 56 49c0 27 -17 47 -52 47s-58 -21 -62 -55h-61c4 61 50 105 124 105c73 0 115 -40 115 -92c0 -38 -23 -62 -57 -74c40 -9 67 -37 67 -82
c0 -64 -50 -103 -130 -103z" />
    <glyph glyph-name="acute" unicode="&#xb4;" horiz-adv-x="400" 
d="M161 613l62 147h104l-104 -147h-62z" />
    <glyph glyph-name="paragraph" unicode="&#xb6;" horiz-adv-x="588" 
d="M276 -100v446h-14c-127 0 -217 60 -217 181c0 127 94 188 217 188h232v-815h-69v758h-81v-758h-68z" />
    <glyph glyph-name="periodcentered" unicode="&#xb7;" horiz-adv-x="282" 
d="M141 263c-35 0 -64 28 -64 64s29 64 64 64s64 -28 64 -64s-29 -64 -64 -64z" />
    <glyph glyph-name="cedilla" unicode="&#xb8;" horiz-adv-x="400" 
d="M208 -214c-58 0 -96 34 -100 84h54c4 -19 18 -36 43 -36s40 15 40 36s-15 34 -36 34c-13 0 -23 -5 -28 -8l-32 28l42 76h53l-29 -53c46 6 94 -20 94 -81c0 -54 -47 -80 -101 -80z" />
    <glyph glyph-name="onesuperior" unicode="&#xb9;" horiz-adv-x="231" 
d="M105 373v276l-81 -54v59l89 61h60v-342h-68z" />
    <glyph glyph-name="ordmasculine" unicode="&#xba;" horiz-adv-x="493" 
d="M246 290c-121 0 -209 89 -209 213v6c0 128 89 215 210 215c120 0 209 -86 209 -213v-6c0 -129 -89 -215 -210 -215zM247 354c79 0 127 60 127 150v6c0 91 -49 150 -127 150c-79 0 -128 -59 -128 -150v-6c0 -91 48 -150 128 -150z" />
    <glyph glyph-name="guillemotright" unicode="&#xbb;" horiz-adv-x="500" 
d="M229 83l125 178l-125 178h82l130 -178l-130 -178h-82zM51 83l125 178l-125 178h82l130 -178l-130 -178h-82z" />
    <glyph glyph-name="onequarter" unicode="&#xbc;" horiz-adv-x="678" 
d="M108 373v276l-81 -54v59l89 61h60v-342h-68zM49 0l507 715h66l-507 -715h-66zM546 0v69h-172v24l153 249h83v-224h45v-49h-45v-69h-64zM446 118h101v173z" />
    <glyph glyph-name="onehalf" unicode="&#xbd;" horiz-adv-x="677" 
d="M108 373v276l-81 -54v59l89 61h60v-342h-68zM36 0l507 715h66l-507 -715h-66zM395 0v11l128 136c33 34 54 65 54 97c0 31 -18 50 -50 50c-33 0 -54 -19 -60 -66h-61c4 75 50 118 123 118c72 0 114 -40 114 -101c0 -45 -26 -83 -66 -122l-73 -72h142v-51h-251z" />
    <glyph glyph-name="threequarters" unicode="&#xbe;" horiz-adv-x="681" 
d="M155 368c-83 0 -129 44 -131 111h61c4 -35 23 -61 68 -61c43 0 63 21 63 54c0 36 -20 54 -60 54h-26v47h25c38 0 56 18 56 49c0 27 -17 47 -52 47s-58 -21 -62 -55h-61c4 61 50 105 124 105c73 0 115 -40 115 -92c0 -38 -23 -62 -57 -74c40 -9 67 -37 67 -82
c0 -64 -50 -103 -130 -103zM85 0l507 715h66l-507 -715h-66zM546 0v69h-172v24l153 249h83v-224h45v-49h-45v-69h-64zM446 118h101v173z" />
    <glyph glyph-name="questiondown" unicode="&#xbf;" horiz-adv-x="489" 
d="M275 603c35 0 64 -28 64 -64s-29 -64 -64 -64s-64 28 -64 64s29 64 64 64zM310 396v-50c0 -81 -53 -131 -103 -180c-39 -39 -73 -75 -73 -123c0 -59 33 -100 107 -100c75 0 126 51 133 130h78c-7 -117 -90 -199 -212 -199c-136 0 -190 82 -190 166c0 74 50 121 98 167
c45 43 88 85 88 146v43h74z" />
    <glyph glyph-name="Agrave" unicode="&#xc0;" horiz-adv-x="674" 
d="M335 643l-124 -368h248zM36 0l246 715h114l242 -715h-86l-70 206h-295l-69 -206h-82zM312 771l-98 127h104l56 -127h-62z" />
    <glyph glyph-name="Aacute" unicode="&#xc1;" horiz-adv-x="674" 
d="M335 643l-124 -368h248zM36 0l246 715h114l242 -715h-86l-70 206h-295l-69 -206h-82zM300 771l56 127h104l-98 -127h-62z" />
    <glyph glyph-name="Acircumflex" unicode="&#xc2;" horiz-adv-x="674" 
d="M335 643l-124 -368h248zM36 0l246 715h114l242 -715h-86l-70 206h-295l-69 -206h-82zM192 771l108 127h75l107 -127h-61l-85 58l-85 -58h-59z" />
    <glyph glyph-name="Atilde" unicode="&#xc3;" horiz-adv-x="674" 
d="M335 643l-124 -368h248zM36 0l246 715h114l242 -715h-86l-70 206h-295l-69 -206h-82zM391 774c-43 0 -79 43 -108 43c-19 0 -35 -19 -40 -45h-60c8 71 49 116 101 116c42 0 78 -43 107 -43c19 0 35 19 40 45h60c-8 -71 -49 -116 -100 -116z" />
    <glyph glyph-name="Adieresis" unicode="&#xc4;" horiz-adv-x="674" 
d="M335 643l-124 -368h248zM36 0l246 715h114l242 -715h-86l-70 206h-295l-69 -206h-82zM438 789c-29 0 -53 24 -53 53s24 53 53 53s53 -24 53 -53s-24 -53 -53 -53zM235 789c-29 0 -53 24 -53 53s24 53 53 53s53 -24 53 -53s-24 -53 -53 -53z" />
    <glyph glyph-name="Aring" unicode="&#xc5;" horiz-adv-x="674" 
d="M335 643l-124 -368h248zM36 0l246 715h114l242 -715h-86l-70 206h-295l-69 -206h-82zM337 759c-59 0 -107 47 -107 104s48 104 107 104s107 -47 107 -104s-48 -104 -107 -104zM337 805c31 0 53 25 53 58s-22 58 -53 58s-53 -25 -53 -58s22 -58 53 -58z" />
    <glyph glyph-name="AE" unicode="&#xc6;" horiz-adv-x="950" 
d="M443 644l-187 -369h218v369h-31zM29 0l370 715h492v-71h-330v-243h266v-71h-266v-259h348v-71h-435v207h-252l-105 -207h-88z" />
    <glyph glyph-name="Ccedilla" unicode="&#xc7;" horiz-adv-x="730" 
d="M381 -214c-58 0 -96 34 -100 84h54c4 -19 18 -36 43 -36s40 15 40 36s-15 34 -36 34c-13 0 -23 -5 -28 -8l-32 28l37 68c-189 13 -304 151 -304 361v8c0 212 142 365 336 365c149 0 275 -79 290 -234h-86c-18 109 -81 165 -203 165c-148 0 -247 -115 -247 -295v-8
c0 -182 92 -292 246 -292c117 0 198 59 216 175h81c-24 -157 -128 -238 -276 -245l-24 -45c46 6 94 -20 94 -81c0 -54 -47 -80 -101 -80z" />
    <glyph glyph-name="Egrave" unicode="&#xc8;" horiz-adv-x="566" 
d="M90 0v715h417v-71h-330v-243h266v-71h-266v-259h348v-71h-435zM281 771l-98 127h104l56 -127h-62z" />
    <glyph glyph-name="Eacute" unicode="&#xc9;" horiz-adv-x="566" 
d="M90 0v715h417v-71h-330v-243h266v-71h-266v-259h348v-71h-435zM269 771l56 127h104l-98 -127h-62z" />
    <glyph glyph-name="Ecircumflex" unicode="&#xca;" horiz-adv-x="566" 
d="M90 0v715h417v-71h-330v-243h266v-71h-266v-259h348v-71h-435zM161 771l108 127h75l107 -127h-61l-85 58l-85 -58h-59z" />
    <glyph glyph-name="Edieresis" unicode="&#xcb;" horiz-adv-x="566" 
d="M90 0v715h417v-71h-330v-243h266v-71h-266v-259h348v-71h-435zM407 789c-29 0 -53 24 -53 53s24 53 53 53s53 -24 53 -53s-24 -53 -53 -53zM204 789c-29 0 -53 24 -53 53s24 53 53 53s53 -24 53 -53s-24 -53 -53 -53z" />
    <glyph glyph-name="Igrave" unicode="&#xcc;" horiz-adv-x="277" 
d="M95 0v715h87v-715h-87zM113 771l-98 127h104l56 -127h-62z" />
    <glyph glyph-name="Iacute" unicode="&#xcd;" horiz-adv-x="277" 
d="M95 0v715h87v-715h-87zM101 771l56 127h104l-98 -127h-62z" />
    <glyph glyph-name="Icircumflex" unicode="&#xce;" horiz-adv-x="277" 
d="M95 0v715h87v-715h-87zM-7 771l108 127h75l107 -127h-61l-85 58l-85 -58h-59z" />
    <glyph glyph-name="Idieresis" unicode="&#xcf;" horiz-adv-x="277" 
d="M95 0v715h87v-715h-87zM239 789c-29 0 -53 24 -53 53s24 53 53 53s53 -24 53 -53s-24 -53 -53 -53zM36 789c-29 0 -53 24 -53 53s24 53 53 53s53 -24 53 -53s-24 -53 -53 -53z" />
    <glyph glyph-name="Eth" unicode="&#xd0;" horiz-adv-x="716" 
d="M34 325v67h76v323h189c246 0 362 -152 362 -351v-9c0 -198 -114 -355 -364 -355h-187v325h-76zM197 71h98c184 0 276 110 276 285v8c0 165 -80 281 -277 281h-97v-253h207v-67h-207v-254z" />
    <glyph glyph-name="Ntilde" unicode="&#xd1;" horiz-adv-x="724" 
d="M90 0v715h113l348 -591v591h83v-715h-100l-361 613v-613h-83zM426 774c-43 0 -79 43 -108 43c-19 0 -35 -19 -40 -45h-60c8 71 49 116 101 116c42 0 78 -43 107 -43c19 0 35 19 40 45h60c-8 -71 -49 -116 -100 -116z" />
    <glyph glyph-name="Ograve" unicode="&#xd2;" horiz-adv-x="811" 
d="M409 -9c-211 0 -354 162 -354 362v8c0 203 142 363 352 363s349 -160 349 -361v-8c0 -202 -139 -364 -347 -364zM409 63c159 0 257 120 257 293v8c0 160 -94 290 -259 290c-166 0 -262 -122 -262 -292v-8c0 -173 115 -291 264 -291zM380 771l-98 127h104l56 -127h-62z
" />
    <glyph glyph-name="Oacute" unicode="&#xd3;" horiz-adv-x="811" 
d="M409 -9c-211 0 -354 162 -354 362v8c0 203 142 363 352 363s349 -160 349 -361v-8c0 -202 -139 -364 -347 -364zM409 63c159 0 257 120 257 293v8c0 160 -94 290 -259 290c-166 0 -262 -122 -262 -292v-8c0 -173 115 -291 264 -291zM368 771l56 127h104l-98 -127h-62z
" />
    <glyph glyph-name="Ocircumflex" unicode="&#xd4;" horiz-adv-x="811" 
d="M409 -9c-211 0 -354 162 -354 362v8c0 203 142 363 352 363s349 -160 349 -361v-8c0 -202 -139 -364 -347 -364zM409 63c159 0 257 120 257 293v8c0 160 -94 290 -259 290c-166 0 -262 -122 -262 -292v-8c0 -173 115 -291 264 -291zM260 771l108 127h75l107 -127h-61
l-85 58l-85 -58h-59z" />
    <glyph glyph-name="Otilde" unicode="&#xd5;" horiz-adv-x="811" 
d="M409 -9c-211 0 -354 162 -354 362v8c0 203 142 363 352 363s349 -160 349 -361v-8c0 -202 -139 -364 -347 -364zM409 63c159 0 257 120 257 293v8c0 160 -94 290 -259 290c-166 0 -262 -122 -262 -292v-8c0 -173 115 -291 264 -291zM459 774c-43 0 -79 43 -108 43
c-19 0 -35 -19 -40 -45h-60c8 71 49 116 101 116c42 0 78 -43 107 -43c19 0 35 19 40 45h60c-8 -71 -49 -116 -100 -116z" />
    <glyph glyph-name="Odieresis" unicode="&#xd6;" horiz-adv-x="811" 
d="M409 -9c-211 0 -354 162 -354 362v8c0 203 142 363 352 363s349 -160 349 -361v-8c0 -202 -139 -364 -347 -364zM409 63c159 0 257 120 257 293v8c0 160 -94 290 -259 290c-166 0 -262 -122 -262 -292v-8c0 -173 115 -291 264 -291zM506 789c-29 0 -53 24 -53 53
s24 53 53 53s53 -24 53 -53s-24 -53 -53 -53zM303 789c-29 0 -53 24 -53 53s24 53 53 53s53 -24 53 -53s-24 -53 -53 -53z" />
    <glyph glyph-name="multiply" unicode="&#xd7;" horiz-adv-x="469" 
d="M80 131l-47 48l154 154l-154 154l47 48l154 -155l154 155l48 -48l-154 -154l154 -154l-48 -48l-154 155z" />
    <glyph glyph-name="Oslash" unicode="&#xd8;" horiz-adv-x="811" 
d="M145 354c0 -69 16 -127 44 -173l382 418c-42 35 -97 55 -164 55c-166 0 -262 -122 -262 -292v-8zM409 63c159 0 257 120 257 293v8c0 74 -18 138 -52 188l-384 -421c46 -45 109 -68 179 -68zM80 -33l-45 45l98 107c-50 63 -78 145 -78 234v8c0 203 142 363 352 363
c84 0 157 -26 214 -70l81 88l45 -45l-79 -87c56 -64 88 -151 88 -247v-8c0 -202 -139 -364 -347 -364c-92 0 -172 31 -232 82z" />
    <glyph glyph-name="Ugrave" unicode="&#xd9;" horiz-adv-x="696" 
d="M341 -9c-164 0 -257 96 -257 270v454h87v-444c0 -150 53 -208 172 -208c114 0 182 46 182 221v431h87v-443c0 -174 -87 -281 -271 -281zM323 771l-98 127h104l56 -127h-62z" />
    <glyph glyph-name="Uacute" unicode="&#xda;" horiz-adv-x="696" 
d="M341 -9c-164 0 -257 96 -257 270v454h87v-444c0 -150 53 -208 172 -208c114 0 182 46 182 221v431h87v-443c0 -174 -87 -281 -271 -281zM311 771l56 127h104l-98 -127h-62z" />
    <glyph glyph-name="Ucircumflex" unicode="&#xdb;" horiz-adv-x="696" 
d="M341 -9c-164 0 -257 96 -257 270v454h87v-444c0 -150 53 -208 172 -208c114 0 182 46 182 221v431h87v-443c0 -174 -87 -281 -271 -281zM203 771l108 127h75l107 -127h-61l-85 58l-85 -58h-59z" />
    <glyph glyph-name="Udieresis" unicode="&#xdc;" horiz-adv-x="696" 
d="M341 -9c-164 0 -257 96 -257 270v454h87v-444c0 -150 53 -208 172 -208c114 0 182 46 182 221v431h87v-443c0 -174 -87 -281 -271 -281zM449 789c-29 0 -53 24 -53 53s24 53 53 53s53 -24 53 -53s-24 -53 -53 -53zM246 789c-29 0 -53 24 -53 53s24 53 53 53
s53 -24 53 -53s-24 -53 -53 -53z" />
    <glyph glyph-name="Yacute" unicode="&#xdd;" horiz-adv-x="598" 
d="M262 0v312l-239 403h98l187 -332l180 332h87l-226 -404v-311h-87zM262 771l56 127h104l-98 -127h-62z" />
    <glyph glyph-name="Thorn" unicode="&#xde;" horiz-adv-x="581" 
d="M90 0v715h87v-134h116c137 0 250 -56 250 -205v-4c0 -152 -114 -207 -250 -207h-116v-165h-87zM177 234h122c102 0 157 46 157 138v4c0 101 -60 135 -157 135h-122v-277z" />
    <glyph glyph-name="germandbls" unicode="&#xdf;" horiz-adv-x="590" 
d="M335 -9c-42 0 -77 10 -92 16v71c19 -9 50 -18 88 -18c61 0 130 25 130 150v7c0 108 -76 178 -196 174v71c113 -3 149 70 149 131v4c0 71 -43 111 -122 111c-76 0 -125 -54 -125 -138v-570h-83v566c0 128 97 210 209 210c119 0 200 -72 200 -179v-4
c0 -63 -41 -135 -119 -161c103 -26 173 -110 173 -214v-6c0 -169 -104 -221 -212 -221z" />
    <glyph glyph-name="agrave" unicode="&#xe0;" horiz-adv-x="540" 
d="M223 57c88 0 155 45 155 126v65h-72c-105 0 -182 -26 -182 -103c0 -54 26 -88 99 -88zM215 -9c-97 0 -174 47 -174 154c0 121 128 162 262 162h75v38c0 83 -32 118 -112 118c-72 0 -112 -30 -120 -94h-83c11 119 106 163 207 163c100 0 191 -41 191 -187v-345h-83v66
c-39 -49 -86 -75 -163 -75zM246 613l-104 147h104l62 -147h-62z" />
    <glyph glyph-name="aacute" unicode="&#xe1;" horiz-adv-x="540" 
d="M223 57c88 0 155 45 155 126v65h-72c-105 0 -182 -26 -182 -103c0 -54 26 -88 99 -88zM215 -9c-97 0 -174 47 -174 154c0 121 128 162 262 162h75v38c0 83 -32 118 -112 118c-72 0 -112 -30 -120 -94h-83c11 119 106 163 207 163c100 0 191 -41 191 -187v-345h-83v66
c-39 -49 -86 -75 -163 -75zM234 613l62 147h104l-104 -147h-62z" />
    <glyph glyph-name="acircumflex" unicode="&#xe2;" horiz-adv-x="540" 
d="M223 57c88 0 155 45 155 126v65h-72c-105 0 -182 -26 -182 -103c0 -54 26 -88 99 -88zM215 -9c-97 0 -174 47 -174 154c0 121 128 162 262 162h75v38c0 83 -32 118 -112 118c-72 0 -112 -30 -120 -94h-83c11 119 106 163 207 163c100 0 191 -41 191 -187v-345h-83v66
c-39 -49 -86 -75 -163 -75zM115 613l108 144h75l107 -144h-61l-85 75l-85 -75h-59z" />
    <glyph glyph-name="atilde" unicode="&#xe3;" horiz-adv-x="540" 
d="M223 57c88 0 155 45 155 126v65h-72c-105 0 -182 -26 -182 -103c0 -54 26 -88 99 -88zM215 -9c-97 0 -174 47 -174 154c0 121 128 162 262 162h75v38c0 83 -32 118 -112 118c-72 0 -112 -30 -120 -94h-83c11 119 106 163 207 163c100 0 191 -41 191 -187v-345h-83v66
c-39 -49 -86 -75 -163 -75zM325 619c-43 0 -79 43 -108 43c-19 0 -35 -19 -40 -45h-60c8 71 49 116 101 116c42 0 78 -43 107 -43c19 0 35 19 40 45h60c-8 -71 -49 -116 -100 -116z" />
    <glyph glyph-name="adieresis" unicode="&#xe4;" horiz-adv-x="540" 
d="M223 57c88 0 155 45 155 126v65h-72c-105 0 -182 -26 -182 -103c0 -54 26 -88 99 -88zM215 -9c-97 0 -174 47 -174 154c0 121 128 162 262 162h75v38c0 83 -32 118 -112 118c-72 0 -112 -30 -120 -94h-83c11 119 106 163 207 163c100 0 191 -41 191 -187v-345h-83v66
c-39 -49 -86 -75 -163 -75zM365 634c-29 0 -53 24 -53 53s24 53 53 53s53 -24 53 -53s-24 -53 -53 -53zM177 634c-29 0 -53 24 -53 53s24 53 53 53s53 -24 53 -53s-24 -53 -53 -53z" />
    <glyph glyph-name="aring" unicode="&#xe5;" horiz-adv-x="540" 
d="M223 57c88 0 155 45 155 126v65h-72c-105 0 -182 -26 -182 -103c0 -54 26 -88 99 -88zM215 -9c-97 0 -174 47 -174 154c0 121 128 162 262 162h75v38c0 83 -32 118 -112 118c-72 0 -112 -30 -120 -94h-83c11 119 106 163 207 163c100 0 191 -41 191 -187v-345h-83v66
c-39 -49 -86 -75 -163 -75zM271 598c-59 0 -107 47 -107 104s48 104 107 104s107 -47 107 -104s-48 -104 -107 -104zM271 644c31 0 53 25 53 58s-22 58 -53 58s-53 -25 -53 -58s22 -58 53 -58z" />
    <glyph glyph-name="ae" unicode="&#xe6;" horiz-adv-x="880" 
d="M616 -9c-88 0 -157 40 -197 108c-48 -75 -108 -108 -204 -108c-97 0 -174 47 -174 154c0 122 125 165 259 165h78v34c0 83 -35 119 -112 119c-72 0 -112 -30 -120 -94h-83c11 119 106 163 207 163c69 0 134 -22 164 -89c40 56 100 89 176 89c116 0 227 -71 227 -260v-25
h-379c4 -119 56 -187 159 -187c78 0 122 30 133 91h83c-18 -105 -104 -160 -217 -160zM461 310h291c-8 110 -59 153 -142 153c-81 0 -136 -59 -149 -153zM223 57c88 0 155 45 155 126v64h-75c-105 0 -179 -25 -179 -102c0 -54 26 -88 99 -88z" />
    <glyph glyph-name="ccedilla" unicode="&#xe7;" horiz-adv-x="570" 
d="M286 -214c-58 0 -96 34 -100 84h54c4 -19 18 -36 43 -36s40 15 40 36s-15 34 -36 34c-13 0 -23 -5 -28 -8l-32 28l38 69c-128 15 -220 114 -220 263v8c0 160 114 268 254 268c109 0 211 -50 227 -183h-82c-13 83 -73 114 -145 114c-95 0 -168 -76 -168 -199v-8
c0 -128 70 -196 171 -196c74 0 141 43 150 128h77c-11 -108 -94 -189 -212 -196l-24 -45c46 6 94 -20 94 -81c0 -54 -47 -80 -101 -80z" />
    <glyph glyph-name="egrave" unicode="&#xe8;" horiz-adv-x="568" 
d="M298 -9c-148 0 -253 104 -253 265v8c0 158 101 268 245 268c121 0 235 -73 235 -260v-27h-394c4 -119 61 -185 168 -185c81 0 128 30 139 91h83c-18 -105 -105 -160 -223 -160zM134 312h306c-8 108 -64 151 -150 151c-85 0 -142 -58 -156 -151zM265 613l-104 147h104
l62 -147h-62z" />
    <glyph glyph-name="eacute" unicode="&#xe9;" horiz-adv-x="568" 
d="M298 -9c-148 0 -253 104 -253 265v8c0 158 101 268 245 268c121 0 235 -73 235 -260v-27h-394c4 -119 61 -185 168 -185c81 0 128 30 139 91h83c-18 -105 -105 -160 -223 -160zM134 312h306c-8 108 -64 151 -150 151c-85 0 -142 -58 -156 -151zM253 613l62 147h104
l-104 -147h-62z" />
    <glyph glyph-name="ecircumflex" unicode="&#xea;" horiz-adv-x="568" 
d="M298 -9c-148 0 -253 104 -253 265v8c0 158 101 268 245 268c121 0 235 -73 235 -260v-27h-394c4 -119 61 -185 168 -185c81 0 128 30 139 91h83c-18 -105 -105 -160 -223 -160zM134 312h306c-8 108 -64 151 -150 151c-85 0 -142 -58 -156 -151zM145 613l108 144h75
l107 -144h-61l-85 75l-85 -75h-59z" />
    <glyph glyph-name="edieresis" unicode="&#xeb;" horiz-adv-x="568" 
d="M384 634c-29 0 -53 24 -53 53s24 53 53 53s53 -24 53 -53s-24 -53 -53 -53zM196 634c-29 0 -53 24 -53 53s24 53 53 53s53 -24 53 -53s-24 -53 -53 -53zM298 -9c-148 0 -253 104 -253 265v8c0 158 101 268 245 268c121 0 235 -73 235 -260v-27h-394
c4 -119 61 -185 168 -185c81 0 128 30 139 91h83c-18 -105 -105 -160 -223 -160zM134 312h306c-8 108 -64 151 -150 151c-85 0 -142 -58 -156 -151z" />
    <glyph glyph-name="igrave" unicode="&#xec;" horiz-adv-x="255" 
d="M86 0v523h83v-523h-83zM102 613l-104 147h104l62 -147h-62z" />
    <glyph glyph-name="iacute" unicode="&#xed;" horiz-adv-x="255" 
d="M86 0v523h83v-523h-83zM90 613l62 147h104l-104 -147h-62z" />
    <glyph glyph-name="icircumflex" unicode="&#xee;" horiz-adv-x="255" 
d="M86 0v523h83v-523h-83zM-18 613l108 144h75l107 -144h-61l-85 75l-85 -75h-59z" />
    <glyph glyph-name="idieresis" unicode="&#xef;" horiz-adv-x="255" 
d="M217 634c-29 0 -53 24 -53 53s24 53 53 53s53 -24 53 -53s-24 -53 -53 -53zM37 634c-29 0 -53 24 -53 53s24 53 53 53s53 -24 53 -53s-24 -53 -53 -53zM86 0v523h83v-523h-83z" />
    <glyph glyph-name="eth" unicode="&#xf0;" horiz-adv-x="604" 
d="M185 573l-29 48l97 57c-40 35 -83 67 -124 95h107c25 -14 54 -32 84 -55l83 49l29 -49l-67 -39c99 -92 194 -231 194 -395v-22c0 -158 -109 -271 -258 -271s-256 113 -256 266v8c0 157 110 267 238 267c69 0 118 -31 151 -72c-32 64 -81 125 -137 179zM302 60
c105 0 171 79 171 197v7c0 121 -66 199 -170 199c-105 0 -172 -78 -172 -198v-8c0 -119 65 -197 171 -197z" />
    <glyph glyph-name="ntilde" unicode="&#xf1;" horiz-adv-x="598" 
d="M84 0v523h83v-83c24 49 82 92 168 92c108 0 184 -59 184 -211v-321h-83v327c0 92 -39 133 -123 133c-77 0 -146 -49 -146 -143v-317h-83zM352 619c-43 0 -79 43 -108 43c-19 0 -35 -19 -40 -45h-60c8 71 49 116 101 116c42 0 78 -43 107 -43c19 0 35 19 40 45h60
c-8 -71 -49 -116 -100 -116z" />
    <glyph glyph-name="ograve" unicode="&#xf2;" horiz-adv-x="604" 
d="M301 -9c-149 0 -256 113 -256 266v8c0 157 109 267 257 267s257 -109 257 -266v-8c0 -158 -109 -267 -258 -267zM302 60c105 0 171 79 171 197v7c0 121 -67 199 -171 199c-105 0 -171 -78 -171 -198v-8c0 -119 65 -197 171 -197zM277 613l-104 147h104l62 -147h-62z" />
    <glyph glyph-name="oacute" unicode="&#xf3;" horiz-adv-x="604" 
d="M301 -9c-149 0 -256 113 -256 266v8c0 157 109 267 257 267s257 -109 257 -266v-8c0 -158 -109 -267 -258 -267zM302 60c105 0 171 79 171 197v7c0 121 -67 199 -171 199c-105 0 -171 -78 -171 -198v-8c0 -119 65 -197 171 -197zM265 613l62 147h104l-104 -147h-62z" />
    <glyph glyph-name="ocircumflex" unicode="&#xf4;" horiz-adv-x="604" 
d="M301 -9c-149 0 -256 113 -256 266v8c0 157 109 267 257 267s257 -109 257 -266v-8c0 -158 -109 -267 -258 -267zM302 60c105 0 171 79 171 197v7c0 121 -67 199 -171 199c-105 0 -171 -78 -171 -198v-8c0 -119 65 -197 171 -197zM157 613l108 144h75l107 -144h-61l-85 75
l-85 -75h-59z" />
    <glyph glyph-name="otilde" unicode="&#xf5;" horiz-adv-x="604" 
d="M301 -9c-149 0 -256 113 -256 266v8c0 157 109 267 257 267s257 -109 257 -266v-8c0 -158 -109 -267 -258 -267zM302 60c105 0 171 79 171 197v7c0 121 -67 199 -171 199c-105 0 -171 -78 -171 -198v-8c0 -119 65 -197 171 -197zM356 619c-43 0 -79 43 -108 43
c-19 0 -35 -19 -40 -45h-60c8 71 49 116 101 116c42 0 78 -43 107 -43c19 0 35 19 40 45h60c-8 -71 -49 -116 -100 -116z" />
    <glyph glyph-name="odieresis" unicode="&#xf6;" horiz-adv-x="604" 
d="M301 -9c-149 0 -256 113 -256 266v8c0 157 109 267 257 267s257 -109 257 -266v-8c0 -158 -109 -267 -258 -267zM302 60c105 0 171 79 171 197v7c0 121 -67 199 -171 199c-105 0 -171 -78 -171 -198v-8c0 -119 65 -197 171 -197zM396 634c-29 0 -53 24 -53 53
s24 53 53 53s53 -24 53 -53s-24 -53 -53 -53zM208 634c-29 0 -53 24 -53 53s24 53 53 53s53 -24 53 -53s-24 -53 -53 -53z" />
    <glyph glyph-name="divide" unicode="&#xf7;" horiz-adv-x="519" 
d="M259 467c-35 0 -64 28 -64 64s29 64 64 64s64 -28 64 -64s-29 -64 -64 -64zM36 307v70h447v-70h-447zM259 89c-35 0 -64 28 -64 64s29 64 64 64s64 -28 64 -64s-29 -64 -64 -64z" />
    <glyph glyph-name="oslash" unicode="&#xf8;" horiz-adv-x="604" 
d="M131 257c0 -43 8 -80 24 -111l253 280c-28 24 -64 37 -106 37c-105 0 -171 -78 -171 -198v-8zM302 60c105 0 171 79 171 197v7c0 46 -10 85 -27 117l-256 -281c29 -26 66 -40 112 -40zM67 -37l-44 38l77 85c-35 45 -55 104 -55 171v8c0 157 109 267 257 267
c60 0 114 -18 156 -50l68 74l44 -38l-70 -77c37 -46 59 -106 59 -175v-8c0 -158 -109 -267 -258 -267c-63 0 -117 20 -160 54z" />
    <glyph glyph-name="ugrave" unicode="&#xf9;" horiz-adv-x="594" 
d="M261 -9c-104 0 -182 57 -182 201v331h83v-327c0 -92 39 -133 121 -133c74 0 144 49 144 143v317h83v-523h-83v83c-24 -49 -82 -92 -166 -92zM272 613l-104 147h104l62 -147h-62z" />
    <glyph glyph-name="uacute" unicode="&#xfa;" horiz-adv-x="594" 
d="M261 -9c-104 0 -182 57 -182 201v331h83v-327c0 -92 39 -133 121 -133c74 0 144 49 144 143v317h83v-523h-83v83c-24 -49 -82 -92 -166 -92zM260 613l62 147h104l-104 -147h-62z" />
    <glyph glyph-name="ucircumflex" unicode="&#xfb;" horiz-adv-x="594" 
d="M261 -9c-104 0 -182 57 -182 201v331h83v-327c0 -92 39 -133 121 -133c74 0 144 49 144 143v317h83v-523h-83v83c-24 -49 -82 -92 -166 -92zM152 613l108 144h75l107 -144h-61l-85 75l-85 -75h-59z" />
    <glyph glyph-name="udieresis" unicode="&#xfc;" horiz-adv-x="594" 
d="M261 -9c-104 0 -182 57 -182 201v331h83v-327c0 -92 39 -133 121 -133c74 0 144 49 144 143v317h83v-523h-83v83c-24 -49 -82 -92 -166 -92zM391 634c-29 0 -53 24 -53 53s24 53 53 53s53 -24 53 -53s-24 -53 -53 -53zM203 634c-29 0 -53 24 -53 53s24 53 53 53
s53 -24 53 -53s-24 -53 -53 -53z" />
    <glyph glyph-name="yacute" unicode="&#xfd;" horiz-adv-x="529" 
d="M131 -182l99 236l-205 469h89l160 -375l145 375h85l-289 -705h-84zM235 613l62 147h104l-104 -147h-62z" />
    <glyph glyph-name="thorn" unicode="&#xfe;" horiz-adv-x="627" 
d="M336 60c104 0 160 70 160 197v8c0 132 -73 198 -161 198c-97 0 -171 -64 -171 -198v-8c0 -134 70 -197 172 -197zM84 -182v955h83v-338c30 51 101 97 177 97c137 0 238 -100 238 -263v-8c0 -160 -94 -270 -238 -270c-86 0 -147 43 -177 95v-268h-83z" />
    <glyph glyph-name="ydieresis" unicode="&#xff;" horiz-adv-x="529" 
d="M131 -182l99 236l-205 469h89l160 -375l145 375h85l-289 -705h-84zM366 634c-29 0 -53 24 -53 53s24 53 53 53s53 -24 53 -53s-24 -53 -53 -53zM178 634c-29 0 -53 24 -53 53s24 53 53 53s53 -24 53 -53s-24 -53 -53 -53z" />
    <glyph glyph-name="Amacron" unicode="&#x100;" horiz-adv-x="674" 
d="M335 643l-124 -368h248zM36 0l246 715h114l242 -715h-86l-70 206h-295l-69 -206h-82zM204 786v64h266v-64h-266z" />
    <glyph glyph-name="amacron" unicode="&#x101;" horiz-adv-x="540" 
d="M223 57c88 0 155 45 155 126v65h-72c-105 0 -182 -26 -182 -103c0 -54 26 -88 99 -88zM215 -9c-97 0 -174 47 -174 154c0 121 128 162 262 162h75v38c0 83 -32 118 -112 118c-72 0 -112 -30 -120 -94h-83c11 119 106 163 207 163c100 0 191 -41 191 -187v-345h-83v66
c-39 -49 -86 -75 -163 -75zM140 648v64h262v-64h-262z" />
    <glyph glyph-name="Abreve" unicode="&#x102;" horiz-adv-x="674" 
d="M335 643l-124 -368h248zM36 0l246 715h114l242 -715h-86l-70 206h-295l-69 -206h-82zM335 767c-72 0 -128 56 -132 132h66c7 -39 26 -64 66 -64c42 0 64 24 72 64h64c-4 -76 -64 -132 -136 -132z" />
    <glyph glyph-name="abreve" unicode="&#x103;" horiz-adv-x="540" 
d="M223 57c88 0 155 45 155 126v65h-72c-105 0 -182 -26 -182 -103c0 -54 26 -88 99 -88zM215 -9c-97 0 -174 47 -174 154c0 121 128 162 262 162h75v38c0 83 -32 118 -112 118c-72 0 -112 -30 -120 -94h-83c11 119 106 163 207 163c100 0 191 -41 191 -187v-345h-83v66
c-39 -49 -86 -75 -163 -75zM269 619c-72 0 -128 56 -132 132h66c7 -39 26 -64 66 -64c42 0 64 24 72 64h64c-4 -76 -64 -132 -136 -132z" />
    <glyph glyph-name="Aogonek" unicode="&#x104;" horiz-adv-x="674" 
d="M585 -182c-62 0 -104 30 -104 80c0 41 32 78 72 99l-71 209h-295l-69 -206h-82l246 715h114l241 -712c-55 -32 -77 -58 -77 -89c0 -24 14 -36 38 -36c17 0 37 3 52 11v-59c-17 -7 -37 -12 -65 -12zM335 643l-124 -368h248z" />
    <glyph glyph-name="aogonek" unicode="&#x105;" horiz-adv-x="540" 
d="M407 -182c-62 0 -104 30 -104 80c0 42 33 79 75 101v67c-39 -49 -86 -75 -163 -75c-97 0 -174 47 -174 154c0 121 128 162 262 162h75v38c0 83 -32 118 -112 118c-72 0 -112 -30 -120 -94h-83c11 119 106 163 207 163c100 0 191 -41 191 -187v-341
c-54 -31 -79 -59 -79 -90c0 -24 14 -36 38 -36c17 0 37 3 52 11v-59c-17 -7 -37 -12 -65 -12zM223 57c88 0 155 45 155 126v65h-72c-105 0 -182 -26 -182 -103c0 -54 26 -88 99 -88z" />
    <glyph glyph-name="Cacute" unicode="&#x106;" horiz-adv-x="730" 
d="M389 -9c-207 0 -334 142 -334 362v8c0 212 142 365 336 365c149 0 275 -79 290 -234h-86c-18 109 -81 165 -203 165c-148 0 -247 -115 -247 -295v-8c0 -182 92 -292 246 -292c117 0 198 59 216 175h81c-25 -165 -139 -246 -299 -246zM356 771l56 127h104l-98 -127h-62z
" />
    <glyph glyph-name="cacute" unicode="&#x107;" horiz-adv-x="570" 
d="M301 -9c-146 0 -256 103 -256 265v8c0 160 114 268 254 268c109 0 211 -50 227 -183h-82c-13 83 -73 114 -145 114c-95 0 -168 -76 -168 -199v-8c0 -128 70 -196 171 -196c74 0 141 43 150 128h77c-11 -113 -102 -197 -228 -197zM261 613l62 147h104l-104 -147h-62z" />
    <glyph glyph-name="Ccircumflex" unicode="&#x108;" horiz-adv-x="730" 
d="M389 -9c-207 0 -334 142 -334 362v8c0 212 142 365 336 365c149 0 275 -79 290 -234h-86c-18 109 -81 165 -203 165c-148 0 -247 -115 -247 -295v-8c0 -182 92 -292 246 -292c117 0 198 59 216 175h81c-25 -165 -139 -246 -299 -246zM248 771l108 127h75l107 -127h-61
l-85 58l-85 -58h-59z" />
    <glyph glyph-name="ccircumflex" unicode="&#x109;" horiz-adv-x="570" 
d="M301 -9c-146 0 -256 103 -256 265v8c0 160 114 268 254 268c109 0 211 -50 227 -183h-82c-13 83 -73 114 -145 114c-95 0 -168 -76 -168 -199v-8c0 -128 70 -196 171 -196c74 0 141 43 150 128h77c-11 -113 -102 -197 -228 -197zM153 613l108 144h75l107 -144h-61l-85 75
l-85 -75h-59z" />
    <glyph glyph-name="Cdotaccent" unicode="&#x10a;" horiz-adv-x="730" 
d="M389 -9c-207 0 -334 142 -334 362v8c0 212 142 365 336 365c149 0 275 -79 290 -234h-86c-18 109 -81 165 -203 165c-148 0 -247 -115 -247 -295v-8c0 -182 92 -292 246 -292c117 0 198 59 216 175h81c-25 -165 -139 -246 -299 -246zM389 787c-30 0 -55 25 -55 55
s25 55 55 55s55 -25 55 -55s-25 -55 -55 -55z" />
    <glyph glyph-name="cdotaccent" unicode="&#x10b;" horiz-adv-x="570" 
d="M301 -9c-146 0 -256 103 -256 265v8c0 160 114 268 254 268c109 0 211 -50 227 -183h-82c-13 83 -73 114 -145 114c-95 0 -168 -76 -168 -199v-8c0 -128 70 -196 171 -196c74 0 141 43 150 128h77c-11 -113 -102 -197 -228 -197zM298 632c-30 0 -55 25 -55 55
s25 55 55 55s55 -25 55 -55s-25 -55 -55 -55z" />
    <glyph glyph-name="Ccaron" unicode="&#x10c;" horiz-adv-x="730" 
d="M389 -9c-207 0 -334 142 -334 362v8c0 212 142 365 336 365c149 0 275 -79 290 -234h-86c-18 109 -81 165 -203 165c-148 0 -247 -115 -247 -295v-8c0 -182 92 -292 246 -292c117 0 198 59 216 175h81c-25 -165 -139 -246 -299 -246zM355 771l-107 127h61l85 -58l85 58
h59l-108 -127h-75z" />
    <glyph glyph-name="ccaron" unicode="&#x10d;" horiz-adv-x="570" 
d="M301 -9c-146 0 -256 103 -256 265v8c0 160 114 268 254 268c109 0 211 -50 227 -183h-82c-13 83 -73 114 -145 114c-95 0 -168 -76 -168 -199v-8c0 -128 70 -196 171 -196c74 0 141 43 150 128h77c-11 -113 -102 -197 -228 -197zM260 613l-107 144h61l85 -75l85 75h59
l-108 -144h-75z" />
    <glyph glyph-name="Dcaron" unicode="&#x10e;" horiz-adv-x="696" 
d="M90 0v715h189c246 0 362 -152 362 -351v-9c0 -198 -114 -355 -364 -355h-187zM177 71h98c184 0 276 110 276 285v8c0 165 -80 281 -277 281h-97v-574zM278 771l-107 127h61l85 -58l85 58h59l-108 -127h-75z" />
    <glyph glyph-name="dcaron" unicode="&#x10f;" horiz-adv-x="627" 
d="M290 60c97 0 173 64 173 198v8c0 134 -64 197 -166 197c-104 0 -166 -73 -166 -200v-8c0 -132 71 -195 159 -195zM281 -9c-137 0 -236 97 -236 260v8c0 160 100 273 244 273c87 0 141 -42 171 -93v334h83v-773h-83v90c-30 -51 -103 -99 -179 -99zM591 598l12 175h94
l-48 -175h-58z" />
    <glyph glyph-name="Dcroat" unicode="&#x110;" horiz-adv-x="716" 
d="M34 325v67h76v323h189c246 0 362 -152 362 -351v-9c0 -198 -114 -355 -364 -355h-187v325h-76zM197 71h98c184 0 276 110 276 285v8c0 165 -80 281 -277 281h-97v-253h207v-67h-207v-254z" />
    <glyph glyph-name="dcroat" unicode="&#x111;" horiz-adv-x="627" 
d="M290 60c97 0 173 64 173 198v8c0 134 -64 197 -166 197c-104 0 -166 -73 -166 -200v-8c0 -132 71 -195 159 -195zM282 615v61h178v97h83v-97h75v-61h-75v-615h-83v90c-30 -51 -103 -99 -179 -99c-137 0 -236 97 -236 260v8c0 160 100 273 244 273c87 0 141 -42 171 -93
v176h-178z" />
    <glyph glyph-name="Emacron" unicode="&#x112;" horiz-adv-x="566" 
d="M90 0v715h417v-71h-330v-243h266v-71h-266v-259h348v-71h-435zM173 786v64h266v-64h-266z" />
    <glyph glyph-name="emacron" unicode="&#x113;" horiz-adv-x="568" 
d="M298 -9c-148 0 -253 104 -253 265v8c0 158 101 268 245 268c121 0 235 -73 235 -260v-27h-394c4 -119 61 -185 168 -185c81 0 128 30 139 91h83c-18 -105 -105 -160 -223 -160zM134 312h306c-8 108 -64 151 -150 151c-85 0 -142 -58 -156 -151zM159 648v64h262v-64h-262z
" />
    <glyph glyph-name="Ebreve" unicode="&#x114;" horiz-adv-x="566" 
d="M90 0v715h417v-71h-330v-243h266v-71h-266v-259h348v-71h-435zM311 767c-72 0 -128 56 -132 132h66c7 -39 26 -64 66 -64c42 0 64 24 72 64h64c-4 -76 -64 -132 -136 -132z" />
    <glyph glyph-name="ebreve" unicode="&#x115;" horiz-adv-x="568" 
d="M298 -9c-148 0 -253 104 -253 265v8c0 158 101 268 245 268c121 0 235 -73 235 -260v-27h-394c4 -119 61 -185 168 -185c81 0 128 30 139 91h83c-18 -105 -105 -160 -223 -160zM134 312h306c-8 108 -64 151 -150 151c-85 0 -142 -58 -156 -151zM280 619
c-72 0 -128 56 -132 132h66c7 -39 26 -64 66 -64c42 0 64 24 72 64h64c-4 -76 -64 -132 -136 -132z" />
    <glyph glyph-name="Edotaccent" unicode="&#x116;" horiz-adv-x="566" 
d="M90 0v715h417v-71h-330v-243h266v-71h-266v-259h348v-71h-435zM306 787c-30 0 -55 25 -55 55s25 55 55 55s55 -25 55 -55s-25 -55 -55 -55z" />
    <glyph glyph-name="edotaccent" unicode="&#x117;" horiz-adv-x="568" 
d="M298 -9c-148 0 -253 104 -253 265v8c0 158 101 268 245 268c121 0 235 -73 235 -260v-27h-394c4 -119 61 -185 168 -185c81 0 128 30 139 91h83c-18 -105 -105 -160 -223 -160zM134 312h306c-8 108 -64 151 -150 151c-85 0 -142 -58 -156 -151zM290 632
c-30 0 -55 25 -55 55s25 55 55 55s55 -25 55 -55s-25 -55 -55 -55z" />
    <glyph glyph-name="Eogonek" unicode="&#x118;" horiz-adv-x="566" 
d="M454 -182c-62 0 -104 30 -104 80c0 43 35 81 78 102h-338v715h417v-71h-330v-243h266v-71h-266v-259h348v-71h-28c-45 -30 -68 -55 -68 -86c0 -24 14 -36 38 -36c17 0 37 3 52 11v-59c-17 -7 -37 -12 -65 -12z" />
    <glyph glyph-name="eogonek" unicode="&#x119;" horiz-adv-x="568" 
d="M388 -182c-62 0 -104 30 -104 80c0 40 30 76 69 97c-18 -3 -36 -4 -55 -4c-148 0 -253 104 -253 265v8c0 158 101 268 245 268c121 0 235 -73 235 -260v-27h-394c4 -119 61 -185 168 -185c81 0 128 30 139 91h83c-14 -81 -65 -118 -91 -140c-39 -33 -67 -66 -67 -97
c0 -24 14 -36 38 -36c17 0 37 3 52 11v-59c-17 -7 -37 -12 -65 -12zM134 312h306c-8 108 -64 151 -150 151c-85 0 -142 -58 -156 -151z" />
    <glyph glyph-name="Ecaron" unicode="&#x11a;" horiz-adv-x="566" 
d="M90 0v715h417v-71h-330v-243h266v-71h-266v-259h348v-71h-435zM272 771l-107 127h61l85 -58l85 58h59l-108 -127h-75z" />
    <glyph glyph-name="ecaron" unicode="&#x11b;" horiz-adv-x="568" 
d="M298 -9c-148 0 -253 104 -253 265v8c0 158 101 268 245 268c121 0 235 -73 235 -260v-27h-394c4 -119 61 -185 168 -185c81 0 128 30 139 91h83c-18 -105 -105 -160 -223 -160zM134 312h306c-8 108 -64 151 -150 151c-85 0 -142 -58 -156 -151zM252 613l-107 144h61
l85 -75l85 75h59l-108 -144h-75z" />
    <glyph glyph-name="Gcircumflex" unicode="&#x11c;" horiz-adv-x="767" 
d="M401 -9c-220 0 -346 153 -346 362v8c0 209 141 365 346 365c142 0 269 -66 291 -227h-87c-20 114 -98 158 -202 158c-164 0 -258 -120 -258 -295v-8c0 -177 88 -293 256 -293c155 0 222 101 225 228h-209v72h294v-53c0 -207 -127 -317 -310 -317zM250 771l108 127h75
l107 -127h-61l-85 58l-85 -58h-59z" />
    <glyph glyph-name="gcircumflex" unicode="&#x11d;" horiz-adv-x="627" 
d="M292 86c97 0 171 68 171 185v7c0 117 -64 185 -166 185c-104 0 -166 -77 -166 -187v-8c0 -114 73 -182 161 -182zM293 -191c-155 0 -223 73 -237 161h85c12 -60 62 -91 151 -91c103 0 168 49 168 161v76c-30 -51 -101 -99 -177 -99c-137 0 -238 104 -238 248v7
c0 142 100 260 244 260c87 0 141 -42 171 -93v84h83v-488c-1 -152 -104 -226 -250 -226zM149 613l108 144h75l107 -144h-61l-85 75l-85 -75h-59z" />
    <glyph glyph-name="Gbreve" unicode="&#x11e;" horiz-adv-x="767" 
d="M401 -9c-220 0 -346 153 -346 362v8c0 209 141 365 346 365c142 0 269 -66 291 -227h-87c-20 114 -98 158 -202 158c-164 0 -258 -120 -258 -295v-8c0 -177 88 -293 256 -293c155 0 222 101 225 228h-209v72h294v-53c0 -207 -127 -317 -310 -317zM393 767
c-72 0 -128 56 -132 132h66c7 -39 26 -64 66 -64c42 0 64 24 72 64h64c-4 -76 -64 -132 -136 -132z" />
    <glyph glyph-name="gbreve" unicode="&#x11f;" horiz-adv-x="627" 
d="M292 86c97 0 171 68 171 185v7c0 117 -64 185 -166 185c-104 0 -166 -77 -166 -187v-8c0 -114 73 -182 161 -182zM293 -191c-155 0 -223 73 -237 161h85c12 -60 62 -91 151 -91c103 0 168 49 168 161v76c-30 -51 -101 -99 -177 -99c-137 0 -238 104 -238 248v7
c0 142 100 260 244 260c87 0 141 -42 171 -93v84h83v-488c-1 -152 -104 -226 -250 -226zM292 619c-72 0 -128 56 -132 132h66c7 -39 26 -64 66 -64c42 0 64 24 72 64h64c-4 -76 -64 -132 -136 -132z" />
    <glyph glyph-name="Gdotaccent" unicode="&#x120;" horiz-adv-x="767" 
d="M401 -9c-220 0 -346 153 -346 362v8c0 209 141 365 346 365c142 0 269 -66 291 -227h-87c-20 114 -98 158 -202 158c-164 0 -258 -120 -258 -295v-8c0 -177 88 -293 256 -293c155 0 222 101 225 228h-209v72h294v-53c0 -207 -127 -317 -310 -317zM395 787
c-30 0 -55 25 -55 55s25 55 55 55s55 -25 55 -55s-25 -55 -55 -55z" />
    <glyph glyph-name="gdotaccent" unicode="&#x121;" horiz-adv-x="627" 
d="M292 86c97 0 171 68 171 185v7c0 117 -64 185 -166 185c-104 0 -166 -77 -166 -187v-8c0 -114 73 -182 161 -182zM293 -191c-155 0 -223 73 -237 161h85c12 -60 62 -91 151 -91c103 0 168 49 168 161v76c-30 -51 -101 -99 -177 -99c-137 0 -238 104 -238 248v7
c0 142 100 260 244 260c87 0 141 -42 171 -93v84h83v-488c-1 -152 -104 -226 -250 -226zM294 632c-30 0 -55 25 -55 55s25 55 55 55s55 -25 55 -55s-25 -55 -55 -55z" />
    <glyph glyph-name="uni0122" unicode="&#x122;" horiz-adv-x="767" 
d="M401 -9c-220 0 -346 153 -346 362v8c0 209 141 365 346 365c142 0 269 -66 291 -227h-87c-20 114 -98 158 -202 158c-164 0 -258 -120 -258 -295v-8c0 -177 88 -293 256 -293c155 0 222 101 225 228h-209v72h294v-53c0 -207 -127 -317 -310 -317zM362 -220l-51 26l58 157
l80 -24z" />
    <glyph glyph-name="uni0123" unicode="&#x123;" horiz-adv-x="627" 
d="M292 86c97 0 171 68 171 185v7c0 117 -64 185 -166 185c-104 0 -166 -77 -166 -187v-8c0 -114 73 -182 161 -182zM293 -191c-155 0 -223 73 -237 161h85c12 -60 62 -91 151 -91c103 0 168 49 168 161v76c-30 -51 -101 -99 -177 -99c-137 0 -238 104 -238 248v7
c0 142 100 260 244 260c87 0 141 -42 171 -93v84h83v-488c-1 -152 -104 -226 -250 -226zM334 602l-80 24l87 159l51 -26z" />
    <glyph glyph-name="Hcircumflex" unicode="&#x124;" horiz-adv-x="730" 
d="M90 0v715h87v-324h376v324h87v-715h-87v318h-376v-318h-87zM220 771l108 127h75l107 -127h-61l-85 58l-85 -58h-59z" />
    <glyph glyph-name="hcircumflex" unicode="&#x125;" horiz-adv-x="598" 
d="M84 0v773h83v-333c24 49 82 92 168 92c108 0 184 -59 184 -211v-321h-83v327c0 92 -39 133 -123 133c-77 0 -146 -49 -146 -143v-317h-83zM168 821l108 127h75l107 -127h-61l-85 58l-85 -58h-59z" />
    <glyph glyph-name="Hbar" unicode="&#x126;" horiz-adv-x="730" 
d="M177 391h376v102h-376v-102zM20 493v67h70v155h87v-155h376v155h87v-155h70v-67h-70v-493h-87v318h-376v-318h-87v493h-70z" />
    <glyph glyph-name="hbar" unicode="&#x127;" horiz-adv-x="598" 
d="M9 615v61h75v97h83v-97h178v-61h-178v-175c24 49 82 92 168 92c108 0 184 -59 184 -211v-321h-83v327c0 92 -39 133 -123 133c-77 0 -146 -49 -146 -143v-317h-83v615h-75z" />
    <glyph glyph-name="Itilde" unicode="&#x128;" horiz-adv-x="277" 
d="M95 0v715h87v-715h-87zM194 774c-43 0 -79 43 -108 43c-19 0 -35 -19 -40 -45h-60c8 71 49 116 101 116c42 0 78 -43 107 -43c19 0 35 19 40 45h60c-8 -71 -49 -116 -100 -116z" />
    <glyph glyph-name="itilde" unicode="&#x129;" horiz-adv-x="255" 
d="M86 0v523h83v-523h-83zM182 619c-43 0 -79 43 -108 43c-19 0 -35 -19 -40 -45h-60c8 71 49 116 101 116c42 0 78 -43 107 -43c19 0 35 19 40 45h60c-8 -71 -49 -116 -100 -116z" />
    <glyph glyph-name="Imacron" unicode="&#x12a;" horiz-adv-x="277" 
d="M95 0v715h87v-715h-87zM5 786v64h266v-64h-266z" />
    <glyph glyph-name="imacron" unicode="&#x12b;" horiz-adv-x="255" 
d="M30 648v64h194v-64h-194zM86 0v523h83v-523h-83z" />
    <glyph glyph-name="Ibreve" unicode="&#x12c;" horiz-adv-x="277" 
d="M95 0v715h87v-715h-87zM138 767c-72 0 -128 56 -132 132h66c7 -39 26 -64 66 -64c42 0 64 24 72 64h64c-4 -76 -64 -132 -136 -132z" />
    <glyph glyph-name="ibreve" unicode="&#x12d;" horiz-adv-x="255" 
d="M86 0v523h83v-523h-83zM126 619c-72 0 -128 56 -132 132h66c7 -39 26 -64 66 -64c42 0 64 24 72 64h64c-4 -76 -64 -132 -136 -132z" />
    <glyph glyph-name="Iogonek" unicode="&#x12e;" horiz-adv-x="277" 
d="M130 -182c-62 0 -104 30 -104 80c0 40 30 76 69 98v719h87v-711c-54 -31 -77 -59 -77 -90c0 -24 14 -36 38 -36c17 0 37 3 52 11v-59c-17 -7 -37 -12 -65 -12z" />
    <glyph glyph-name="iogonek" unicode="&#x12f;" horiz-adv-x="255" 
d="M126 632c-30 0 -55 25 -55 55s25 55 55 55s55 -25 55 -55s-25 -55 -55 -55zM120 -182c-62 0 -104 30 -104 80c0 41 30 77 70 98v527h83v-520c-51 -31 -74 -58 -74 -89c0 -24 14 -36 38 -36c17 0 37 3 52 11v-59c-17 -7 -37 -12 -65 -12z" />
    <glyph glyph-name="Idotaccent" unicode="&#x130;" horiz-adv-x="277" 
d="M95 0v715h87v-715h-87zM138 787c-30 0 -55 25 -55 55s25 55 55 55s55 -25 55 -55s-25 -55 -55 -55z" />
    <glyph glyph-name="dotlessi" unicode="&#x131;" horiz-adv-x="255" 
d="M86 0v523h83v-523h-83z" />
    <glyph glyph-name="IJ" unicode="&#x132;" horiz-adv-x="657" 
d="M95 0v715h87v-715h-87zM375 -9c-54 0 -81 9 -100 19v72c26 -11 52 -20 95 -20c71 0 116 40 116 136v517h87v-521c0 -143 -89 -203 -198 -203z" />
    <glyph glyph-name="ij" unicode="&#x133;" horiz-adv-x="510" 
d="M126 632c-30 0 -55 25 -55 55s25 55 55 55s55 -25 55 -55s-25 -55 -55 -55zM86 0v523h83v-523h-83zM381 632c-30 0 -55 25 -55 55s25 55 55 55s55 -25 55 -55s-25 -55 -55 -55zM264 -191v70c59 5 77 35 77 81v563h83v-556c0 -100 -44 -154 -160 -158z" />
    <glyph glyph-name="Jcircumflex" unicode="&#x134;" horiz-adv-x="420" 
d="M138 -9c-54 0 -81 9 -100 19v72c26 -11 52 -20 95 -20c71 0 116 40 116 136v517h87v-521c0 -143 -89 -203 -198 -203zM145 771l108 127h75l107 -127h-61l-85 58l-85 -58h-59z" />
    <glyph glyph-name="jcircumflex" unicode="&#x135;" horiz-adv-x="255" 
d="M9 -191v70c59 5 77 35 77 81v563h83v-556c0 -100 -44 -154 -160 -158zM-19 613l108 144h75l107 -144h-61l-85 75l-85 -75h-59z" />
    <glyph glyph-name="uni0136" unicode="&#x136;" horiz-adv-x="616" 
d="M90 0v715h87v-344l311 345h97l-318 -348l334 -368h-105l-319 349v-349h-87zM289 -220l-51 26l58 157l80 -24z" />
    <glyph glyph-name="uni0137" unicode="&#x137;" horiz-adv-x="516" 
d="M84 0v773h83v-491l217 241h97l-224 -243l243 -280h-101l-232 271v-271h-83zM237 -220l-51 26l58 157l80 -24z" />
    <glyph glyph-name="Lacute" unicode="&#x139;" horiz-adv-x="535" 
d="M90 0v715h87v-644h327v-71h-414zM98 771l56 127h104l-98 -127h-62z" />
    <glyph glyph-name="lacute" unicode="&#x13a;" horiz-adv-x="256" 
d="M86 0v773h84v-773h-84zM92 821l56 127h104l-98 -127h-62z" />
    <glyph glyph-name="uni013B" unicode="&#x13b;" horiz-adv-x="535" 
d="M90 0v715h87v-644h327v-71h-414zM265 -220l-51 26l58 157l80 -24z" />
    <glyph glyph-name="uni013C" unicode="&#x13c;" horiz-adv-x="256" 
d="M86 0v773h84v-773h-84zM95 -220l-51 26l58 157l80 -24z" />
    <glyph glyph-name="Lcaron" unicode="&#x13d;" horiz-adv-x="535" 
d="M90 0v715h87v-644h327v-71h-414zM293 558l22 157h94l-58 -157h-58z" />
    <glyph glyph-name="lcaron" unicode="&#x13e;" horiz-adv-x="256" 
d="M86 0v773h84v-773h-84zM218 598l12 175h94l-48 -175h-58z" />
    <glyph glyph-name="Ldot" unicode="&#x13f;" horiz-adv-x="535" 
d="M90 0v715h87v-644h327v-71h-414zM400 320c-35 0 -64 28 -64 64s29 64 64 64s64 -28 64 -64s-29 -64 -64 -64z" />
    <glyph glyph-name="ldot" unicode="&#x140;" horiz-adv-x="328" 
d="M86 0v773h84v-773h-84zM290 303c-35 0 -64 28 -64 64s29 64 64 64s64 -28 64 -64s-29 -64 -64 -64z" />
    <glyph glyph-name="Lslash" unicode="&#x141;" horiz-adv-x="555" 
d="M42 251v68l68 25v371h87v-339l199 73v-68l-199 -73v-237h327v-71h-414v276z" />
    <glyph glyph-name="lslash" unicode="&#x142;" horiz-adv-x="276" 
d="M20 311v70l76 43v349h84v-301l80 46v-70l-80 -46v-402h-84v354z" />
    <glyph glyph-name="Nacute" unicode="&#x143;" horiz-adv-x="724" 
d="M90 0v715h113l348 -591v591h83v-715h-100l-361 613v-613h-83zM335 771l56 127h104l-98 -127h-62z" />
    <glyph glyph-name="nacute" unicode="&#x144;" horiz-adv-x="598" 
d="M84 0v523h83v-83c24 49 82 92 168 92c108 0 184 -59 184 -211v-321h-83v327c0 92 -39 133 -123 133c-77 0 -146 -49 -146 -143v-317h-83zM261 613l62 147h104l-104 -147h-62z" />
    <glyph glyph-name="uni0145" unicode="&#x145;" horiz-adv-x="724" 
d="M90 0v715h113l348 -591v591h83v-715h-100l-361 613v-613h-83zM317 -220l-51 26l58 157l80 -24z" />
    <glyph glyph-name="uni0146" unicode="&#x146;" horiz-adv-x="598" 
d="M84 0v523h83v-83c24 49 82 92 168 92c108 0 184 -59 184 -211v-321h-83v327c0 92 -39 133 -123 133c-77 0 -146 -49 -146 -143v-317h-83zM265 -220l-51 26l58 157l80 -24z" />
    <glyph glyph-name="Ncaron" unicode="&#x147;" horiz-adv-x="724" 
d="M90 0v715h113l348 -591v591h83v-715h-100l-361 613v-613h-83zM334 771l-107 127h61l85 -58l85 58h59l-108 -127h-75z" />
    <glyph glyph-name="ncaron" unicode="&#x148;" horiz-adv-x="598" 
d="M84 0v523h83v-83c24 49 82 92 168 92c108 0 184 -59 184 -211v-321h-83v327c0 92 -39 133 -123 133c-77 0 -146 -49 -146 -143v-317h-83zM260 613l-107 144h61l85 -75l85 75h59l-108 -144h-75z" />
    <glyph glyph-name="napostrophe" unicode="&#x149;" horiz-adv-x="598" 
d="M84 0v523h83v-83c24 49 82 92 168 92c108 0 184 -59 184 -211v-321h-83v327c0 92 -39 133 -123 133c-77 0 -146 -49 -146 -143v-317h-83zM7 488l-51 26l89 212l79 -36z" />
    <glyph glyph-name="Eng" unicode="&#x14a;" horiz-adv-x="724" 
d="M436 -193c-54 0 -81 9 -100 19v72c26 -11 52 -20 95 -20c70 0 116 39 118 121l-376 614v-613h-83v715h113l348 -568v568h83v-705c0 -143 -89 -203 -198 -203z" />
    <glyph glyph-name="eng" unicode="&#x14b;" horiz-adv-x="598" 
d="M359 -191v70c59 5 77 35 77 81v367c0 92 -39 133 -123 133c-77 0 -146 -49 -146 -143v-317h-83v523h83v-83c24 49 82 92 168 92c108 0 184 -59 184 -211v-354c0 -100 -44 -154 -160 -158z" />
    <glyph glyph-name="Omacron" unicode="&#x14c;" horiz-adv-x="811" 
d="M409 -9c-211 0 -354 162 -354 362v8c0 203 142 363 352 363s349 -160 349 -361v-8c0 -202 -139 -364 -347 -364zM409 63c159 0 257 120 257 293v8c0 160 -94 290 -259 290c-166 0 -262 -122 -262 -292v-8c0 -173 115 -291 264 -291zM272 786v64h266v-64h-266z" />
    <glyph glyph-name="omacron" unicode="&#x14d;" horiz-adv-x="604" 
d="M301 -9c-149 0 -256 113 -256 266v8c0 157 109 267 257 267s257 -109 257 -266v-8c0 -158 -109 -267 -258 -267zM302 60c105 0 171 79 171 197v7c0 121 -67 199 -171 199c-105 0 -171 -78 -171 -198v-8c0 -119 65 -197 171 -197zM171 648v64h262v-64h-262z" />
    <glyph glyph-name="Obreve" unicode="&#x14e;" horiz-adv-x="811" 
d="M409 -9c-211 0 -354 162 -354 362v8c0 203 142 363 352 363s349 -160 349 -361v-8c0 -202 -139 -364 -347 -364zM409 63c159 0 257 120 257 293v8c0 160 -94 290 -259 290c-166 0 -262 -122 -262 -292v-8c0 -173 115 -291 264 -291zM403 767c-72 0 -128 56 -132 132h66
c7 -39 26 -64 66 -64c42 0 64 24 72 64h64c-4 -76 -64 -132 -136 -132z" />
    <glyph glyph-name="obreve" unicode="&#x14f;" horiz-adv-x="604" 
d="M301 -9c-149 0 -256 113 -256 266v8c0 157 109 267 257 267s257 -109 257 -266v-8c0 -158 -109 -267 -258 -267zM302 60c105 0 171 79 171 197v7c0 121 -67 199 -171 199c-105 0 -171 -78 -171 -198v-8c0 -119 65 -197 171 -197zM300 619c-72 0 -128 56 -132 132h66
c7 -39 26 -64 66 -64c42 0 64 24 72 64h64c-4 -76 -64 -132 -136 -132z" />
    <glyph glyph-name="Ohungarumlaut" unicode="&#x150;" horiz-adv-x="811" 
d="M409 -9c-211 0 -354 162 -354 362v8c0 203 142 363 352 363s349 -160 349 -361v-8c0 -202 -139 -364 -347 -364zM409 63c159 0 257 120 257 293v8c0 160 -94 290 -259 290c-166 0 -262 -122 -262 -292v-8c0 -173 115 -291 264 -291zM447 771l37 127h95l-72 -127h-60z
M293 771l37 127h95l-72 -127h-60z" />
    <glyph glyph-name="ohungarumlaut" unicode="&#x151;" horiz-adv-x="604" 
d="M301 -9c-149 0 -256 113 -256 266v8c0 157 109 267 257 267s257 -109 257 -266v-8c0 -158 -109 -267 -258 -267zM302 60c105 0 171 79 171 197v7c0 121 -67 199 -171 199c-105 0 -171 -78 -171 -198v-8c0 -119 65 -197 171 -197zM344 613l40 147h95l-75 -147h-60z
M190 613l40 147h95l-75 -147h-60z" />
    <glyph glyph-name="OE" unicode="&#x152;" horiz-adv-x="955" 
d="M55 360c0 198 114 355 364 355h477v-71h-314v-243h250v-71h-250v-259h332v-71h-497c-246 0 -362 152 -362 351v9zM495 644h-74c-184 0 -276 -110 -276 -285v-8c0 -165 80 -281 277 -281h73v574z" />
    <glyph glyph-name="oe" unicode="&#x153;" horiz-adv-x="995" 
d="M301 -9c-149 0 -256 113 -256 266v8c0 157 109 267 257 267c98 0 173 -48 212 -126c37 78 108 126 203 126c121 0 235 -73 235 -260v-27h-394c4 -119 61 -185 168 -185c81 0 128 30 139 91h83c-18 -105 -105 -160 -223 -160c-99 0 -173 46 -211 125
c-40 -78 -115 -125 -213 -125zM561 312h306c-8 108 -64 151 -150 151c-85 0 -142 -58 -156 -151zM302 60c105 0 171 79 171 197v7c0 121 -67 199 -171 199c-105 0 -171 -78 -171 -198v-8c0 -119 65 -197 171 -197z" />
    <glyph glyph-name="Racute" unicode="&#x154;" horiz-adv-x="628" 
d="M177 380h134c102 0 157 44 157 132v4c0 97 -60 129 -157 129h-134v-265zM90 0v715h215c137 0 250 -56 250 -199v-4c0 -118 -79 -176 -177 -195l219 -317h-97l-213 311h-110v-311h-87zM273 771l56 127h104l-98 -127h-62z" />
    <glyph glyph-name="racute" unicode="&#x155;" horiz-adv-x="376" 
d="M84 0v523h83v-94c33 59 78 100 172 103v-78c-105 -5 -172 -38 -172 -167v-287h-83zM168 613l62 147h104l-104 -147h-62z" />
    <glyph glyph-name="uni0156" unicode="&#x156;" horiz-adv-x="628" 
d="M177 380h134c102 0 157 44 157 132v4c0 97 -60 129 -157 129h-134v-265zM90 0v715h215c137 0 250 -56 250 -199v-4c0 -118 -79 -176 -177 -195l219 -317h-97l-213 311h-110v-311h-87zM277 -220l-51 26l58 157l80 -24z" />
    <glyph glyph-name="uni0157" unicode="&#x157;" horiz-adv-x="376" 
d="M84 0v523h83v-94c33 59 78 100 172 103v-78c-105 -5 -172 -38 -172 -167v-287h-83zM90 -220l-51 26l58 157l80 -24z" />
    <glyph glyph-name="Rcaron" unicode="&#x158;" horiz-adv-x="628" 
d="M177 380h134c102 0 157 44 157 132v4c0 97 -60 129 -157 129h-134v-265zM90 0v715h215c137 0 250 -56 250 -199v-4c0 -118 -79 -176 -177 -195l219 -317h-97l-213 311h-110v-311h-87zM272 771l-107 127h61l85 -58l85 58h59l-108 -127h-75z" />
    <glyph glyph-name="rcaron" unicode="&#x159;" horiz-adv-x="376" 
d="M84 0v523h83v-94c33 59 78 100 172 103v-78c-105 -5 -172 -38 -172 -167v-287h-83zM167 613l-107 144h61l85 -75l85 75h59l-108 -144h-75z" />
    <glyph glyph-name="Sacute" unicode="&#x15a;" horiz-adv-x="627" 
d="M321 -9c-191 0 -260 105 -273 227h84c11 -85 45 -157 189 -157c92 0 163 54 163 135s-37 115 -173 137c-150 23 -239 70 -239 197c0 110 95 194 230 194c143 0 232 -70 246 -197h-78c-17 90 -69 127 -168 127c-98 0 -149 -49 -149 -116c0 -70 26 -106 172 -128
c159 -25 243 -73 243 -208c0 -120 -105 -211 -247 -211zM265 771l56 127h104l-98 -127h-62z" />
    <glyph glyph-name="sacute" unicode="&#x15b;" horiz-adv-x="480" 
d="M246 -9c-125 0 -200 63 -205 170h81c6 -62 39 -101 123 -101c79 0 114 27 114 83c0 55 -41 73 -122 88c-136 25 -182 63 -182 154c0 97 95 147 177 147c94 0 175 -38 189 -151h-80c-12 57 -44 82 -110 82c-60 0 -99 -30 -99 -75c0 -47 26 -66 122 -83
c108 -20 184 -44 184 -155c0 -95 -65 -159 -192 -159zM201 613l62 147h104l-104 -147h-62z" />
    <glyph glyph-name="Scircumflex" unicode="&#x15c;" horiz-adv-x="627" 
d="M321 -9c-191 0 -260 105 -273 227h84c11 -85 45 -157 189 -157c92 0 163 54 163 135s-37 115 -173 137c-150 23 -239 70 -239 197c0 110 95 194 230 194c143 0 232 -70 246 -197h-78c-17 90 -69 127 -168 127c-98 0 -149 -49 -149 -116c0 -70 26 -106 172 -128
c159 -25 243 -73 243 -208c0 -120 -105 -211 -247 -211zM157 771l108 127h75l107 -127h-61l-85 58l-85 -58h-59z" />
    <glyph glyph-name="scircumflex" unicode="&#x15d;" horiz-adv-x="480" 
d="M246 -9c-125 0 -200 63 -205 170h81c6 -62 39 -101 123 -101c79 0 114 27 114 83c0 55 -41 73 -122 88c-136 25 -182 63 -182 154c0 97 95 147 177 147c94 0 175 -38 189 -151h-80c-12 57 -44 82 -110 82c-60 0 -99 -30 -99 -75c0 -47 26 -66 122 -83
c108 -20 184 -44 184 -155c0 -95 -65 -159 -192 -159zM93 613l108 144h75l107 -144h-61l-85 75l-85 -75h-59z" />
    <glyph glyph-name="uni015E" unicode="&#x15e;" horiz-adv-x="627" 
d="M290 -214c-58 0 -96 34 -100 84h54c4 -19 18 -36 43 -36s40 15 40 36s-15 34 -36 34c-13 0 -23 -5 -28 -8l-32 28l38 70c-152 17 -209 113 -221 224h84c11 -85 45 -157 189 -157c92 0 163 54 163 135s-37 115 -173 137c-150 23 -239 70 -239 197c0 110 95 194 230 194
c143 0 232 -70 246 -197h-78c-17 90 -69 127 -168 127c-98 0 -149 -49 -149 -116c0 -70 26 -106 172 -128c159 -25 243 -73 243 -208c0 -120 -105 -211 -247 -211l-24 -44c46 6 94 -20 94 -81c0 -54 -47 -80 -101 -80z" />
    <glyph glyph-name="uni015F" unicode="&#x15f;" horiz-adv-x="480" 
d="M227 -214c-58 0 -96 34 -100 84h54c4 -19 18 -36 43 -36s40 15 40 36s-15 34 -36 34c-13 0 -23 -5 -28 -8l-32 28l38 70c-101 11 -161 72 -165 167h81c6 -62 39 -101 123 -101c79 0 114 27 114 83c0 55 -41 73 -122 88c-136 25 -182 63 -182 154c0 97 95 147 177 147
c94 0 175 -38 189 -151h-80c-12 57 -44 82 -110 82c-60 0 -99 -30 -99 -75c0 -47 26 -66 122 -83c108 -20 184 -44 184 -155c0 -92 -61 -155 -180 -159l-24 -44c46 6 94 -20 94 -81c0 -54 -47 -80 -101 -80z" />
    <glyph glyph-name="Scaron" unicode="&#x160;" horiz-adv-x="627" 
d="M321 -9c-191 0 -260 105 -273 227h84c11 -85 45 -157 189 -157c92 0 163 54 163 135s-37 115 -173 137c-150 23 -239 70 -239 197c0 110 95 194 230 194c143 0 232 -70 246 -197h-78c-17 90 -69 127 -168 127c-98 0 -149 -49 -149 -116c0 -70 26 -106 172 -128
c159 -25 243 -73 243 -208c0 -120 -105 -211 -247 -211zM264 771l-107 127h61l85 -58l85 58h59l-108 -127h-75z" />
    <glyph glyph-name="scaron" unicode="&#x161;" horiz-adv-x="480" 
d="M246 -9c-125 0 -200 63 -205 170h81c6 -62 39 -101 123 -101c79 0 114 27 114 83c0 55 -41 73 -122 88c-136 25 -182 63 -182 154c0 97 95 147 177 147c94 0 175 -38 189 -151h-80c-12 57 -44 82 -110 82c-60 0 -99 -30 -99 -75c0 -47 26 -66 122 -83
c108 -20 184 -44 184 -155c0 -95 -65 -159 -192 -159zM200 613l-107 144h61l85 -75l85 75h59l-108 -144h-75z" />
    <glyph glyph-name="Tcommaaccent" unicode="&#x162;" horiz-adv-x="561" 
d="M237 0v644h-208v71h503v-71h-208v-644h-87zM247 -220l-51 26l58 157l80 -24z" />
    <glyph glyph-name="tcommaaccent" unicode="&#x163;" horiz-adv-x="355" 
d="M243 -7c-95 0 -141 56 -141 138v322h-75v70h75v119h83v-119h122v-70h-122v-314c0 -51 23 -76 65 -76c26 0 46 4 64 11v-70c-17 -6 -37 -11 -71 -11zM158 -220l-51 26l58 157l80 -24z" />
    <glyph glyph-name="Tcaron" unicode="&#x164;" horiz-adv-x="561" 
d="M237 0v644h-208v71h503v-71h-208v-644h-87zM242 771l-107 127h61l85 -58l85 58h59l-108 -127h-75z" />
    <glyph glyph-name="tcaron" unicode="&#x165;" horiz-adv-x="355" 
d="M243 -7c-95 0 -141 56 -141 138v322h-75v70h75v119h83v-119h122v-70h-122v-314c0 -51 23 -76 65 -76c26 0 46 4 64 11v-70c-17 -6 -37 -11 -71 -11zM257 598l12 175h94l-48 -175h-58z" />
    <glyph glyph-name="Tbar" unicode="&#x166;" horiz-adv-x="561" 
d="M92 338v66h145v240h-208v71h503v-71h-208v-240h145v-66h-145v-338h-87v338h-145z" />
    <glyph glyph-name="tbar" unicode="&#x167;" horiz-adv-x="355" 
d="M27 280v59h75v114h-75v70h75v119h83v-119h122v-70h-122v-114h122v-59h-122v-141c0 -51 23 -76 65 -76c26 0 46 4 64 11v-70c-17 -6 -37 -11 -71 -11c-95 0 -141 56 -141 138v149h-75z" />
    <glyph glyph-name="Utilde" unicode="&#x168;" horiz-adv-x="696" 
d="M341 -9c-164 0 -257 96 -257 270v454h87v-444c0 -150 53 -208 172 -208c114 0 182 46 182 221v431h87v-443c0 -174 -87 -281 -271 -281zM402 774c-43 0 -79 43 -108 43c-19 0 -35 -19 -40 -45h-60c8 71 49 116 101 116c42 0 78 -43 107 -43c19 0 35 19 40 45h60
c-8 -71 -49 -116 -100 -116z" />
    <glyph glyph-name="utilde" unicode="&#x169;" horiz-adv-x="594" 
d="M261 -9c-104 0 -182 57 -182 201v331h83v-327c0 -92 39 -133 121 -133c74 0 144 49 144 143v317h83v-523h-83v83c-24 -49 -82 -92 -166 -92zM351 619c-43 0 -79 43 -108 43c-19 0 -35 -19 -40 -45h-60c8 71 49 116 101 116c42 0 78 -43 107 -43c19 0 35 19 40 45h60
c-8 -71 -49 -116 -100 -116z" />
    <glyph glyph-name="Umacron" unicode="&#x16a;" horiz-adv-x="696" 
d="M341 -9c-164 0 -257 96 -257 270v454h87v-444c0 -150 53 -208 172 -208c114 0 182 46 182 221v431h87v-443c0 -174 -87 -281 -271 -281zM215 786v64h266v-64h-266z" />
    <glyph glyph-name="umacron" unicode="&#x16b;" horiz-adv-x="594" 
d="M261 -9c-104 0 -182 57 -182 201v331h83v-327c0 -92 39 -133 121 -133c74 0 144 49 144 143v317h83v-523h-83v83c-24 -49 -82 -92 -166 -92zM166 648v64h262v-64h-262z" />
    <glyph glyph-name="Ubreve" unicode="&#x16c;" horiz-adv-x="696" 
d="M341 -9c-164 0 -257 96 -257 270v454h87v-444c0 -150 53 -208 172 -208c114 0 182 46 182 221v431h87v-443c0 -174 -87 -281 -271 -281zM346 767c-72 0 -128 56 -132 132h66c7 -39 26 -64 66 -64c42 0 64 24 72 64h64c-4 -76 -64 -132 -136 -132z" />
    <glyph glyph-name="ubreve" unicode="&#x16d;" horiz-adv-x="594" 
d="M261 -9c-104 0 -182 57 -182 201v331h83v-327c0 -92 39 -133 121 -133c74 0 144 49 144 143v317h83v-523h-83v83c-24 -49 -82 -92 -166 -92zM295 619c-72 0 -128 56 -132 132h66c7 -39 26 -64 66 -64c42 0 64 24 72 64h64c-4 -76 -64 -132 -136 -132z" />
    <glyph glyph-name="Uring" unicode="&#x16e;" horiz-adv-x="696" 
d="M341 -9c-164 0 -257 96 -257 270v454h87v-444c0 -150 53 -208 172 -208c114 0 182 46 182 221v431h87v-443c0 -174 -87 -281 -271 -281zM348 739c-59 0 -107 47 -107 104s48 104 107 104s107 -47 107 -104s-48 -104 -107 -104zM348 785c31 0 53 25 53 58s-22 58 -53 58
s-53 -25 -53 -58s22 -58 53 -58z" />
    <glyph glyph-name="uring" unicode="&#x16f;" horiz-adv-x="594" 
d="M261 -9c-104 0 -182 57 -182 201v331h83v-327c0 -92 39 -133 121 -133c74 0 144 49 144 143v317h83v-523h-83v83c-24 -49 -82 -92 -166 -92zM294 568c-59 0 -107 47 -107 104s48 104 107 104s107 -47 107 -104s-48 -104 -107 -104zM294 614c31 0 53 25 53 58
s-22 58 -53 58s-53 -25 -53 -58s22 -58 53 -58z" />
    <glyph glyph-name="Uhungarumlaut" unicode="&#x170;" horiz-adv-x="696" 
d="M341 -9c-164 0 -257 96 -257 270v454h87v-444c0 -150 53 -208 172 -208c114 0 182 46 182 221v431h87v-443c0 -174 -87 -281 -271 -281zM390 771l37 127h95l-72 -127h-60zM236 771l37 127h95l-72 -127h-60z" />
    <glyph glyph-name="uhungarumlaut" unicode="&#x171;" horiz-adv-x="594" 
d="M261 -9c-104 0 -182 57 -182 201v331h83v-327c0 -92 39 -133 121 -133c74 0 144 49 144 143v317h83v-523h-83v83c-24 -49 -82 -92 -166 -92zM339 613l40 147h95l-75 -147h-60zM185 613l40 147h95l-75 -147h-60z" />
    <glyph glyph-name="Uogonek" unicode="&#x172;" horiz-adv-x="696" 
d="M384 -182c-62 0 -104 30 -104 80c0 38 27 71 62 93h-1c-164 0 -257 96 -257 270v454h87v-444c0 -150 53 -208 172 -208c114 0 182 46 182 221v431h87v-443c0 -127 -47 -214 -133 -254c-68 -32 -120 -55 -120 -104c0 -24 14 -36 38 -36c17 0 37 3 52 11v-59
c-17 -7 -37 -12 -65 -12z" />
    <glyph glyph-name="uogonek" unicode="&#x173;" horiz-adv-x="594" 
d="M459 -182c-62 0 -104 30 -104 80c0 41 32 78 72 99v86c-24 -49 -82 -92 -166 -92c-104 0 -182 57 -182 201v331h83v-327c0 -92 39 -133 121 -133c74 0 144 49 144 143v317h83v-518c-54 -34 -76 -60 -76 -91c0 -24 14 -36 38 -36c17 0 37 3 52 11v-59
c-17 -7 -37 -12 -65 -12z" />
    <glyph glyph-name="Wcircumflex" unicode="&#x174;" horiz-adv-x="928" 
d="M220 0l-186 715h89l145 -577l168 577h62l168 -579l147 579h81l-186 -715h-80l-162 565l-167 -565h-79zM319 771l108 127h75l107 -127h-61l-85 58l-85 -58h-59z" />
    <glyph glyph-name="wcircumflex" unicode="&#x175;" horiz-adv-x="794" 
d="M189 0l-161 523h90l122 -421l127 421h72l119 -421l123 421h85l-163 -523h-92l-109 392l-122 -392h-91zM252 613l108 144h75l107 -144h-61l-85 75l-85 -75h-59z" />
    <glyph glyph-name="Ycircumflex" unicode="&#x176;" horiz-adv-x="598" 
d="M262 0v312l-239 403h98l187 -332l180 332h87l-226 -404v-311h-87zM154 771l108 127h75l107 -127h-61l-85 58l-85 -58h-59z" />
    <glyph glyph-name="ycircumflex" unicode="&#x177;" horiz-adv-x="529" 
d="M131 -182l99 236l-205 469h89l160 -375l145 375h85l-289 -705h-84zM119 613l108 144h75l107 -144h-61l-85 75l-85 -75h-59z" />
    <glyph glyph-name="Ydieresis" unicode="&#x178;" horiz-adv-x="598" 
d="M262 0v312l-239 403h98l187 -332l180 332h87l-226 -404v-311h-87zM400 789c-29 0 -53 24 -53 53s24 53 53 53s53 -24 53 -53s-24 -53 -53 -53zM197 789c-29 0 -53 24 -53 53s24 53 53 53s53 -24 53 -53s-24 -53 -53 -53z" />
    <glyph glyph-name="Zacute" unicode="&#x179;" horiz-adv-x="595" 
d="M28 0v14l405 630h-369v71h489v-13l-394 -628h388v-74h-519zM258 771l56 127h104l-98 -127h-62z" />
    <glyph glyph-name="zacute" unicode="&#x17a;" horiz-adv-x="483" 
d="M21 0v12l309 441h-279v70h407v-15l-302 -435h298v-73h-433zM211 613l62 147h104l-104 -147h-62z" />
    <glyph glyph-name="Zdotaccent" unicode="&#x17b;" horiz-adv-x="595" 
d="M28 0v14l405 630h-369v71h489v-13l-394 -628h388v-74h-519zM295 787c-30 0 -55 25 -55 55s25 55 55 55s55 -25 55 -55s-25 -55 -55 -55z" />
    <glyph glyph-name="zdotaccent" unicode="&#x17c;" horiz-adv-x="483" 
d="M21 0v12l309 441h-279v70h407v-15l-302 -435h298v-73h-433zM248 632c-30 0 -55 25 -55 55s25 55 55 55s55 -25 55 -55s-25 -55 -55 -55z" />
    <glyph glyph-name="Zcaron" unicode="&#x17d;" horiz-adv-x="595" 
d="M28 0v14l405 630h-369v71h489v-13l-394 -628h388v-74h-519zM257 771l-107 127h61l85 -58l85 58h59l-108 -127h-75z" />
    <glyph glyph-name="zcaron" unicode="&#x17e;" horiz-adv-x="483" 
d="M21 0v12l309 441h-279v70h407v-15l-302 -435h298v-73h-433zM210 613l-107 144h61l85 -75l85 75h59l-108 -144h-75z" />
    <glyph glyph-name="uni0192" unicode="&#x192;" horiz-adv-x="397" 
d="M29 345v68h97l23 152c16 103 72 159 169 159c29 0 49 -4 68 -11v-70c-15 6 -37 12 -66 12c-56 0 -81 -40 -89 -94l-23 -148h132v-68h-142l-80 -527h-83l80 527h-86z" />
    <glyph glyph-name="Aringacute" unicode="&#x1fa;" horiz-adv-x="674" 
d="M335 643l-124 -368h248zM36 0l246 715h114l242 -715h-86l-70 206h-295l-69 -206h-82zM344 749c-59 0 -107 47 -107 104s48 104 107 104s107 -47 107 -104s-48 -104 -107 -104zM344 795c31 0 53 25 53 58s-22 58 -53 58s-53 -25 -53 -58s22 -58 53 -58zM311 986l56 127
h104l-98 -127h-62z" />
    <glyph glyph-name="aringacute" unicode="&#x1fb;" horiz-adv-x="540" 
d="M223 57c88 0 155 45 155 126v65h-72c-105 0 -182 -26 -182 -103c0 -54 26 -88 99 -88zM215 -9c-97 0 -174 47 -174 154c0 121 128 162 262 162h75v38c0 83 -32 118 -112 118c-72 0 -112 -30 -120 -94h-83c11 119 106 163 207 163c100 0 191 -41 191 -187v-345h-83v66
c-39 -49 -86 -75 -163 -75zM273 578c-59 0 -107 47 -107 104s48 104 107 104s107 -47 107 -104s-48 -104 -107 -104zM273 624c31 0 53 25 53 58s-22 58 -53 58s-53 -25 -53 -58s22 -58 53 -58zM247 829l56 127h104l-98 -127h-62z" />
    <glyph glyph-name="AEacute" unicode="&#x1fc;" horiz-adv-x="950" 
d="M443 644l-187 -369h218v369h-31zM29 0l370 715h492v-71h-330v-243h266v-71h-266v-259h348v-71h-435v207h-252l-105 -207h-88zM573 771l56 127h104l-98 -127h-62z" />
    <glyph glyph-name="aeacute" unicode="&#x1fd;" horiz-adv-x="880" 
d="M616 -9c-88 0 -157 40 -197 108c-48 -75 -108 -108 -204 -108c-97 0 -174 47 -174 154c0 122 125 165 259 165h78v34c0 83 -35 119 -112 119c-72 0 -112 -30 -120 -94h-83c11 119 106 163 207 163c69 0 134 -22 164 -89c40 56 100 89 176 89c116 0 227 -71 227 -260v-25
h-379c4 -119 56 -187 159 -187c78 0 122 30 133 91h83c-18 -105 -104 -160 -217 -160zM461 310h291c-8 110 -59 153 -142 153c-81 0 -136 -59 -149 -153zM223 57c88 0 155 45 155 126v64h-75c-105 0 -179 -25 -179 -102c0 -54 26 -88 99 -88zM407 613l62 147h104l-104 -147
h-62z" />
    <glyph glyph-name="Oslashacute" unicode="&#x1fe;" horiz-adv-x="811" 
d="M145 354c0 -69 16 -127 44 -173l382 418c-42 35 -97 55 -164 55c-166 0 -262 -122 -262 -292v-8zM409 63c159 0 257 120 257 293v8c0 74 -18 138 -52 188l-384 -421c46 -45 109 -68 179 -68zM80 -33l-45 45l98 107c-50 63 -78 145 -78 234v8c0 203 142 363 352 363
c84 0 157 -26 214 -70l81 88l45 -45l-79 -87c56 -64 88 -151 88 -247v-8c0 -202 -139 -364 -347 -364c-92 0 -172 31 -232 82zM369 771l56 127h104l-98 -127h-62z" />
    <glyph glyph-name="oslashacute" unicode="&#x1ff;" horiz-adv-x="604" 
d="M131 257c0 -43 8 -80 24 -111l253 280c-28 24 -64 37 -106 37c-105 0 -171 -78 -171 -198v-8zM302 60c105 0 171 79 171 197v7c0 46 -10 85 -27 117l-256 -281c29 -26 66 -40 112 -40zM67 -37l-44 38l77 85c-35 45 -55 104 -55 171v8c0 157 109 267 257 267
c60 0 114 -18 156 -50l68 74l44 -38l-70 -77c37 -46 59 -106 59 -175v-8c0 -158 -109 -267 -258 -267c-63 0 -117 20 -160 54zM264 613l62 147h104l-104 -147h-62z" />
    <glyph glyph-name="uni0218" unicode="&#x218;" horiz-adv-x="627" 
d="M321 -9c-191 0 -260 105 -273 227h84c11 -85 45 -157 189 -157c92 0 163 54 163 135s-37 115 -173 137c-150 23 -239 70 -239 197c0 110 95 194 230 194c143 0 232 -70 246 -197h-78c-17 90 -69 127 -168 127c-98 0 -149 -49 -149 -116c0 -70 26 -106 172 -128
c159 -25 243 -73 243 -208c0 -120 -105 -211 -247 -211zM269 -220l-51 26l58 157l80 -24z" />
    <glyph glyph-name="uni0219" unicode="&#x219;" horiz-adv-x="480" 
d="M246 -9c-125 0 -200 63 -205 170h81c6 -62 39 -101 123 -101c79 0 114 27 114 83c0 55 -41 73 -122 88c-136 25 -182 63 -182 154c0 97 95 147 177 147c94 0 175 -38 189 -151h-80c-12 57 -44 82 -110 82c-60 0 -99 -30 -99 -75c0 -47 26 -66 122 -83
c108 -20 184 -44 184 -155c0 -95 -65 -159 -192 -159zM205 -220l-51 26l58 157l80 -24z" />
    <glyph glyph-name="uni021A" unicode="&#x21a;" horiz-adv-x="561" 
d="M237 0v644h-208v71h503v-71h-208v-644h-87zM247 -220l-51 26l58 157l80 -24z" />
    <glyph glyph-name="uni021B" unicode="&#x21b;" horiz-adv-x="355" 
d="M243 -7c-95 0 -141 56 -141 138v322h-75v70h75v119h83v-119h122v-70h-122v-314c0 -51 23 -76 65 -76c26 0 46 4 64 11v-70c-17 -6 -37 -11 -71 -11zM158 -220l-51 26l58 157l80 -24z" />
    <glyph glyph-name="uni0237" unicode="&#x237;" horiz-adv-x="255" 
d="M9 -191v70c59 5 77 35 77 81v563h83v-556c0 -100 -44 -154 -160 -158z" />
    <glyph glyph-name="circumflex" unicode="&#x2c6;" horiz-adv-x="400" 
d="M55 613l108 144h75l107 -144h-61l-85 75l-85 -75h-59z" />
    <glyph glyph-name="caron" unicode="&#x2c7;" horiz-adv-x="400" 
d="M162 613l-107 144h61l85 -75l85 75h59l-108 -144h-75z" />
    <glyph glyph-name="breve" unicode="&#x2d8;" horiz-adv-x="400" 
d="M198 619c-72 0 -128 56 -132 132h66c7 -39 26 -64 66 -64c42 0 64 24 72 64h64c-4 -76 -64 -132 -136 -132z" />
    <glyph glyph-name="dotaccent" unicode="&#x2d9;" horiz-adv-x="400" 
d="M200 632c-30 0 -55 25 -55 55s25 55 55 55s55 -25 55 -55s-25 -55 -55 -55z" />
    <glyph glyph-name="ring" unicode="&#x2da;" horiz-adv-x="400" 
d="M200 598c-59 0 -107 47 -107 104s48 104 107 104s107 -47 107 -104s-48 -104 -107 -104zM200 644c31 0 53 25 53 58s-22 58 -53 58s-53 -25 -53 -58s22 -58 53 -58z" />
    <glyph glyph-name="ogonek" unicode="&#x2db;" horiz-adv-x="400" 
d="M223 -182c-62 0 -104 30 -104 80c0 43 35 81 78 102h69c-45 -30 -68 -55 -68 -86c0 -24 14 -36 38 -36c17 0 37 3 52 11v-59c-17 -7 -37 -12 -65 -12z" />
    <glyph glyph-name="tilde" unicode="&#x2dc;" horiz-adv-x="400" 
d="M254 619c-43 0 -79 43 -108 43c-19 0 -35 -19 -40 -45h-60c8 71 49 116 101 116c42 0 78 -43 107 -43c19 0 35 19 40 45h60c-8 -71 -49 -116 -100 -116z" />
    <glyph glyph-name="hungarumlaut" unicode="&#x2dd;" horiz-adv-x="400" 
d="M250 613l40 147h95l-75 -147h-60zM96 613l40 147h95l-75 -147h-60z" />
    <glyph glyph-name="uni037E" unicode="&#x37e;" horiz-adv-x="292" 
d="M155 292c-35 0 -64 28 -64 64s29 64 64 64s64 -28 64 -64s-29 -64 -64 -64zM75 -123l-54 28l96 219l81 -38z" />
    <glyph glyph-name="uni0401" unicode="&#x401;" horiz-adv-x="566" 
d="M90 0v715h417v-71h-330v-243h266v-71h-266v-259h348v-71h-435zM407 789c-29 0 -53 24 -53 53s24 53 53 53s53 -24 53 -53s-24 -53 -53 -53zM204 789c-29 0 -53 24 -53 53s24 53 53 53s53 -24 53 -53s-24 -53 -53 -53z" />
    <glyph glyph-name="uni0402" unicode="&#x402;" horiz-adv-x="771" 
d="M324 372c33 31 87 62 174 62c143 0 225 -79 225 -223c0 -160 -84 -220 -175 -220c-46 0 -68 9 -84 19v72c20 -11 40 -20 73 -20c56 0 100 40 100 148c0 101 -43 156 -151 156c-76 0 -130 -44 -162 -81v-285h-87v644h-208v71h513v-71h-218v-272z" />
    <glyph glyph-name="uni0403" unicode="&#x403;" horiz-adv-x="536" 
d="M90 0v715h408v-74h-321v-641h-87zM261 771l56 127h104l-98 -127h-62z" />
    <glyph glyph-name="uni0404" unicode="&#x404;" horiz-adv-x="730" 
d="M688 237c-25 -165 -139 -246 -299 -246c-207 0 -334 142 -334 362v8c0 212 142 365 336 365c149 0 275 -79 290 -234h-86c-18 109 -81 165 -203 165c-137 0 -232 -99 -245 -256h346v-71h-347c7 -168 98 -268 245 -268c117 0 198 59 216 175h81z" />
    <glyph glyph-name="uni0405" unicode="&#x405;" horiz-adv-x="627" 
d="M321 -9c-191 0 -260 105 -273 227h84c11 -85 45 -157 189 -157c92 0 163 54 163 135s-37 115 -173 137c-150 23 -239 70 -239 197c0 110 95 194 230 194c143 0 232 -70 246 -197h-78c-17 90 -69 127 -168 127c-98 0 -149 -49 -149 -116c0 -70 26 -106 172 -128
c159 -25 243 -73 243 -208c0 -120 -105 -211 -247 -211z" />
    <glyph glyph-name="uni0406" unicode="&#x406;" horiz-adv-x="277" 
d="M95 0v715h87v-715h-87z" />
    <glyph glyph-name="uni0407" unicode="&#x407;" horiz-adv-x="277" 
d="M95 0v715h87v-715h-87zM239 789c-29 0 -53 24 -53 53s24 53 53 53s53 -24 53 -53s-24 -53 -53 -53zM36 789c-29 0 -53 24 -53 53s24 53 53 53s53 -24 53 -53s-24 -53 -53 -53z" />
    <glyph glyph-name="uni0408" unicode="&#x408;" horiz-adv-x="420" 
d="M138 -9c-54 0 -81 9 -100 19v72c26 -11 52 -20 95 -20c71 0 116 40 116 136v517h87v-521c0 -143 -89 -203 -198 -203z" />
    <glyph glyph-name="uni0409" unicode="&#x409;" horiz-adv-x="983" 
d="M502 0v642h-253c-2 -92 -7 -254 -16 -391c-8 -136 -44 -259 -169 -259c-27 0 -39 8 -39 8v84s12 -4 39 -4c57 0 78 59 88 178c15 198 17 457 17 457h420v-291h106c136 0 250 -55 250 -207v-4c0 -149 -113 -213 -250 -213h-193zM589 70h112c97 0 157 42 157 143v4
c0 92 -55 138 -157 138h-112v-285z" />
    <glyph glyph-name="uni040A" unicode="&#x40a;" horiz-adv-x="1023" 
d="M629 70h112c97 0 157 42 157 143v4c0 92 -55 138 -157 138h-112v-285zM542 0v318h-365v-318h-87v715h87v-324h365v324h87v-291h106c136 0 250 -55 250 -207v-4c0 -149 -113 -213 -250 -213h-193z" />
    <glyph glyph-name="uni040B" unicode="&#x40b;" horiz-adv-x="781" 
d="M324 373c0 0 51 61 166 61c151 0 224 -82 224 -256v-178h-87v187c0 117 -33 179 -146 179c-114 0 -157 -74 -157 -74v-292h-87v644h-208v71h513v-71h-218v-271z" />
    <glyph glyph-name="uni040C" unicode="&#x40c;" horiz-adv-x="616" 
d="M281 771l56 127h104l-98 -127h-62zM90 0v715h87v-344l311 345h97l-318 -348l334 -368h-105l-319 349v-349h-87z" />
    <glyph glyph-name="uni040D" unicode="&#x40d;" horiz-adv-x="740" 
d="M177 0h-87v715h87v-595l386 595h87v-715h-87v595zM348 771l-98 127h104l56 -127h-62z" />
    <glyph glyph-name="uni040E" unicode="&#x40e;" horiz-adv-x="588" 
d="M309 767c-72 0 -128 56 -132 132h72c3 -39 20 -74 60 -74c42 0 62 34 66 74h70c-4 -76 -64 -132 -136 -132zM131 -8c-27 0 -39 8 -39 8v79s12 -4 39 -4c57 0 95 27 127 94l-238 546h91l191 -446l194 446h82l-241 -546c-43 -98 -91 -177 -206 -177z" />
    <glyph glyph-name="uni040F" unicode="&#x40f;" horiz-adv-x="720" 
d="M322 0h-232v715h87v-642h366v642h87v-715h-232l-2 -130h-72z" />
    <glyph glyph-name="uni0410" unicode="&#x410;" horiz-adv-x="674" 
d="M335 643l-124 -368h248zM36 0l246 715h114l242 -715h-86l-70 206h-295l-69 -206h-82z" />
    <glyph glyph-name="uni0411" unicode="&#x411;" horiz-adv-x="622" 
d="M570 206c0 -135 -92 -206 -235 -206h-245v715h422v-71h-337v-231h159c144 0 236 -60 236 -203v-4zM175 68h158c104 0 152 51 152 138v4c0 88 -49 135 -160 135h-150v-277z" />
    <glyph glyph-name="uni0412" unicode="&#x412;" horiz-adv-x="622" 
d="M90 0v715h215c133 0 230 -44 230 -185v-4c0 -65 -26 -123 -108 -151c104 -25 143 -78 143 -171v-4c0 -135 -92 -200 -235 -200h-245zM175 403h130c105 0 145 38 145 126v4c0 81 -47 114 -147 114h-128v-244zM175 68h158c104 0 152 46 152 133v4c0 88 -49 130 -164 130
h-146v-267z" />
    <glyph glyph-name="uni0413" unicode="&#x413;" horiz-adv-x="536" 
d="M90 0v715h408v-74h-321v-641h-87z" />
    <glyph glyph-name="uni0414" unicode="&#x414;" horiz-adv-x="697" 
d="M211 251c-5 -73 -17 -136 -47 -178h348v571h-280c-4 -91 -11 -255 -21 -393zM87 0l-5 -130h-72v203h45c51 16 67 80 78 185c17 198 22 457 22 457h442v-642h80v-203h-72l-5 130h-513z" />
    <glyph glyph-name="uni0415" unicode="&#x415;" horiz-adv-x="566" 
d="M90 0v715h417v-71h-330v-243h266v-71h-266v-259h348v-71h-435z" />
    <glyph glyph-name="uni0416" unicode="&#x416;" horiz-adv-x="879" 
d="M395 0v351l-279 -351h-97l291 363l-283 352h97l271 -346v346h85v-346l271 346h95l-279 -347l293 -368h-101l-279 351v-351h-85z" />
    <glyph glyph-name="uni0417" unicode="&#x417;" horiz-adv-x="595" 
d="M293 -9c-170 0 -240 105 -253 227h84c11 -85 46 -157 169 -157c109 0 164 59 164 149c0 87 -43 125 -169 125h-91v66h91c100 0 138 54 138 131c0 75 -43 122 -133 122c-88 0 -131 -37 -148 -127h-78c14 127 94 197 232 197c126 0 212 -74 212 -192
c0 -71 -39 -137 -118 -160c100 -14 150 -75 150 -162c0 -126 -100 -219 -250 -219z" />
    <glyph glyph-name="uni0418" unicode="&#x418;" horiz-adv-x="740" 
d="M177 0h-87v715h87v-595l386 595h87v-715h-87v595z" />
    <glyph glyph-name="uni0419" unicode="&#x419;" horiz-adv-x="740" 
d="M370 767c-72 0 -128 56 -132 132h72c3 -39 20 -74 60 -74c42 0 62 34 66 74h70c-4 -76 -64 -132 -136 -132zM177 0h-87v715h87v-595l386 595h87v-715h-87v595z" />
    <glyph glyph-name="uni041A" unicode="&#x41a;" horiz-adv-x="616" 
d="M90 0v715h87v-344l311 345h97l-318 -348l334 -368h-105l-319 349v-349h-87z" />
    <glyph glyph-name="uni041B" unicode="&#x41b;" horiz-adv-x="689" 
d="M233 251c-8 -136 -44 -259 -169 -259c-27 0 -39 8 -39 8v84s12 -4 39 -4c57 0 78 59 88 178c15 198 17 457 17 457h430v-715h-87v642h-263c-2 -92 -7 -254 -16 -391z" />
    <glyph glyph-name="uni041C" unicode="&#x41c;" horiz-adv-x="856" 
d="M90 0v715h121l221 -557l214 557h120v-715h-87v602l-237 -602h-27l-245 602v-602h-80z" />
    <glyph glyph-name="uni041D" unicode="&#x41d;" horiz-adv-x="730" 
d="M90 0v715h87v-324h376v324h87v-715h-87v318h-376v-318h-87z" />
    <glyph glyph-name="uni041E" unicode="&#x41e;" horiz-adv-x="811" 
d="M409 -9c-211 0 -354 162 -354 362v8c0 203 142 363 352 363s349 -160 349 -361v-8c0 -202 -139 -364 -347 -364zM409 63c159 0 257 120 257 293v8c0 160 -94 290 -259 290c-166 0 -262 -122 -262 -292v-8c0 -173 115 -291 264 -291z" />
    <glyph glyph-name="uni041F" unicode="&#x41f;" horiz-adv-x="720" 
d="M543 0v642h-366v-642h-87v715h540v-715h-87z" />
    <glyph glyph-name="uni0420" unicode="&#x420;" horiz-adv-x="581" 
d="M90 0v715h203c137 0 250 -60 250 -209v-4c0 -152 -114 -211 -250 -211h-116v-291h-87zM177 360h122c102 0 157 50 157 142v4c0 101 -60 139 -157 139h-122v-285z" />
    <glyph glyph-name="uni0421" unicode="&#x421;" horiz-adv-x="730" 
d="M389 -9c-207 0 -334 142 -334 362v8c0 212 142 365 336 365c149 0 275 -79 290 -234h-86c-18 109 -81 165 -203 165c-148 0 -247 -115 -247 -295v-8c0 -182 92 -292 246 -292c117 0 198 59 216 175h81c-25 -165 -139 -246 -299 -246z" />
    <glyph glyph-name="uni0422" unicode="&#x422;" horiz-adv-x="561" 
d="M237 0v644h-208v71h503v-71h-208v-644h-87z" />
    <glyph glyph-name="uni0423" unicode="&#x423;" horiz-adv-x="588" 
d="M131 -8c-27 0 -39 8 -39 8v79s12 -4 39 -4c57 0 95 27 127 94l-238 546h91l191 -446l194 446h82l-241 -546c-43 -98 -91 -177 -206 -177z" />
    <glyph glyph-name="uni0424" unicode="&#x424;" horiz-adv-x="821" 
d="M453 623c180 -4 319 -73 319 -259v-8c-4 -189 -144 -260 -319 -264v-102h-85v102c-180 4 -319 73 -319 259v5c2 191 142 263 319 267v102h85v-102zM453 559v-401c127 4 227 40 230 199v8c0 145 -95 190 -230 194zM368 156v401c-128 -4 -228 -40 -230 -202v-5
c0 -145 95 -190 230 -194z" />
    <glyph glyph-name="uni0425" unicode="&#x425;" horiz-adv-x="657" 
d="M45 0l236 367l-220 348h96l178 -281l177 281h89l-222 -348l233 -367h-98l-191 301l-191 -301h-87z" />
    <glyph glyph-name="uni0426" unicode="&#x426;" horiz-adv-x="730" 
d="M710 -130h-72l-5 130h-543v715h87v-642h366v642h87v-642h80v-203z" />
    <glyph glyph-name="uni0427" unicode="&#x427;" horiz-adv-x="672" 
d="M582 0h-87v346s-72 -65 -197 -65c-141 0 -234 87 -234 256v178h87v-187c0 -117 53 -179 153 -179c145 0 191 85 191 85v281h87v-715z" />
    <glyph glyph-name="uni0428" unicode="&#x428;" horiz-adv-x="973" 
d="M90 0v715h87v-642h266v642h87v-642h266v642h87v-715h-793z" />
    <glyph glyph-name="uni0429" unicode="&#x429;" horiz-adv-x="983" 
d="M963 -130h-72l-5 130h-796v715h87v-642h266v642h87v-642h266v642h87v-642h80v-203z" />
    <glyph glyph-name="uni042A" unicode="&#x42a;" horiz-adv-x="716" 
d="M225 0v642h-196v73h283v-291h116c136 0 250 -55 250 -207v-4c0 -149 -113 -213 -250 -213h-203zM312 70h122c97 0 157 42 157 143v4c0 92 -55 138 -157 138h-122v-285z" />
    <glyph glyph-name="uni042B" unicode="&#x42b;" horiz-adv-x="805" 
d="M715 715v-715h-87v715h87zM90 0v715h87v-291h111c136 0 250 -55 250 -207v-4c0 -149 -113 -213 -250 -213h-198zM177 70h117c97 0 157 42 157 143v4c0 92 -55 138 -157 138h-117v-285z" />
    <glyph glyph-name="uni042C" unicode="&#x42c;" horiz-adv-x="581" 
d="M90 0v715h87v-291h116c136 0 250 -55 250 -207v-4c0 -149 -113 -213 -250 -213h-203zM177 70h122c97 0 157 42 157 143v4c0 92 -55 138 -157 138h-122v-285z" />
    <glyph glyph-name="uni042D" unicode="&#x42d;" horiz-adv-x="730" 
d="M339 -9c-149 0 -282 79 -297 234h86c18 -109 88 -165 210 -165c141 0 238 104 246 270h-347v71h347c-12 159 -97 254 -240 254c-117 0 -193 -59 -211 -175h-81c25 165 134 246 294 246c207 0 329 -142 329 -362v-8c0 -212 -142 -365 -336 -365z" />
    <glyph glyph-name="uni042E" unicode="&#x42e;" horiz-adv-x="1028" 
d="M636 -9c-199 0 -328 143 -343 327h-116v-318h-87v715h87v-324h116c12 189 141 333 341 333c210 0 339 -160 339 -361v-8c0 -202 -129 -364 -337 -364zM636 63c159 0 247 120 247 293v8c0 160 -84 290 -249 290c-166 0 -252 -122 -252 -292v-8c0 -173 105 -291 254 -291z
" />
    <glyph glyph-name="uni042F" unicode="&#x42f;" horiz-adv-x="626" 
d="M449 645h-122c-97 0 -157 -28 -157 -129v-4c0 -92 55 -132 157 -132h122v265zM344 311l-226 -311h-98l234 317c-98 18 -171 74 -171 195v4c0 149 113 199 250 199h203v-715h-87v311h-105z" />
    <glyph glyph-name="uni0430" unicode="&#x430;" horiz-adv-x="540" 
d="M223 57c88 0 155 45 155 126v65h-72c-105 0 -182 -26 -182 -103c0 -54 26 -88 99 -88zM215 -9c-97 0 -174 47 -174 154c0 121 128 162 262 162h75v38c0 83 -32 118 -112 118c-72 0 -112 -30 -120 -94h-83c11 119 106 163 207 163c100 0 191 -41 191 -187v-345h-83v66
c-39 -49 -86 -75 -163 -75z" />
    <glyph glyph-name="uni0431" unicode="&#x431;" horiz-adv-x="612" 
d="M309 -9c-149 0 -256 103 -256 307v42c0 205 42 417 292 430l20 1c71 4 122 7 160 21v-72c-35 -14 -78 -19 -159 -24l-15 -1c-169 -11 -221 -119 -233 -293h4c36 78 109 130 205 130c146 0 240 -110 240 -263v-4c0 -171 -110 -274 -258 -274zM310 60c105 0 171 74 171 204
v2c0 124 -56 197 -162 197c-110 0 -180 -77 -180 -204v-2c0 -118 65 -197 171 -197z" />
    <glyph glyph-name="uni0432" unicode="&#x432;" horiz-adv-x="524" 
d="M84 0v523h183c98 0 184 -30 184 -133v-3c0 -47 -25 -97 -84 -112c66 -14 109 -50 109 -118v-3c0 -104 -73 -154 -187 -154h-205zM266 457h-99v-155h100c69 0 97 24 97 81v3c0 55 -35 71 -98 71zM281 236h-114v-170h114c73 0 108 25 108 83v3c0 59 -36 84 -108 84z" />
    <glyph glyph-name="uni0433" unicode="&#x433;" horiz-adv-x="446" 
d="M416 453h-249v-453h-83v523h332v-70z" />
    <glyph glyph-name="uni0434" unicode="&#x434;" horiz-adv-x="578" 
d="M186 202c-7 -61 -17 -103 -34 -132h245v385h-192c-3 -69 -10 -175 -19 -253zM88 0l-6 -127h-67v197h37c42 11 49 70 58 137c15 122 23 316 23 316h345v-453h80v-197h-67l-6 127h-397z" />
    <glyph glyph-name="uni0435" unicode="&#x435;" horiz-adv-x="568" 
d="M298 -9c-148 0 -253 104 -253 265v8c0 158 101 268 245 268c121 0 235 -73 235 -260v-27h-394c4 -119 61 -185 168 -185c81 0 128 30 139 91h83c-18 -105 -105 -160 -223 -160zM134 312h306c-8 108 -64 151 -150 151c-85 0 -142 -58 -156 -151z" />
    <glyph glyph-name="uni0436" unicode="&#x436;" horiz-adv-x="709" 
d="M314 0v269l-202 -269h-93l213 278l-194 245h89l187 -246v246h81v-246l187 246h90l-194 -245l213 -278h-94l-202 269v-269h-81z" />
    <glyph glyph-name="uni0437" unicode="&#x437;" horiz-adv-x="494" 
d="M421 390v-3c0 -47 -28 -101 -86 -112c65 -11 111 -50 111 -118v-3c0 -95 -73 -163 -199 -163s-201 63 -206 170h81c6 -62 39 -101 125 -101c77 0 112 33 112 89v3c0 59 -36 84 -108 84h-79v66h65c69 0 97 24 97 81v3c0 45 -26 77 -90 77c-57 0 -92 -25 -104 -82h-80
c14 113 95 151 189 151s172 -49 172 -142z" />
    <glyph glyph-name="uni0438" unicode="&#x438;" horiz-adv-x="591" 
d="M167 0h-83v523h83v-403l267 403h83v-523h-83v403z" />
    <glyph glyph-name="uni0439" unicode="&#x439;" horiz-adv-x="591" 
d="M299 619c-72 0 -128 56 -132 132h72c3 -39 20 -74 60 -74c42 0 62 34 66 74h70c-4 -76 -64 -132 -136 -132zM167 0h-83v523h83v-403l267 403h83v-523h-83v403z" />
    <glyph glyph-name="uni043A" unicode="&#x43a;" horiz-adv-x="516" 
d="M399 0l-232 267v-267h-83v523h83v-244l217 244h97l-224 -246l243 -277h-101z" />
    <glyph glyph-name="uni043B" unicode="&#x43b;" horiz-adv-x="552" 
d="M184 202c-12 -138 -44 -207 -129 -207c-26 0 -35 5 -35 5v79s9 -4 28 -4c43 0 53 59 60 132c12 122 15 316 15 316h345v-523h-83v453h-188c-2 -69 -6 -174 -13 -251z" />
    <glyph glyph-name="uni043C" unicode="&#x43c;" horiz-adv-x="705" 
d="M327 0l-171 441v-441h-71v523h119l148 -391l152 391h116v-523h-82v441l-173 -441h-38z" />
    <glyph glyph-name="uni043D" unicode="&#x43d;" horiz-adv-x="591" 
d="M424 0v233h-257v-233h-83v523h83v-220h257v220h83v-523h-83z" />
    <glyph glyph-name="uni043E" unicode="&#x43e;" horiz-adv-x="604" 
d="M301 -9c-149 0 -256 113 -256 266v8c0 157 109 267 257 267s257 -109 257 -266v-8c0 -158 -109 -267 -258 -267zM302 60c105 0 171 79 171 197v7c0 121 -67 199 -171 199c-105 0 -171 -78 -171 -198v-8c0 -119 65 -197 171 -197z" />
    <glyph glyph-name="uni043F" unicode="&#x43f;" horiz-adv-x="581" 
d="M414 0v453h-247v-453h-83v523h413v-523h-83z" />
    <glyph glyph-name="uni0440" unicode="&#x440;" horiz-adv-x="627" 
d="M336 60c104 0 160 70 160 197v8c0 132 -73 198 -161 198c-97 0 -171 -64 -171 -198v-8c0 -134 70 -197 172 -197zM84 -182v705h83v-88c30 51 101 97 177 97c137 0 238 -100 238 -263v-8c0 -160 -94 -270 -238 -270c-86 0 -147 43 -177 95v-268h-83z" />
    <glyph glyph-name="uni0441" unicode="&#x441;" horiz-adv-x="570" 
d="M301 -9c-146 0 -256 103 -256 265v8c0 160 114 268 254 268c109 0 211 -50 227 -183h-82c-13 83 -73 114 -145 114c-95 0 -168 -76 -168 -199v-8c0 -128 70 -196 171 -196c74 0 141 43 150 128h77c-11 -113 -102 -197 -228 -197z" />
    <glyph glyph-name="uni0442" unicode="&#x442;" horiz-adv-x="481" 
d="M451 523v-70h-169v-453h-83v453h-169v70h421z" />
    <glyph glyph-name="uni0443" unicode="&#x443;" horiz-adv-x="529" 
d="M131 -182l99 236l-205 469h89l160 -375l145 375h85l-289 -705h-84z" />
    <glyph glyph-name="uni0444" unicode="&#x444;" horiz-adv-x="708" 
d="M395 531c148 -7 268 -98 268 -265v-8c0 -168 -119 -259 -268 -266v-174h-82v174c-148 7 -268 98 -268 265v8c0 168 119 259 268 266v242h82v-242zM313 56v412c-105 -4 -183 -74 -183 -202v-7c0 -131 79 -199 183 -203zM395 467v-412c105 4 183 74 183 202v7
c0 131 -79 199 -183 203z" />
    <glyph glyph-name="uni0445" unicode="&#x445;" horiz-adv-x="528" 
d="M28 0l187 269l-175 254h97l128 -190l127 190h90l-173 -248l191 -275h-98l-141 211l-144 -211h-89z" />
    <glyph glyph-name="uni0446" unicode="&#x446;" horiz-adv-x="597" 
d="M577 -127h-67l-6 127h-420v523h83v-453h247v453h83v-453h80v-197z" />
    <glyph glyph-name="uni0447" unicode="&#x447;" horiz-adv-x="556" 
d="M472 0h-83v244c-31 -33 -80 -58 -150 -58c-94 0 -175 57 -175 201v136h83v-132c0 -92 41 -133 114 -133c56 0 101 22 128 58v207h83v-523z" />
    <glyph glyph-name="uni0448" unicode="&#x448;" horiz-adv-x="811" 
d="M84 0v523h83v-453h197v453h83v-453h197v453h83v-523h-643z" />
    <glyph glyph-name="uni0449" unicode="&#x449;" horiz-adv-x="827" 
d="M807 -127h-67l-6 127h-650v523h83v-453h197v453h83v-453h197v453h83v-453h80v-197z" />
    <glyph glyph-name="uni044A" unicode="&#x44a;" horiz-adv-x="589" 
d="M179 0v453h-149v70h232v-183h93c109 0 200 -44 200 -166v-3c0 -120 -90 -171 -200 -171h-176zM262 66h98c78 0 112 34 112 105v3c0 64 -30 101 -112 101h-98v-209z" />
    <glyph glyph-name="uni044B" unicode="&#x44b;" horiz-adv-x="701" 
d="M534 0v523h83v-523h-83zM84 0v523h83v-183h93c109 0 200 -44 200 -166v-3c0 -120 -90 -171 -200 -171h-176zM167 66h98c78 0 112 34 112 105v3c0 64 -30 101 -112 101h-98v-209z" />
    <glyph glyph-name="uni044C" unicode="&#x44c;" horiz-adv-x="494" 
d="M84 0v523h83v-183h93c110 0 200 -51 200 -171v-3c0 -122 -91 -166 -200 -166h-176zM167 65h98c82 0 112 37 112 101v3c0 71 -34 105 -112 105h-98v-209z" />
    <glyph glyph-name="uni044D" unicode="&#x44d;" horiz-adv-x="570" 
d="M277 -9c-115 0 -217 50 -233 183h82c13 -83 73 -114 151 -114c85 0 151 68 161 175h-265v65h265c-10 109 -75 163 -170 163c-74 0 -136 -44 -150 -128h-77c11 113 102 197 228 197c153 0 256 -98 256 -260v-8c0 -160 -114 -273 -248 -273z" />
    <glyph glyph-name="uni044E" unicode="&#x44e;" horiz-adv-x="784" 
d="M491 -9c-135 0 -228 93 -243 225c-1 5 -2 11 -2 17h-79v-233h-83v523h83v-220h80c15 137 109 229 245 229c148 0 247 -109 247 -266v-8c0 -158 -99 -267 -248 -267zM492 60c105 0 161 79 161 197v7c0 121 -57 199 -161 199c-105 0 -161 -78 -161 -198v-8
c0 -119 55 -197 161 -197z" />
    <glyph glyph-name="uni044F" unicode="&#x44f;" horiz-adv-x="523" 
d="M356 457h-98c-78 0 -112 -34 -112 -95v-3c0 -57 30 -91 112 -91h98v189zM266 205l-146 -205h-95l159 219c-65 13 -121 52 -121 140v3c0 115 90 161 200 161h176v-523h-83v205h-90z" />
    <glyph glyph-name="uni0451" unicode="&#x451;" horiz-adv-x="568" 
d="M384 634c-29 0 -53 24 -53 53s24 53 53 53s53 -24 53 -53s-24 -53 -53 -53zM196 634c-29 0 -53 24 -53 53s24 53 53 53s53 -24 53 -53s-24 -53 -53 -53zM298 -9c-148 0 -253 104 -253 265v8c0 158 101 268 245 268c121 0 235 -73 235 -260v-27h-394
c4 -119 61 -185 168 -185c81 0 128 30 139 91h83c-18 -105 -105 -160 -223 -160zM134 312h306c-8 108 -64 151 -150 151c-85 0 -142 -58 -156 -151z" />
    <glyph glyph-name="uni0452" unicode="&#x452;" horiz-adv-x="598" 
d="M436 -40v367c0 92 -39 133 -123 133c-77 0 -146 -49 -146 -143v-317h-83v615h-75v61h75v97h83v-97h178v-61h-178v-175c24 49 82 92 168 92c108 0 184 -59 184 -211v-354c0 -100 -44 -154 -160 -158v70c59 5 77 35 77 81z" />
    <glyph glyph-name="uni0453" unicode="&#x453;" horiz-adv-x="446" 
d="M416 453h-249v-453h-83v523h332v-70zM211 613l62 147h104l-104 -147h-62z" />
    <glyph glyph-name="uni0454" unicode="&#x454;" horiz-adv-x="570" 
d="M529 188c-11 -113 -102 -197 -228 -197c-146 0 -256 103 -256 265v8c0 160 114 268 254 268c109 0 211 -50 227 -183h-82c-13 83 -73 114 -145 114c-85 0 -152 -61 -166 -162h263v-65h-264c7 -115 74 -176 170 -176c74 0 141 43 150 128h77z" />
    <glyph glyph-name="uni0455" unicode="&#x455;" horiz-adv-x="480" 
d="M246 -9c-125 0 -200 63 -205 170h81c6 -62 39 -101 123 -101c79 0 114 27 114 83c0 55 -41 73 -122 88c-136 25 -182 63 -182 154c0 97 95 147 177 147c94 0 175 -38 189 -151h-80c-12 57 -44 82 -110 82c-60 0 -99 -30 -99 -75c0 -47 26 -66 122 -83
c108 -20 184 -44 184 -155c0 -95 -65 -159 -192 -159z" />
    <glyph glyph-name="uni0456" unicode="&#x456;" horiz-adv-x="255" 
d="M126 632c-30 0 -55 25 -55 55s25 55 55 55s55 -25 55 -55s-25 -55 -55 -55zM86 0v523h83v-523h-83z" />
    <glyph glyph-name="uni0457" unicode="&#x457;" horiz-adv-x="255" 
d="M217 634c-29 0 -53 24 -53 53s24 53 53 53s53 -24 53 -53s-24 -53 -53 -53zM37 634c-29 0 -53 24 -53 53s24 53 53 53s53 -24 53 -53s-24 -53 -53 -53zM86 0v523h83v-523h-83z" />
    <glyph glyph-name="uni0458" unicode="&#x458;" horiz-adv-x="255" 
d="M126 632c-30 0 -55 25 -55 55s25 55 55 55s55 -25 55 -55s-25 -55 -55 -55zM9 -191v70c59 5 77 35 77 81v563h83v-556c0 -100 -44 -154 -160 -158z" />
    <glyph glyph-name="uni0459" unicode="&#x459;" horiz-adv-x="774" 
d="M374 0v453h-177c-2 -69 -6 -174 -13 -251c-12 -138 -44 -207 -129 -207c-26 0 -35 5 -35 5v79s9 -4 28 -4c43 0 53 59 60 132c12 122 15 316 15 316h334v-183h83c109 0 200 -44 200 -166v-3c0 -120 -90 -171 -200 -171h-166zM457 66h88c78 0 112 34 112 105v3
c0 64 -30 101 -112 101h-88v-209z" />
    <glyph glyph-name="uni045A" unicode="&#x45a;" horiz-adv-x="814" 
d="M497 66h88c78 0 112 34 112 105v3c0 64 -30 101 -112 101h-88v-209zM414 0v233h-247v-233h-83v523h83v-220h247v220h83v-183h83c109 0 200 -44 200 -166v-3c0 -120 -90 -171 -200 -171h-166z" />
    <glyph glyph-name="uni045B" unicode="&#x45b;" horiz-adv-x="598" 
d="M9 615v61h75v97h83v-97h178v-61h-178v-175c24 49 82 92 168 92c108 0 184 -59 184 -211v-321h-83v327c0 92 -39 133 -123 133c-77 0 -146 -49 -146 -143v-317h-83v615h-75z" />
    <glyph glyph-name="uni045C" unicode="&#x45c;" horiz-adv-x="516" 
d="M241 613l62 147h104l-104 -147h-62zM399 0l-232 267v-267h-83v523h83v-244l217 244h97l-224 -246l243 -277h-101z" />
    <glyph glyph-name="uni045D" unicode="&#x45d;" horiz-adv-x="601" 
d="M167 0h-83v523h83v-403l267 403h83v-523h-83v403zM277 613l-104 147h104l62 -147h-62z" />
    <glyph glyph-name="uni045E" unicode="&#x45e;" horiz-adv-x="529" 
d="M274 619c-72 0 -128 56 -132 132h72c3 -39 20 -74 60 -74c42 0 62 34 66 74h70c-4 -76 -64 -132 -136 -132zM131 -182l99 236l-205 469h89l160 -375l145 375h85l-289 -705h-84z" />
    <glyph glyph-name="uni045F" unicode="&#x45f;" horiz-adv-x="581" 
d="M255 0h-171v523h83v-453h247v453h83v-523h-171l-2 -127h-66z" />
    <glyph glyph-name="uni0490" unicode="&#x490;" horiz-adv-x="536" 
d="M498 642h-321v-642h-87v715h331l5 134h72v-207z" />
    <glyph glyph-name="uni0491" unicode="&#x491;" horiz-adv-x="429" 
d="M396 453h-229v-453h-83v523h239l6 134h67v-204z" />
    <glyph glyph-name="Wgrave" unicode="&#x1e80;" horiz-adv-x="928" 
d="M220 0l-186 715h89l145 -577l168 577h62l168 -579l147 579h81l-186 -715h-80l-162 565l-167 -565h-79zM442 771l-98 127h104l56 -127h-62z" />
    <glyph glyph-name="wgrave" unicode="&#x1e81;" horiz-adv-x="794" 
d="M189 0l-161 523h90l122 -421l127 421h72l119 -421l123 421h85l-163 -523h-92l-109 392l-122 -392h-91zM381 613l-104 147h104l62 -147h-62z" />
    <glyph glyph-name="Wacute" unicode="&#x1e82;" horiz-adv-x="928" 
d="M220 0l-186 715h89l145 -577l168 577h62l168 -579l147 579h81l-186 -715h-80l-162 565l-167 -565h-79zM440 771l56 127h104l-98 -127h-62z" />
    <glyph glyph-name="wacute" unicode="&#x1e83;" horiz-adv-x="794" 
d="M189 0l-161 523h90l122 -421l127 421h72l119 -421l123 421h85l-163 -523h-92l-109 392l-122 -392h-91zM370 613l62 147h104l-104 -147h-62z" />
    <glyph glyph-name="Wdieresis" unicode="&#x1e84;" horiz-adv-x="928" 
d="M220 0l-186 715h89l145 -577l168 577h62l168 -579l147 579h81l-186 -715h-80l-162 565l-167 -565h-79zM568 789c-29 0 -53 24 -53 53s24 53 53 53s53 -24 53 -53s-24 -53 -53 -53zM365 789c-29 0 -53 24 -53 53s24 53 53 53s53 -24 53 -53s-24 -53 -53 -53z" />
    <glyph glyph-name="wdieresis" unicode="&#x1e85;" horiz-adv-x="794" 
d="M189 0l-161 523h90l122 -421l127 421h72l119 -421l123 421h85l-163 -523h-92l-109 392l-122 -392h-91zM496 634c-29 0 -53 24 -53 53s24 53 53 53s53 -24 53 -53s-24 -53 -53 -53zM308 634c-29 0 -53 24 -53 53s24 53 53 53s53 -24 53 -53s-24 -53 -53 -53z" />
    <glyph glyph-name="Ygrave" unicode="&#x1ef2;" horiz-adv-x="598" 
d="M262 0v312l-239 403h98l187 -332l180 332h87l-226 -404v-311h-87zM284 771l-98 127h104l56 -127h-62z" />
    <glyph glyph-name="ygrave" unicode="&#x1ef3;" horiz-adv-x="529" 
d="M131 -182l99 236l-205 469h89l160 -375l145 375h85l-289 -705h-84zM243 613l-104 147h104l62 -147h-62z" />
    <glyph glyph-name="uni2009" unicode="&#x2009;" horiz-adv-x="110" 
 />
    <glyph glyph-name="endash" unicode="&#x2013;" horiz-adv-x="526" 
d="M45 241v70h436v-70h-436z" />
    <glyph glyph-name="emdash" unicode="&#x2014;" horiz-adv-x="885" 
d="M45 241v70h795v-70h-795z" />
    <glyph glyph-name="quoteleft" unicode="&#x2018;" horiz-adv-x="255" 
d="M119 488l-79 36l117 202l51 -26z" />
    <glyph glyph-name="quoteright" unicode="&#x2019;" horiz-adv-x="255" 
d="M98 488l-51 26l89 212l79 -36z" />
    <glyph glyph-name="quotesinglbase" unicode="&#x201a;" horiz-adv-x="255" 
d="M98 -114l-51 26l89 212l79 -36z" />
    <glyph glyph-name="quotedblleft" unicode="&#x201c;" horiz-adv-x="432" 
d="M296 488l-79 36l117 202l51 -26zM119 488l-79 36l117 202l51 -26z" />
    <glyph glyph-name="quotedblright" unicode="&#x201d;" horiz-adv-x="432" 
d="M275 488l-51 26l89 212l79 -36zM98 488l-51 26l89 212l79 -36z" />
    <glyph glyph-name="quotedblbase" unicode="&#x201e;" horiz-adv-x="432" 
d="M275 -114l-51 26l89 212l79 -36zM98 -114l-51 26l89 212l79 -36z" />
    <glyph glyph-name="dagger" unicode="&#x2020;" horiz-adv-x="374" 
d="M150 213v306h-116v67h116v129h75v-129h115v-67h-115v-306h-75z" />
    <glyph glyph-name="daggerdbl" unicode="&#x2021;" horiz-adv-x="374" 
d="M150 409v110h-116v67h116v129h75v-129h115v-67h-115v-110h115v-67h-115v-129h-75v129h-116v67h116z" />
    <glyph glyph-name="bullet" unicode="&#x2022;" horiz-adv-x="332" 
d="M166 190c-66 0 -116 52 -116 116s50 116 116 116c67 0 116 -52 116 -116s-49 -116 -116 -116z" />
    <glyph glyph-name="ellipsis" unicode="&#x2026;" horiz-adv-x="806" 
d="M665 -5c-35 0 -64 28 -64 64s29 64 64 64s64 -28 64 -64s-29 -64 -64 -64zM403 -5c-35 0 -64 28 -64 64s29 64 64 64s64 -28 64 -64s-29 -64 -64 -64zM141 -5c-35 0 -64 28 -64 64s29 64 64 64s64 -28 64 -64s-29 -64 -64 -64z" />
    <glyph glyph-name="perthousand" unicode="&#x2030;" horiz-adv-x="1126" 
d="M193 395c-82 0 -159 68 -159 161c0 96 75 165 159 165c86 0 159 -69 159 -163c0 -95 -76 -163 -159 -163zM126 0l437 715h76l-437 -715h-76zM193 459c51 0 84 37 84 99c0 60 -33 99 -84 99c-50 0 -84 -36 -84 -100c0 -63 34 -98 84 -98zM933 -8c-82 0 -159 68 -159 161
c0 96 75 165 159 165c86 0 159 -69 159 -163c0 -95 -76 -163 -159 -163zM565 -8c-82 0 -159 68 -159 161c0 96 75 165 159 165c86 0 159 -69 159 -163c0 -95 -76 -163 -159 -163zM933 56c51 0 84 37 84 99c0 60 -33 99 -84 99c-50 0 -84 -36 -84 -100c0 -63 34 -98 84 -98z
M565 56c51 0 84 37 84 99c0 60 -33 99 -84 99c-50 0 -84 -36 -84 -100c0 -63 34 -98 84 -98z" />
    <glyph glyph-name="uni2032" unicode="&#x2032;" horiz-adv-x="212" 
d="M46 470l25 245h90l-55 -245h-60z" />
    <glyph glyph-name="uni2033" unicode="&#x2033;" horiz-adv-x="375" 
d="M209 470l25 245h90l-55 -245h-60zM46 470l25 245h90l-55 -245h-60z" />
    <glyph glyph-name="guilsinglleft" unicode="&#x2039;" horiz-adv-x="322" 
d="M189 83l-130 178l130 178h82l-125 -178l125 -178h-82z" />
    <glyph glyph-name="guilsinglright" unicode="&#x203a;" horiz-adv-x="322" 
d="M51 83l125 178l-125 178h82l130 -178l-130 -178h-82z" />
    <glyph glyph-name="fraction" unicode="&#x2044;" horiz-adv-x="113" 
d="M-230 0l507 715h66l-507 -715h-66z" />
    <glyph glyph-name="Euro" unicode="&#x20ac;" horiz-adv-x="674" 
d="M32 394v58h74c16 153 109 272 267 272c137 0 228 -81 244 -219h-82c-14 96 -74 151 -162 151c-107 0 -169 -80 -182 -204h239l-11 -58h-230v-78h215l-11 -58h-201c13 -123 74 -196 183 -196c93 0 153 56 169 164h81c-16 -148 -111 -235 -250 -235
c-153 0 -251 112 -269 267h-74v58h71v78h-71z" />
    <glyph glyph-name="uni20B4" unicode="&#x20b4;" 
d="M295 -9c-133 0 -232 63 -232 183c0 41 9 74 27 101h-60v58h119c38 25 86 44 142 64c14 5 26 9 38 14h-299v58h392c18 23 23 50 23 88c0 67 -49 97 -131 97c-93 0 -142 -34 -158 -117h-78c13 121 99 187 236 187c123 0 215 -56 215 -166c0 -36 -8 -65 -22 -89h63v-58h-120
c-37 -25 -85 -44 -143 -66l-31 -12h294v-58h-389c-21 -24 -31 -54 -31 -97c0 -82 63 -117 145 -117c124 0 166 67 176 147h84c-12 -117 -88 -217 -260 -217z" />
    <glyph glyph-name="uni20B8" unicode="&#x20b8;" horiz-adv-x="561" 
d="M532 657h-503v58h503v-58zM237 0v514h-208v71h503v-71h-208v-514h-87z" />
    <glyph glyph-name="uni20BD" unicode="&#x20bd;" horiz-adv-x="621" 
d="M217 360h122c102 0 157 50 157 142v4c0 101 -60 139 -157 139h-122v-285zM460 165h-243v-165h-87v165h-100v58h100v78h-100v58h100v356h203c137 0 250 -60 250 -209v-4c0 -152 -114 -211 -250 -211h-116v-68h243v-58z" />
    <glyph glyph-name="trademark" unicode="&#x2122;" horiz-adv-x="716" 
d="M132 393v278h-98v44h251v-44h-97v-278h-56zM342 393v322h77l90 -226l88 226h78v-322h-56v251l-103 -251h-19l-104 251v-251h-51z" />
    <glyph glyph-name="onethird" unicode="&#x2153;" horiz-adv-x="723" 
d="M108 373v276l-81 -54v59l89 61h60v-342h-68zM45 0l507 715h66l-507 -715h-66zM560 -5c-83 0 -129 44 -131 111h61c4 -35 23 -61 68 -61c43 0 63 21 63 54c0 36 -20 54 -60 54h-26v47h25c38 0 56 18 56 49c0 27 -17 47 -52 47s-58 -21 -62 -55h-61c4 61 50 105 124 105
c73 0 115 -40 115 -92c0 -38 -23 -62 -57 -74c40 -9 67 -37 67 -82c0 -64 -50 -103 -130 -103z" />
    <glyph glyph-name="twothirds" unicode="&#x2154;" horiz-adv-x="760" 
d="M11 373v11l128 136c33 34 54 65 54 97c0 31 -18 50 -50 50c-33 0 -54 -19 -60 -66h-61c4 75 50 118 123 118c72 0 114 -40 114 -101c0 -45 -26 -83 -66 -122l-73 -72h142v-51h-251zM96 0l507 715h66l-507 -715h-66zM597 -5c-83 0 -129 44 -131 111h61
c4 -35 23 -61 68 -61c43 0 63 21 63 54c0 36 -20 54 -60 54h-26v47h25c38 0 56 18 56 49c0 27 -17 47 -52 47s-58 -21 -62 -55h-61c4 61 50 105 124 105c73 0 115 -40 115 -92c0 -38 -23 -62 -57 -74c40 -9 67 -37 67 -82c0 -64 -50 -103 -130 -103z" />
    <glyph glyph-name="oneeighth" unicode="&#x215b;" horiz-adv-x="714" 
d="M108 373v276l-81 -54v59l89 61h60v-342h-68zM45 0l507 715h66l-507 -715h-66zM553 -5c-69 0 -129 34 -129 101c0 44 25 74 63 87c-31 13 -50 37 -50 71c0 58 56 92 117 92c62 0 116 -34 116 -91c0 -35 -20 -58 -51 -71c40 -15 64 -44 64 -86c0 -67 -58 -103 -130 -103z
M554 203c31 0 52 18 52 48c0 29 -23 47 -52 47c-30 0 -53 -18 -53 -48s25 -47 53 -47zM554 45c35 0 62 20 62 58c0 36 -27 57 -62 57c-34 0 -62 -21 -62 -58s28 -57 62 -57z" />
    <glyph glyph-name="threeeighths" unicode="&#x215c;" horiz-adv-x="744" 
d="M87 0l507 715h66l-507 -715h-66zM155 368c-83 0 -129 44 -131 111h61c4 -35 23 -61 68 -61c43 0 63 21 63 54c0 36 -20 54 -60 54h-26v47h25c38 0 56 18 56 49c0 27 -17 47 -52 47s-58 -21 -62 -55h-61c4 61 50 105 124 105c73 0 115 -40 115 -92c0 -38 -23 -62 -57 -74
c40 -9 67 -37 67 -82c0 -64 -50 -103 -130 -103zM583 -5c-69 0 -129 34 -129 101c0 44 25 74 63 87c-31 13 -50 37 -50 71c0 58 56 92 117 92c62 0 116 -34 116 -91c0 -35 -20 -58 -51 -71c40 -15 64 -44 64 -86c0 -67 -58 -103 -130 -103zM584 203c31 0 52 18 52 48
c0 29 -23 47 -52 47c-30 0 -53 -18 -53 -48s25 -47 53 -47zM584 45c35 0 62 20 62 58c0 36 -27 57 -62 57c-34 0 -62 -21 -62 -58s28 -57 62 -57z" />
    <glyph glyph-name="fiveeighths" unicode="&#x215d;" horiz-adv-x="738" 
d="M148 368c-81 0 -120 44 -124 104h63c5 -31 17 -52 61 -52c37 0 58 26 58 67c0 40 -22 65 -59 65c-34 0 -55 -11 -70 -29h-36l4 192h210v-52h-159l-1 -92c14 16 38 30 75 30c62 0 105 -43 105 -115c0 -73 -52 -118 -127 -118zM80 0l507 715h66l-507 -715h-66zM577 -5
c-69 0 -129 34 -129 101c0 44 25 74 63 87c-31 13 -50 37 -50 71c0 58 56 92 117 92c62 0 116 -34 116 -91c0 -35 -20 -58 -51 -71c40 -15 64 -44 64 -86c0 -67 -58 -103 -130 -103zM578 203c31 0 52 18 52 48c0 29 -23 47 -52 47c-30 0 -53 -18 -53 -48s25 -47 53 -47z
M578 45c35 0 62 20 62 58c0 36 -27 57 -62 57c-34 0 -62 -21 -62 -58s28 -57 62 -57z" />
    <glyph glyph-name="seveneighths" unicode="&#x215e;" horiz-adv-x="710" 
d="M69 373l108 287h-157v55h241v-8l-124 -334h-68zM33 0l507 715h66l-507 -715h-66zM549 -5c-69 0 -129 34 -129 101c0 44 25 74 63 87c-31 13 -50 37 -50 71c0 58 56 92 117 92c62 0 116 -34 116 -91c0 -35 -20 -58 -51 -71c40 -15 64 -44 64 -86c0 -67 -58 -103 -130 -103
zM550 203c31 0 52 18 52 48c0 29 -23 47 -52 47c-30 0 -53 -18 -53 -48s25 -47 53 -47zM550 45c35 0 62 20 62 58c0 36 -27 57 -62 57c-34 0 -62 -21 -62 -58s28 -57 62 -57z" />
    <glyph glyph-name="minus" unicode="&#x2212;" horiz-adv-x="519" 
d="M36 307v70h447v-70h-447z" />
    <glyph glyph-name="approxequal" unicode="&#x2248;" horiz-adv-x="498" 
d="M44 343c7 80 55 119 110 119c76 0 139 -44 192 -44c21 0 42 14 45 46h63c-6 -82 -55 -119 -107 -119c-79 0 -142 44 -194 44c-22 0 -41 -15 -46 -46h-63zM44 166c7 80 55 119 110 119c76 0 139 -44 192 -44c21 0 42 14 45 46h63c-6 -82 -55 -119 -107 -119
c-79 0 -142 44 -194 44c-22 0 -41 -15 -46 -46h-63z" />
    <glyph glyph-name="notequal" unicode="&#x2260;" horiz-adv-x="484" 
d="M40 376v72h215l40 103h76l-40 -103h113v-72h-141l-41 -108h182v-72h-210l-40 -103h-76l40 103h-118v72h146l41 108h-187z" />
    <glyph glyph-name="lessequal" unicode="&#x2264;" horiz-adv-x="504" 
d="M437 119l-384 205v20l384 205v-80l-260 -135l260 -135v-80zM53 0v70h384v-70h-384z" />
    <glyph glyph-name="greaterequal" unicode="&#x2265;" horiz-adv-x="504" 
d="M67 119v80l260 135l-260 135v80l384 -205v-20zM67 0v70h384v-70h-384z" />
    <glyph glyph-name="uni24C5" unicode="&#x24c5;" horiz-adv-x="844" 
d="M421 -9c-203 0 -366 159 -366 366c0 204 162 367 368 367c208 0 366 -162 366 -365c0 -208 -162 -368 -368 -368zM421 33c170 0 320 133 320 326c0 190 -145 323 -318 323c-175 0 -320 -134 -320 -325c0 -193 151 -324 318 -324zM304 162v395h128c90 0 147 -39 147 -122
v-3c0 -84 -59 -121 -144 -121h-55v-149h-76zM380 366h52c48 0 74 23 74 66v3c0 45 -27 63 -74 63h-52v-132z" />
    <glyph glyph-name="zero.tab" unicode="&#xe44f;" 
d="M304 -9c-150 0 -253 101 -253 301v125c0 203 98 307 251 307c155 0 247 -104 247 -300v-130c0 -200 -91 -303 -245 -303zM304 63c112 0 157 65 157 232v130c0 153 -52 229 -159 229c-108 0 -162 -74 -162 -236v-125c0 -167 59 -230 164 -230z" />
    <glyph glyph-name="one.tab" unicode="&#xe450;" 
d="M314 0v627l-205 -164v81l201 171h91v-715h-87z" />
    <glyph glyph-name="two.tab" unicode="&#xe451;" 
d="M42 0v20l284 299c65 69 103 134 103 207c0 80 -47 128 -128 128c-83 0 -137 -47 -151 -159h-81c11 140 96 229 232 229c132 0 216 -78 216 -201c0 -88 -56 -174 -144 -260l-197 -192h345v-71h-479z" />
    <glyph glyph-name="three.tab" unicode="&#xe452;" 
d="M288 -9c-149 0 -239 95 -244 220h80c8 -85 53 -150 166 -150c112 0 161 54 161 138c0 92 -50 139 -151 139h-54v73h50c93 0 137 44 137 122c0 68 -41 120 -128 120c-89 0 -147 -54 -156 -135h-76c5 113 96 206 232 206s213 -90 213 -189c0 -81 -49 -129 -116 -156
c84 -22 138 -81 138 -180c0 -130 -104 -208 -252 -208z" />
    <glyph glyph-name="four.tab" unicode="&#xe453;" 
d="M389 0v150h-348v28l317 537h116v-494h84v-71h-84v-150h-85zM149 221h240v423z" />
    <glyph glyph-name="five.tab" unicode="&#xe454;" 
d="M288 -9c-154 0 -228 85 -238 202h83c14 -78 45 -132 154 -132c97 0 157 65 157 173c0 101 -59 167 -150 167c-83 0 -131 -26 -169 -69h-32v383h402v-75h-330v-218c29 27 78 49 146 49c128 0 222 -91 222 -237c0 -151 -109 -243 -245 -243z" />
    <glyph glyph-name="six.tab" unicode="&#xe455;" 
d="M308 -9c-195 0 -257 146 -257 325v17c0 257 116 391 280 391c111 0 190 -58 209 -173h-83c-16 66 -52 102 -132 102c-108 0 -184 -97 -188 -286c34 58 101 97 184 97c142 0 234 -103 234 -234c0 -143 -96 -239 -247 -239zM308 59c94 0 158 66 158 167
c0 103 -62 170 -159 170c-96 0 -164 -65 -164 -158c0 -117 69 -179 165 -179z" />
    <glyph glyph-name="seven.tab" unicode="&#xe456;" 
d="M166 0l263 645h-359v70h471v-12l-286 -703h-89z" />
    <glyph glyph-name="eight.tab" unicode="&#xe457;" 
d="M301 -9c-117 0 -247 70 -247 212c0 96 59 158 135 185c-68 26 -108 80 -108 150c0 116 110 186 220 186c111 0 219 -72 219 -184c0 -72 -44 -122 -110 -151c83 -30 137 -92 137 -184c0 -143 -125 -214 -246 -214zM304 419c76 0 128 44 128 120c0 69 -57 117 -131 117
s-132 -45 -132 -119c0 -75 62 -118 135 -118zM301 62c88 0 157 51 157 146c0 94 -70 142 -155 142s-160 -49 -160 -144c0 -94 75 -144 158 -144z" />
    <glyph glyph-name="nine.tab" unicode="&#xe458;" 
d="M293 320c96 0 164 62 164 155c0 117 -69 182 -165 182c-94 0 -158 -66 -158 -167c0 -103 62 -170 159 -170zM280 -8c-132 0 -211 69 -230 184h84c16 -70 56 -113 148 -113c114 0 181 94 183 284c-34 -58 -103 -95 -185 -95c-139 0 -235 99 -235 234c0 143 96 239 247 239
c169 0 257 -114 257 -320v-45c0 -237 -98 -368 -269 -368z" />
    <glyph glyph-name="cent.tab" unicode="&#xe459;" 
d="M285 -135v128c-130 13 -222 113 -222 263v8c0 148 96 251 222 266v99h59v-99c98 -8 185 -60 200 -181h-82c-11 71 -59 105 -118 112v-399c63 9 118 51 126 126h77c-10 -105 -91 -185 -203 -195v-128h-59zM149 256c0 -114 53 -180 136 -194v398
c-80 -15 -136 -87 -136 -196v-8z" />
    <glyph glyph-name="dollar.tab" unicode="&#xe45a;" 
d="M140 538c0 -63 22 -101 132 -124v241c-86 -7 -132 -56 -132 -117zM471 196c0 74 -31 110 -140 132v-269c84 10 140 63 140 137zM272 -135v127c-170 11 -228 111 -240 226h84c10 -79 35 -149 156 -159v279c-131 25 -211 73 -211 193c0 103 87 183 211 192v90h59v-91
c122 -11 195 -82 208 -195h-78c-15 76 -55 117 -130 127v-250c147 -25 223 -74 223 -203c0 -113 -90 -199 -223 -209v-127h-59z" />
    <glyph glyph-name="Euro.tab" unicode="&#xe45b;" 
d="M15 394v58h61c10 167 98 272 247 272c123 0 201 -78 217 -216h-82c-14 96 -56 148 -135 148c-102 0 -153 -71 -160 -204h220l-11 -58h-210v-78h195l-11 -58h-183c7 -132 58 -196 162 -196c84 0 130 52 146 160h81c-16 -148 -102 -231 -227 -231c-144 0 -238 95 -248 267
h-62v58h61v78h-61z" />
    <glyph glyph-name="a.alt" unicode="&#xe4c0;" horiz-adv-x="615" 
d="M285 60c89 0 166 64 166 198v8c0 134 -65 197 -159 197c-96 0 -161 -73 -161 -200v-8c0 -132 72 -195 154 -195zM276 -9c-125 0 -231 97 -231 260v8c0 160 107 273 239 273c81 0 134 -40 164 -91v82h83v-523h-83v88c-30 -51 -102 -97 -172 -97z" />
    <glyph glyph-name="t.alt" unicode="&#xe4d3;" horiz-adv-x="338" 
d="M109 0v453h-82v70h82v119h83v-119h115v-70h-115v-453h-83z" />
    <glyph glyph-name="f_i" unicode="&#xfb01;" horiz-adv-x="597" 
d="M102 0v453h-75v70h75v85c0 106 51 168 154 168c27 0 41 -2 57 -8v-70c-15 6 -31 9 -54 9c-53 0 -74 -37 -74 -90v-94h128v-70h-128v-453h-83zM468 632c-30 0 -55 25 -55 55s25 55 55 55s55 -25 55 -55s-25 -55 -55 -55zM428 0v523h83v-523h-83z" />
    <glyph glyph-name="f_l" unicode="&#xfb02;" horiz-adv-x="598" 
d="M102 0v453h-75v70h75v85c0 106 51 168 154 168c27 0 41 -2 57 -8v-70c-15 6 -31 9 -54 9c-53 0 -74 -37 -74 -90v-94h128v-70h-128v-453h-83zM428 0v773h84v-773h-84z" />
    <glyph glyph-name="aacute.alt" horiz-adv-x="615" 
d="M285 60c89 0 166 64 166 198v8c0 134 -65 197 -159 197c-96 0 -161 -73 -161 -200v-8c0 -132 72 -195 154 -195zM276 -9c-125 0 -231 97 -231 260v8c0 160 107 273 239 273c81 0 134 -40 164 -91v82h83v-523h-83v88c-30 -51 -102 -97 -172 -97zM261 613l62 147h104
l-104 -147h-62z" />
    <glyph glyph-name="guillemotleft.uc" horiz-adv-x="500" 
d="M367 113l-130 188l130 188h82l-125 -188l125 -188h-82zM189 113l-130 188l130 188h82l-125 -188l125 -188h-82z" />
    <glyph glyph-name="colon.tab" horiz-adv-x="300" 
d="M150 292c-35 0 -64 28 -64 64s29 64 64 64s64 -28 64 -64s-29 -64 -64 -64zM150 -5c-35 0 -64 28 -64 64s29 64 64 64s64 -28 64 -64s-29 -64 -64 -64z" />
    <glyph glyph-name="comma.tab" horiz-adv-x="300" 
d="M99 -123l-54 28l96 219l81 -38z" />
    <glyph glyph-name="period.tab" horiz-adv-x="300" 
d="M150 -5c-35 0 -64 28 -64 64s29 64 64 64s64 -28 64 -64s-29 -64 -64 -64z" />
    <glyph glyph-name="greaterequal.tab" 
d="M115 119v80l260 135l-260 135v80l384 -205v-20zM115 0v70h384v-70h-384z" />
    <glyph glyph-name="lessequal.tab" 
d="M485 119l-384 205v20l384 205v-80l-260 -135l260 -135v-80zM101 0v70h384v-70h-384z" />
    <glyph glyph-name="greater.tab" 
d="M115 95v80l263 147l-263 147v80l384 -217v-20z" />
    <glyph glyph-name="less.tab" 
d="M485 95l-384 217v20l384 217v-80l-263 -147l263 -147v-80z" />
    <glyph glyph-name="approxequal.tab" 
d="M95 343c7 80 55 119 110 119c76 0 139 -44 192 -44c21 0 42 14 45 46h63c-6 -82 -55 -119 -107 -119c-79 0 -142 44 -194 44c-22 0 -41 -15 -46 -46h-63zM95 166c7 80 55 119 110 119c76 0 139 -44 192 -44c21 0 42 14 45 46h63c-6 -82 -55 -119 -107 -119
c-79 0 -142 44 -194 44c-22 0 -41 -15 -46 -46h-63z" />
    <glyph glyph-name="notequal.tab" 
d="M98 376v72h215l40 103h76l-40 -103h113v-72h-141l-41 -108h182v-72h-210l-40 -103h-76l40 103h-118v72h146l41 108h-187z" />
    <glyph glyph-name="equal.tab" 
d="M98 376v72h404v-72h-404zM98 196v72h404v-72h-404z" />
    <glyph glyph-name="divide.tab" 
d="M300 467c-35 0 -64 28 -64 64s29 64 64 64s64 -28 64 -64s-29 -64 -64 -64zM77 307v70h447v-70h-447zM300 89c-35 0 -64 28 -64 64s29 64 64 64s64 -28 64 -64s-29 -64 -64 -64z" />
    <glyph glyph-name="multiply.tab" 
d="M146 131l-47 48l154 154l-154 154l47 48l154 -155l154 155l48 -48l-154 -154l154 -154l-48 -48l-154 155z" />
    <glyph glyph-name="plusminus.tab" 
d="M264 145v182h-187v70h187v182h73v-182h187v-70h-187v-182h-73zM77 0v70h447v-70h-447z" />
    <glyph glyph-name="f.short" horiz-adv-x="331" 
d="M102 0v453h-75v70h75v85c0 106 51 168 154 168c27 0 41 -2 57 -8v-70c-15 6 -31 9 -54 9c-53 0 -74 -37 -74 -90v-94h128v-70h-128v-453h-83z" />
    <glyph glyph-name="f_f.short" horiz-adv-x="619" 
d="M102 0v453h-75v70h75v78c0 106 52 168 156 168c27 0 41 -3 62 -10v-70c-15 6 -36 11 -59 11c-54 0 -76 -37 -76 -90v-87h205v85c0 106 51 168 154 168c27 0 41 -2 57 -8v-70c-15 6 -31 9 -54 9c-53 0 -74 -37 -74 -90v-94h128v-70h-128v-453h-83v453h-205v-453h-83z" />
    <glyph glyph-name="minus.tab" 
d="M77 307v70h447v-70h-447z" />
    <glyph glyph-name="plus.tab" 
d="M264 105v202h-187v70h187v202h73v-202h187v-70h-187v-202h-73z" />
    <glyph glyph-name="perthousand.tab" horiz-adv-x="1000" 
d="M180 395c-70 0 -135 59 -135 161c0 106 64 165 135 165c73 0 135 -59 135 -163s-64 -163 -135 -163zM91 0l437 715h76l-437 -715h-76zM180 459c39 0 61 37 61 99c0 60 -22 99 -61 99s-61 -36 -61 -100c0 -63 22 -98 61 -98zM820 -8c-70 0 -135 59 -135 161
c0 106 64 165 135 165c73 0 135 -59 135 -163s-64 -163 -135 -163zM512 -8c-70 0 -135 59 -135 161c0 106 64 165 135 165c73 0 135 -59 135 -163s-64 -163 -135 -163zM820 56c39 0 61 37 61 99c0 60 -22 99 -61 99s-61 -36 -61 -100c0 -63 22 -98 61 -98zM512 56
c39 0 61 37 61 99c0 60 -22 99 -61 99s-61 -36 -61 -100c0 -63 22 -98 61 -98z" />
    <glyph glyph-name="percent.tab" horiz-adv-x="800" 
d="M206 383c-85 0 -164 70 -164 167c0 99 77 171 164 171c89 0 164 -72 164 -169c0 -99 -78 -169 -164 -169zM143 0l437 715h76l-437 -715h-76zM206 448c54 0 88 37 88 104c0 64 -34 104 -88 104c-53 0 -88 -37 -88 -105s35 -103 88 -103zM594 -8c-85 0 -164 70 -164 167
c0 99 77 171 164 171c89 0 164 -72 164 -169c0 -99 -78 -169 -164 -169zM594 57c54 0 88 37 88 104c0 64 -34 104 -88 104c-53 0 -88 -37 -88 -105s35 -103 88 -103z" />
    <glyph glyph-name="parenleft.tab" horiz-adv-x="300" 
d="M188 -148c-72 108 -136 261 -136 460s64 353 136 461h83c-70 -112 -132 -259 -132 -461s62 -348 132 -460h-83z" />
    <glyph glyph-name="parenright.tab" horiz-adv-x="300" 
d="M29 -148c70 112 132 258 132 460s-62 349 -132 461h83c72 -108 136 -262 136 -461s-64 -352 -136 -460h-83z" />
    <glyph glyph-name="bracketleft.tab" horiz-adv-x="300" 
d="M70 -148v924h194v-66h-111v-792h111v-66h-194z" />
    <glyph glyph-name="bracketright.tab" horiz-adv-x="300" 
d="M36 -148v66h111v792h-111v66h194v-924h-194z" />
    <glyph glyph-name="braceleft.tab" horiz-adv-x="300" 
d="M264 -147c-128 0 -196 57 -169 208l19 104c11 59 -6 100 -88 120v62c82 20 99 61 88 120l-19 104c-27 151 41 208 169 208v-63c-78 -1 -108 -33 -90 -147l19 -115c12 -75 -31 -111 -98 -138c67 -27 110 -63 98 -138l-19 -115c-18 -114 12 -146 90 -147v-63z" />
    <glyph glyph-name="braceright.tab" horiz-adv-x="300" 
d="M36 -147v63c78 1 108 33 90 147l-19 115c-12 75 31 111 98 138c-67 27 -110 63 -98 138l19 115c18 114 -12 146 -90 147v63c128 0 196 -57 169 -208l-19 -104c-11 -59 6 -100 88 -120v-62c-82 -20 -99 -61 -88 -120l19 -104c27 -151 -41 -208 -169 -208z" />
    <glyph glyph-name="dollar.oldtab" 
d="M144 522c0 -61 21 -98 128 -120v233c-81 -7 -128 -53 -128 -113zM465 190c0 72 -30 107 -135 128v-260c78 8 135 60 135 132zM272 -131v123c-166 12 -221 108 -232 219h81c10 -75 33 -142 151 -153v270c-128 24 -204 70 -204 186c0 101 83 180 204 187v88h58v-89
c116 -12 189 -77 201 -189h-75c-15 74 -55 113 -126 122v-242c141 -24 216 -70 216 -195c0 -110 -90 -195 -216 -204v-123h-58z" />
    <glyph glyph-name="Euro.oldtab" 
d="M35 382v56h59c9 163 95 264 239 264c120 0 195 -75 211 -209h-80c-13 93 -54 143 -131 143c-98 0 -149 -69 -155 -198h214l-11 -56h-204v-75h189l-10 -57h-178c7 -128 57 -190 157 -190c82 0 126 51 142 155h78c-15 -143 -99 -224 -220 -224c-140 0 -230 93 -240 259h-60
v57h59v75h-59z" />
    <glyph glyph-name="sterling.oldtab" 
d="M58 306v60h62c-10 41 -17 85 -17 136c0 119 93 200 214 200c124 0 198 -72 207 -183h-81c-14 74 -46 114 -126 114c-75 0 -128 -52 -128 -132c0 -52 7 -94 16 -135h207v-60h-194c8 -39 15 -79 15 -128c0 -24 -5 -45 -13 -64c64 -15 126 -52 167 -52c52 0 85 20 89 83h70
c-5 -89 -58 -154 -149 -154c-85 0 -160 61 -215 61c-43 0 -60 -27 -63 -52h-71c4 43 33 105 99 118c7 17 12 36 12 60c0 43 -11 84 -23 128h-78z" />
    <glyph glyph-name="yen.oldtab" 
d="M102 273v56h151l-196 365h92l160 -315l153 315h81l-184 -365h152v-56h-163v-76h163v-56h-163v-141h-83v141h-163v56h163v76h-163z" />
    <glyph glyph-name="florin.tab" 
d="M111 345v68h117l23 152c16 103 72 159 169 159c29 0 49 -4 68 -11v-70c-15 6 -37 12 -66 12c-56 0 -81 -40 -89 -94l-23 -148h142v-68h-152l-80 -527h-83l80 527h-106z" />
    <glyph glyph-name="yen.tab" 
d="M96 281v58h156l-202 376h94l165 -324l157 324h84l-190 -376h157v-58h-168v-78h168v-58h-168v-145h-85v145h-168v58h168v78h-168z" />
    <glyph glyph-name="sterling.tab" 
d="M50 315v62h65c-10 42 -18 88 -18 141c0 122 96 206 220 206c128 0 205 -75 214 -189h-84c-14 76 -47 118 -130 118c-77 0 -132 -54 -132 -136c0 -54 8 -98 17 -140h213v-62h-198c8 -40 15 -82 15 -133c0 -24 -5 -45 -13 -64c64 -16 128 -54 171 -54c53 0 87 21 91 86h73
c-6 -92 -60 -159 -154 -159c-88 0 -165 63 -222 63c-44 0 -62 -28 -65 -54h-73c4 44 33 108 104 121c8 17 12 37 12 62c0 44 -11 86 -24 132h-82z" />
    <glyph glyph-name="zero.oldtab" 
d="M302 -9c-150 0 -248 113 -248 267v103c0 156 96 267 247 267c152 0 245 -113 245 -265v-103c0 -157 -92 -269 -244 -269zM302 62c106 0 157 76 157 198v102c0 117 -54 197 -158 197s-160 -77 -160 -197v-103c0 -122 58 -197 161 -197z" />
    <glyph glyph-name="one.oldtab" 
d="M319 0v534l-204 -148v80l210 153h79v-619h-85z" />
    <glyph glyph-name="two.oldtab" 
d="M53 0v20l251 234c68 63 119 115 119 189c0 71 -47 117 -126 117c-80 0 -132 -46 -146 -153h-77c11 130 92 221 223 221c128 0 213 -75 213 -185c0 -91 -73 -157 -165 -242l-141 -131h312v-70h-463z" />
    <glyph glyph-name="space.tab" horiz-adv-x="300" 
 />
    <glyph glyph-name="nine.old" horiz-adv-x="611" 
d="M299 231c94 0 163 64 163 155c0 114 -70 175 -164 175c-92 0 -156 -64 -156 -163c0 -101 62 -167 157 -167zM284 -105c-127 0 -206 71 -223 180h81c16 -63 57 -111 149 -111c127 0 172 97 176 294c-33 -55 -100 -94 -181 -94c-140 0 -231 101 -231 230
c0 140 95 234 243 234c191 0 254 -143 254 -319v-30c0 -252 -91 -384 -268 -384z" />
    <glyph glyph-name="eight.old" horiz-adv-x="595" 
d="M298 -9c-117 0 -245 71 -245 209c0 96 64 156 140 182c-68 25 -113 79 -113 154c0 119 108 188 218 188c111 0 217 -71 217 -186c0 -77 -48 -128 -115 -155c83 -29 142 -89 142 -181c0 -139 -123 -211 -244 -211zM301 413c76 0 128 46 128 124c0 71 -57 120 -131 120
s-132 -46 -132 -122c0 -77 62 -122 135 -122zM298 61c88 0 157 52 157 144c0 91 -70 140 -155 140s-160 -50 -160 -142c0 -91 75 -142 158 -142z" />
    <glyph glyph-name="seven.old" horiz-adv-x="523" 
d="M121 -97l270 647h-362v68h468v-12l-289 -703h-87z" />
    <glyph glyph-name="six.old" horiz-adv-x="611" 
d="M313 -9c-191 0 -254 143 -254 319v30c0 252 113 384 274 384c109 0 188 -57 207 -170h-81c-16 65 -53 101 -132 101c-106 0 -179 -97 -183 -294c33 55 100 94 181 94c140 0 231 -101 231 -230c0 -140 -95 -234 -243 -234zM313 58c92 0 156 64 156 163
c0 101 -62 167 -157 167c-94 0 -163 -64 -163 -155c0 -114 70 -175 164 -175z" />
    <glyph glyph-name="five.old" horiz-adv-x="569" 
d="M276 -105c-149 0 -223 82 -233 195h79c13 -76 48 -127 153 -127c93 0 152 65 152 170c0 97 -58 163 -145 163c-81 0 -130 -25 -167 -67h-30v390h392v-73h-323v-229c28 26 78 47 144 47c124 0 216 -90 216 -231c0 -146 -107 -238 -238 -238z" />
    <glyph glyph-name="four.old" horiz-adv-x="617" 
d="M397 -97v154h-367v28l336 533h114v-494h101v-67h-101v-154h-83zM137 124h260v428z" />
    <glyph glyph-name="three.old" horiz-adv-x="593" 
d="M288 -105c-152 0 -241 95 -246 220h79c8 -88 56 -152 169 -152c112 0 161 56 161 143c0 94 -52 137 -153 137h-50v71h46c93 0 133 47 133 125c0 70 -40 120 -127 120c-89 0 -146 -54 -155 -137h-75c5 113 94 206 230 206s210 -88 210 -187c0 -81 -44 -131 -109 -158
c84 -22 137 -78 137 -177c0 -130 -102 -211 -250 -211z" />
    <glyph glyph-name="two.old" horiz-adv-x="541" 
d="M23 0v20l251 234c68 63 119 115 119 189c0 71 -47 117 -126 117c-80 0 -132 -46 -146 -153h-77c11 130 92 221 223 221c128 0 213 -75 213 -185c0 -91 -73 -157 -165 -242l-141 -131h312v-70h-463z" />
    <glyph glyph-name="one.old" horiz-adv-x="387" 
d="M193 0v534l-158 -112v80l164 117h79v-619h-85z" />
    <glyph glyph-name="zero.old" horiz-adv-x="643" 
d="M323 -9c-160 0 -268 120 -268 300v37c0 184 106 300 267 300c162 0 266 -118 266 -298v-37c0 -183 -103 -302 -265 -302zM323 62c115 0 178 81 178 231v36c0 144 -66 230 -179 230s-180 -82 -180 -230v-37c0 -150 69 -230 181 -230z" />
    <glyph glyph-name="yen.old" horiz-adv-x="559" 
d="M81 273v56h151l-205 365h91l170 -315l162 315h82l-194 -365h152v-56h-163v-76h163v-56h-163v-141h-83v141h-163v56h163v76h-163z" />
    <glyph glyph-name="sterling.old" horiz-adv-x="578" 
d="M47 306v60h62c-10 41 -17 85 -17 136c0 119 93 200 214 200c124 0 198 -72 207 -183h-81c-14 74 -46 114 -126 114c-75 0 -128 -52 -128 -132c0 -52 7 -94 16 -135h207v-60h-194c8 -39 15 -79 15 -128c0 -24 -5 -45 -13 -64c64 -15 126 -52 167 -52c52 0 85 20 89 83h70
c-5 -89 -58 -154 -149 -154c-85 0 -160 61 -215 61c-43 0 -60 -27 -63 -52h-71c4 43 33 105 99 118c7 17 12 36 12 60c0 43 -11 84 -23 128h-78z" />
    <glyph glyph-name="Euro.old" horiz-adv-x="654" 
d="M31 382v56h71c16 149 106 264 260 264c133 0 221 -78 236 -212h-79c-14 93 -72 146 -157 146c-105 0 -164 -78 -177 -198h232l-11 -56h-223v-75h209l-11 -57h-195c13 -119 71 -190 178 -190c90 0 148 54 164 159h78c-15 -143 -107 -228 -242 -228
c-149 0 -244 108 -261 259h-72v57h69v75h-69z" />
    <glyph glyph-name="dollar.old" horiz-adv-x="608" 
d="M148 522c0 -61 21 -98 128 -120v233c-81 -7 -128 -53 -128 -113zM469 190c0 72 -30 107 -135 128v-260c78 8 135 60 135 132zM276 -131v123c-166 12 -221 108 -232 219h81c10 -75 33 -142 151 -153v270c-128 24 -204 70 -204 186c0 101 83 180 204 187v88h58v-89
c116 -12 189 -77 201 -189h-75c-15 74 -55 113 -126 122v-242c141 -24 216 -70 216 -195c0 -110 -90 -195 -216 -204v-123h-58z" />
    <glyph glyph-name="three.oldtab" 
d="M292 -105c-152 0 -241 95 -246 220h79c8 -88 56 -152 169 -152c112 0 161 56 161 143c0 94 -52 137 -153 137h-50v71h46c93 0 133 47 133 125c0 70 -40 120 -127 120c-89 0 -146 -54 -155 -137h-75c5 113 94 206 230 206s210 -88 210 -187c0 -81 -44 -131 -109 -158
c84 -22 137 -78 137 -177c0 -130 -102 -211 -250 -211z" />
    <glyph glyph-name="four.oldtab" 
d="M383 -97v154h-347v28l312 533h118v-494h93v-67h-93v-154h-83zM140 124h243v428z" />
    <glyph glyph-name="five.oldtab" 
d="M296 -105c-149 0 -223 82 -233 195h79c13 -76 48 -127 153 -127c93 0 152 65 152 170c0 97 -58 163 -145 163c-81 0 -130 -25 -167 -67h-30v390h392v-73h-323v-229c28 26 78 47 144 47c124 0 216 -90 216 -231c0 -146 -107 -238 -238 -238z" />
    <glyph glyph-name="six.oldtab" 
d="M310 -9c-175 0 -246 134 -246 310v50c0 241 105 373 264 373c107 0 188 -57 207 -170h-81c-16 65 -55 101 -132 101c-104 0 -169 -97 -173 -294c33 55 92 94 173 94c140 0 225 -101 225 -230c0 -140 -93 -234 -237 -234zM310 58c86 0 150 64 150 163
c0 101 -62 167 -151 167c-88 0 -155 -64 -155 -155c0 -114 68 -175 156 -175z" />
    <glyph glyph-name="seven.oldtab" 
d="M148 -97l278 647h-358v68h468v-12l-301 -703h-87z" />
    <glyph glyph-name="eight.oldtab" 
d="M301 -9c-113 0 -237 71 -237 209c0 96 59 156 135 182c-68 25 -108 79 -108 154c0 119 103 188 210 188c108 0 209 -71 209 -186c0 -77 -43 -128 -110 -155c83 -29 137 -89 137 -181c0 -139 -119 -211 -236 -211zM304 413c72 0 120 46 120 124c0 71 -53 120 -123 120
s-124 -46 -124 -122c0 -77 58 -122 127 -122zM301 61c85 0 149 52 149 144c0 91 -65 140 -147 140s-152 -50 -152 -142c0 -91 70 -142 150 -142z" />
    <glyph glyph-name="nine.oldtab" 
d="M294 231c88 0 153 64 153 155c0 114 -66 175 -154 175c-86 0 -151 -64 -151 -163c0 -101 63 -167 152 -167zM279 -105c-127 0 -201 71 -218 180h81c16 -63 52 -111 144 -111c113 0 162 97 166 294c-33 -55 -92 -94 -171 -94c-135 0 -226 101 -226 230
c0 140 97 234 238 234c176 0 244 -130 244 -306v-57c0 -238 -81 -370 -258 -370z" />
    <glyph glyph-name="zero.num" horiz-adv-x="350" 
d="M175 368c-90 0 -145 67 -145 168v14c0 103 57 169 145 169s145 -65 145 -167v-14c0 -101 -54 -170 -145 -170zM176 422c51 0 77 40 77 116v14c0 72 -27 115 -78 115s-77 -41 -77 -116v-14c0 -76 28 -115 78 -115z" />
    <glyph glyph-name="one.num" horiz-adv-x="231" 
d="M105 373v276l-81 -54v59l89 61h60v-342h-68z" />
    <glyph glyph-name="space_uni0326" horiz-adv-x="400" 
d="M179 -220l-51 26l58 157l80 -24z" />
    <glyph glyph-name="two.num" horiz-adv-x="286" 
d="M8 373v11l128 136c33 34 54 65 54 97c0 31 -18 50 -50 50c-33 0 -54 -19 -60 -66h-61c4 75 50 118 123 118c72 0 114 -40 114 -101c0 -45 -26 -83 -66 -122l-73 -72h142v-51h-251z" />
    <glyph glyph-name="uni0414.bgr" horiz-adv-x="673" 
d="M334 643l-192 -570h384zM77 0l-5 -130h-72v203h60l221 642h114l217 -642h61v-203h-72l-5 130h-519z" />
    <glyph glyph-name="three.num" horiz-adv-x="311" 
d="M152 368c-83 0 -129 44 -131 111h61c4 -35 23 -61 68 -61c43 0 63 21 63 54c0 36 -20 54 -60 54h-26v47h25c38 0 56 18 56 49c0 27 -17 47 -52 47s-58 -21 -62 -55h-61c4 61 50 105 124 105c73 0 115 -40 115 -92c0 -38 -23 -62 -57 -74c40 -9 67 -37 67 -82
c0 -64 -50 -103 -130 -103z" />
    <glyph glyph-name="four.num" horiz-adv-x="317" 
d="M189 373v69h-172v24l153 249h83v-224h45v-49h-45v-69h-64zM89 491h101v173z" />
    <glyph glyph-name="uni0416.bgr" horiz-adv-x="879" 
d="M395 0v351l-279 -351h-97l291 363l-283 352h97l271 -346v346h85v-346l271 346h95l-279 -347l293 -368h-101l-279 351v-351h-85z" />
    <glyph glyph-name="five.num" horiz-adv-x="302" 
d="M145 368c-81 0 -120 44 -124 104h63c5 -31 17 -52 61 -52c37 0 58 26 58 67c0 40 -22 65 -59 65c-34 0 -55 -11 -70 -29h-36l4 192h210v-52h-159l-1 -92c14 16 38 30 75 30c62 0 105 -43 105 -115c0 -73 -52 -118 -127 -118z" />
    <glyph glyph-name="six.num" horiz-adv-x="320" 
d="M165 368c-100 0 -135 69 -135 161v9c0 117 60 181 146 181c61 0 102 -30 110 -91h-62c-6 25 -19 40 -51 40c-46 0 -74 -40 -76 -116c16 26 43 44 84 44c65 0 113 -44 113 -111c0 -70 -49 -117 -129 -117zM165 417c37 0 62 27 62 66c0 40 -24 67 -62 67s-65 -26 -65 -63
c0 -44 27 -70 65 -70z" />
    <glyph glyph-name="seven.num" horiz-adv-x="268" 
d="M66 373l108 287h-157v55h241v-8l-124 -334h-68z" />
    <glyph glyph-name="hungarumlaut.uc" horiz-adv-x="400" 
d="M250 771l37 127h95l-72 -127h-60zM96 771l37 127h95l-72 -127h-60z" />
    <glyph glyph-name="uni041A.bgr" horiz-adv-x="616" 
d="M496 0l-319 349v-349h-87v715h87v-344l311 344h97l-318 -347l334 -368h-105z" />
    <glyph glyph-name="idotaccent" horiz-adv-x="255" 
d="M126 632c-30 0 -55 25 -55 55s25 55 55 55s55 -25 55 -55s-25 -55 -55 -55zM86 0v523h83v-523h-83z" />
    <glyph glyph-name="uni041B.bgr" horiz-adv-x="674" 
d="M552 0l-217 643l-217 -643h-82l246 715h114l242 -715h-86z" />
    <glyph glyph-name="tilde.uc" horiz-adv-x="400" 
d="M254 774c-43 0 -79 43 -108 43c-19 0 -35 -19 -40 -45h-60c8 71 49 116 101 116c42 0 78 -43 107 -43c19 0 35 19 40 45h60c-8 -71 -49 -116 -100 -116z" />
    <glyph glyph-name="ring.uc" horiz-adv-x="400" 
d="M200 759c-59 0 -107 47 -107 104s48 104 107 104s107 -47 107 -104s-48 -104 -107 -104zM200 805c31 0 53 25 53 58s-22 58 -53 58s-53 -25 -53 -58s22 -58 53 -58z" />
    <glyph glyph-name="dotaccent.uc" horiz-adv-x="400" 
d="M200 787c-30 0 -55 25 -55 55s25 55 55 55s55 -25 55 -55s-25 -55 -55 -55z" />
    <glyph glyph-name="breve.uc" horiz-adv-x="400" 
d="M198 767c-72 0 -128 56 -132 132h66c7 -39 26 -64 66 -64c42 0 64 24 72 64h64c-4 -76 -64 -132 -136 -132z" />
    <glyph glyph-name="caron.uc" horiz-adv-x="400" 
d="M162 771l-107 127h61l85 -58l85 58h59l-108 -127h-75z" />
    <glyph glyph-name="circumflex.uc" horiz-adv-x="400" 
d="M55 771l108 127h75l107 -127h-61l-85 58l-85 -58h-59z" />
    <glyph glyph-name="acute.uc" horiz-adv-x="400" 
d="M161 771l56 127h104l-98 -127h-62z" />
    <glyph glyph-name="macron.uc" horiz-adv-x="400" 
d="M67 786v64h266v-64h-266z" />
    <glyph glyph-name="dieresis.uc" horiz-adv-x="400" 
d="M301 789c-29 0 -53 24 -53 53s24 53 53 53s53 -24 53 -53s-24 -53 -53 -53zM98 789c-29 0 -53 24 -53 53s24 53 53 53s53 -24 53 -53s-24 -53 -53 -53z" />
    <glyph glyph-name="uni0424.bgr" horiz-adv-x="835" 
d="M460 660c180 -4 319 -83 319 -296v-8c0 -210 -144 -289 -319 -293v-73h-85v73c-180 4 -319 81 -319 288v5c0 217 142 300 319 304v65h85v-65zM460 596v-467c127 4 230 46 230 228v8c0 173 -95 227 -230 231zM375 127v467c-128 -4 -230 -47 -230 -239v-5
c0 -167 95 -219 230 -223z" />
    <glyph glyph-name="grave.uc" horiz-adv-x="400" 
d="M177 771l-98 127h104l56 -127h-62z" />
    <glyph glyph-name="at.uc" horiz-adv-x="915" 
d="M459 -58c-259 0 -402 188 -402 394c0 238 189 415 413 415c231 0 388 -155 388 -355c0 -183 -105 -247 -183 -247s-104 33 -111 84c-28 -51 -85 -91 -145 -91c-94 0 -156 64 -156 169c0 130 85 225 191 225c69 0 104 -33 117 -66l7 58h83l-29 -244c-7 -51 7 -77 44 -77
c56 0 109 55 109 187c0 173 -116 290 -315 290c-196 0 -335 -140 -335 -346c0 -176 108 -329 324 -329c106 0 167 24 227 75h77c-50 -84 -164 -142 -304 -142zM437 204c60 0 124 56 124 159c0 73 -38 109 -101 109c-61 0 -113 -58 -113 -160c0 -68 37 -108 90 -108z" />
    <glyph glyph-name="bar.uc" horiz-adv-x="253" 
d="M93 -84v862h67v-862h-67z" />
    <glyph glyph-name="backslash.uc" horiz-adv-x="403" 
d="M302 -84l-272 862h76l272 -862h-76z" />
    <glyph glyph-name="slash.uc" horiz-adv-x="403" 
d="M24 -84l273 862h76l-273 -862h-76z" />
    <glyph glyph-name="braceright.uc" horiz-adv-x="381" 
d="M44 -87v63c96 1 133 26 119 130l-14 106c-10 75 31 117 98 134c-67 17 -108 59 -98 134l14 106c14 104 -23 129 -119 130v63c146 0 219 -49 198 -191l-14 -95c-9 -59 11 -116 113 -116v-62c-102 0 -122 -57 -113 -116l14 -95c21 -142 -52 -191 -198 -191z" />
    <glyph glyph-name="braceleft.uc" horiz-adv-x="381" 
d="M337 -87c-146 0 -219 49 -198 191l14 95c9 59 -11 116 -113 116v62c102 0 122 57 113 116l-14 95c-21 142 52 191 198 191v-63c-96 -1 -133 -26 -119 -130l14 -106c10 -75 -31 -117 -98 -134c67 -17 108 -59 98 -134l-14 -106c-14 -104 23 -129 119 -130v-63z" />
    <glyph glyph-name="bracketright.uc" horiz-adv-x="356" 
d="M44 -84v66h141v730h-141v66h224v-862h-224z" />
    <glyph glyph-name="bracketleft.uc" horiz-adv-x="356" 
d="M88 -84v862h224v-66h-141v-730h141v-66h-224z" />
    <glyph glyph-name="parenright.uc" horiz-adv-x="322" 
d="M20 -98c84 106 158 265 158 441s-74 334 -158 440h82c86 -101 163 -260 163 -440s-77 -340 -163 -441h-82z" />
    <glyph glyph-name="parenleft.uc" horiz-adv-x="322" 
d="M220 -98c-86 101 -163 260 -163 440s77 340 163 441h82c-84 -106 -158 -265 -158 -441s74 -334 158 -440h-82z" />
    <glyph glyph-name="guillemotright.uc" horiz-adv-x="500" 
d="M229 113l125 188l-125 188h82l130 -188l-130 -188h-82zM51 113l125 188l-125 188h82l130 -188l-130 -188h-82z" />
    <glyph glyph-name="uni0430.alt" horiz-adv-x="615" 
d="M285 60c89 0 166 64 166 198v8c0 134 -65 197 -159 197c-96 0 -161 -73 -161 -200v-8c0 -132 72 -195 154 -195zM276 -9c-125 0 -231 97 -231 260v8c0 160 107 273 239 273c81 0 134 -40 164 -91v82h83v-523h-83v88c-30 -51 -102 -97 -172 -97z" />
    <glyph glyph-name="semicolon.tab" horiz-adv-x="300" 
d="M159 292c-35 0 -64 28 -64 64s29 64 64 64s64 -28 64 -64s-29 -64 -64 -64zM79 -123l-54 28l96 219l81 -38z" />
    <glyph glyph-name="uni0431.locl" horiz-adv-x="604" 
d="M301 -9c-149 0 -256 113 -256 256v8c0 147 109 248 244 248h9c-106 57 -196 99 -196 176c0 63 53 94 128 94h132c48 0 105 -1 150 8v-72c-40 -11 -94 -11 -151 -11h-112c-43 0 -63 -12 -63 -38c0 -36 89 -72 171 -121c115 -68 202 -129 202 -283v-8
c0 -148 -109 -257 -258 -257zM302 60c105 0 171 79 171 187v7c0 111 -67 189 -171 189c-105 0 -171 -78 -171 -188v-8c0 -109 65 -187 171 -187z" />
    <glyph glyph-name="guilsinglright.uc" horiz-adv-x="322" 
d="M51 113l125 188l-125 188h82l130 -188l-130 -188h-82z" />
    <glyph glyph-name="uni0432.bgr" horiz-adv-x="513" 
d="M60 524c0 157 60 257 197 257c123 0 190 -79 190 -190v-3c0 -75 -48 -153 -123 -166c77 -11 147 -67 147 -193v-3c0 -140 -90 -236 -206 -236c-149 0 -205 110 -205 258v276zM143 529v-76h92c90 0 125 65 125 135v3c0 64 -26 121 -103 121c-88 0 -114 -78 -114 -183z
M262 60c80 0 126 63 126 166v3c0 105 -48 158 -153 158h-92v-146c0 -110 30 -181 119 -181z" />
    <glyph glyph-name="guilsinglleft.uc" horiz-adv-x="322" 
d="M189 113l-130 188l130 188h82l-125 -188l125 -188h-82z" />
    <glyph glyph-name="uni0433.bgr" horiz-adv-x="477" 
d="M232 -9c-131 0 -192 64 -192 145c0 113 90 138 170 159c66 16 126 32 126 97c0 41 -30 71 -90 71c-66 0 -98 -25 -110 -82h-80c14 113 95 151 189 151c100 0 177 -46 177 -135c0 -109 -89 -133 -180 -157c-61 -16 -114 -35 -114 -102c0 -51 36 -78 105 -78
c84 0 117 39 123 101h81c-5 -107 -80 -170 -205 -170z" />
    <glyph glyph-name="emdash.uc" horiz-adv-x="885" 
d="M45 291v70h795v-70h-795z" />
    <glyph glyph-name="uni0434.bgr" horiz-adv-x="627" 
d="M292 86c97 0 171 68 171 185v7c0 117 -64 185 -166 185c-104 0 -166 -77 -166 -187v-8c0 -114 73 -182 161 -182zM293 -191c-155 0 -223 73 -237 161h85c12 -60 62 -91 151 -91c103 0 168 49 168 161v76c-30 -51 -101 -99 -177 -99c-137 0 -238 104 -238 248v7
c0 142 100 260 244 260c87 0 141 -42 171 -93v84h83v-488c-1 -152 -104 -226 -250 -226z" />
    <glyph glyph-name="uni0434.locl" horiz-adv-x="578" 
d="M186 202c-7 -61 -17 -103 -34 -132h245v385h-192c-3 -69 -10 -175 -19 -253zM88 0l-6 -127h-67v197h37c42 11 49 70 58 137c15 122 23 316 23 316h345v-453h80v-197h-67l-6 127h-397z" />
    <glyph glyph-name="endash.uc" horiz-adv-x="526" 
d="M45 291v70h436v-70h-436z" />
    <glyph glyph-name="hyphen.uc" horiz-adv-x="364" 
d="M60 288v78h244v-78h-244z" />
    <glyph glyph-name="uni0436.bgr" horiz-adv-x="709" 
d="M314 0v269l-202 -269h-93l213 278l-194 245h89l187 -246v496h81v-496l187 246h90l-194 -245l213 -278h-94l-202 269v-269h-81z" />
    <glyph glyph-name="exclamdown.uc" horiz-adv-x="288" 
d="M144 592c-35 0 -64 28 -64 64s29 64 64 64s64 -28 64 -64s-29 -64 -64 -64zM97 0l14 513h64l14 -513h-92z" />
    <glyph glyph-name="uni0437.bgr" horiz-adv-x="481" 
d="M438 28v-3c0 -140 -94 -216 -206 -216c-129 0 -187 73 -201 161h85c12 -60 52 -91 114 -91c73 0 125 43 125 146v3c0 101 -48 148 -143 148h-47v66h46c81 0 116 45 116 115v3c0 58 -26 103 -96 103c-51 0 -86 -25 -98 -82h-80c14 113 95 151 182 151
c112 0 179 -68 179 -172v-3c0 -75 -48 -135 -113 -145c75 -14 137 -70 137 -184z" />
    <glyph glyph-name="questiondown.uc" horiz-adv-x="489" 
d="M275 720c35 0 64 -28 64 -64s-29 -64 -64 -64s-64 28 -64 64s29 64 64 64zM310 513v-50c0 -81 -53 -131 -103 -180c-39 -39 -73 -75 -73 -123c0 -59 33 -100 107 -100c75 0 126 51 133 130h78c-7 -117 -90 -199 -212 -199c-136 0 -190 82 -190 166c0 74 50 121 98 167
c45 43 88 85 88 146v43h74z" />
    <glyph glyph-name="uni0438.bgr" horiz-adv-x="594" 
d="M261 -9c-104 0 -182 57 -182 201v331h83v-327c0 -92 39 -133 121 -133c74 0 144 49 144 143v317h83v-523h-83v83c-24 -49 -82 -92 -166 -92z" />
    <glyph glyph-name="caron.alt" horiz-adv-x="400" 
d="M182 598l12 175h94l-48 -175h-58z" />
    <glyph glyph-name="uni0439.bgr" horiz-adv-x="594" 
d="M295 619c-72 0 -128 56 -132 132h72c3 -39 20 -74 60 -74c42 0 62 34 66 74h70c-4 -76 -64 -132 -136 -132zM261 -9c-104 0 -182 57 -182 201v331h83v-327c0 -92 39 -133 121 -133c74 0 144 49 144 143v317h83v-523h-83v83c-24 -49 -82 -92 -166 -92z" />
    <glyph glyph-name="registered.alt" horiz-adv-x="844" 
d="M421 -9c-203 0 -366 159 -366 366c0 204 162 367 368 367c208 0 366 -162 366 -365c0 -208 -162 -368 -368 -368zM421 33c170 0 320 133 320 326c0 190 -145 323 -318 323c-175 0 -320 -134 -320 -325c0 -193 151 -324 318 -324zM362 375h59c48 0 73 21 73 62v3
c0 44 -27 60 -73 60h-59v-125zM287 163v395h135c87 0 147 -35 147 -116v-2c0 -62 -38 -94 -87 -106l110 -171h-79l-103 159h-48v-159h-75z" />
    <glyph glyph-name="uni043A.bgr" horiz-adv-x="516" 
d="M399 0l-232 267v-267h-83v773h83v-494l217 244h97l-224 -246l243 -277h-101z" />
    <glyph glyph-name="space_uni0326.alt" horiz-adv-x="400" 
d="M230 602l-80 24l87 159l51 -26z" />
    <glyph glyph-name="uni043B.bgr" horiz-adv-x="534" 
d="M319 523l190 -523h-90l-155 439l-153 -439h-86l188 523h106z" />
    <glyph glyph-name="tcommaaccent.alt" horiz-adv-x="338" 
d="M116 -220l-51 26l58 157l80 -24zM109 0v453h-82v70h82v119h83v-119h115v-70h-115v-453h-83z" />
    <glyph glyph-name="tcaron.alt" horiz-adv-x="338" 
d="M109 0v453h-82v70h82v119h83v-119h115v-70h-115v-453h-83zM255 598l12 175h94l-48 -175h-58z" />
    <glyph glyph-name="uni043D.bgr" horiz-adv-x="591" 
d="M424 0v233h-257v-233h-83v523h83v-220h257v220h83v-523h-83z" />
    <glyph glyph-name="tbar.alt" horiz-adv-x="338" 
d="M27 279v60h82v114h-82v70h82v119h83v-119h115v-70h-115v-114h115v-60h-115v-279h-83v279h-82z" />
    <glyph glyph-name="germandbls.alt" horiz-adv-x="615" 
d="M407 -9c-97 0 -166 57 -169 150h80c3 -46 32 -81 89 -81c52 0 86 27 86 89c0 50 -47 78 -98 108c-58 34 -120 70 -120 142c0 98 147 139 147 222c0 56 -42 87 -112 87c-89 0 -143 -54 -143 -158v-550h-83v546c0 140 97 230 226 230c107 0 191 -57 191 -152
c0 -117 -147 -150 -147 -222c0 -29 32 -42 106 -88c58 -37 119 -85 119 -163c0 -103 -71 -160 -172 -160z" />
    <glyph glyph-name="uni043F.bgr" horiz-adv-x="598" 
d="M84 0v523h83v-83c24 49 82 92 168 92c108 0 184 -59 184 -211v-321h-83v327c0 92 -39 133 -123 133c-77 0 -146 -49 -146 -143v-317h-83z" />
    <glyph glyph-name="atilde.alt" horiz-adv-x="615" 
d="M285 60c89 0 166 64 166 198v8c0 134 -65 197 -159 197c-96 0 -161 -73 -161 -200v-8c0 -132 72 -195 154 -195zM276 -9c-125 0 -231 97 -231 260v8c0 160 107 273 239 273c81 0 134 -40 164 -91v82h83v-523h-83v88c-30 -51 -102 -97 -172 -97zM352 619
c-43 0 -79 43 -108 43c-19 0 -35 -19 -40 -45h-60c8 71 49 116 101 116c42 0 78 -43 107 -43c19 0 35 19 40 45h60c-8 -71 -49 -116 -100 -116z" />
    <glyph glyph-name="aringacute.alt" horiz-adv-x="615" 
d="M285 60c89 0 166 64 166 198v8c0 134 -65 197 -159 197c-96 0 -161 -73 -161 -200v-8c0 -132 72 -195 154 -195zM276 -9c-125 0 -231 97 -231 260v8c0 160 107 273 239 273c81 0 134 -40 164 -91v82h83v-523h-83v88c-30 -51 -102 -97 -172 -97zM294 578
c-59 0 -107 47 -107 104s48 104 107 104s107 -47 107 -104s-48 -104 -107 -104zM294 624c31 0 53 25 53 58s-22 58 -53 58s-53 -25 -53 -58s22 -58 53 -58zM268 829l56 127h104l-98 -127h-62z" />
    <glyph glyph-name="aring.alt" horiz-adv-x="615" 
d="M285 60c89 0 166 64 166 198v8c0 134 -65 197 -159 197c-96 0 -161 -73 -161 -200v-8c0 -132 72 -195 154 -195zM276 -9c-125 0 -231 97 -231 260v8c0 160 107 273 239 273c81 0 134 -40 164 -91v82h83v-523h-83v88c-30 -51 -102 -97 -172 -97zM294 598
c-59 0 -107 47 -107 104s48 104 107 104s107 -47 107 -104s-48 -104 -107 -104zM294 644c31 0 53 25 53 58s-22 58 -53 58s-53 -25 -53 -58s22 -58 53 -58z" />
    <glyph glyph-name="uni0442.bgr" horiz-adv-x="910" 
d="M84 0v523h83v-80c24 49 81 89 156 89c67 0 126 -28 153 -98c36 68 114 98 179 98c94 0 176 -56 176 -208v-324h-83v330c0 92 -39 130 -111 130c-68 0 -138 -46 -138 -140v-320h-83v330c0 92 -39 130 -111 130c-68 0 -138 -46 -138 -140v-320h-83z" />
    <glyph glyph-name="aogonek.alt" horiz-adv-x="615" 
d="M479 -182c-62 0 -104 30 -104 80c0 42 32 78 73 100v90c-30 -51 -102 -97 -172 -97c-125 0 -231 97 -231 260v8c0 160 107 273 239 273c81 0 134 -40 164 -91v82h83v-518c-54 -33 -77 -60 -77 -91c0 -24 14 -36 38 -36c17 0 37 3 52 11v-59c-17 -7 -37 -12 -65 -12z
M285 60c89 0 166 64 166 198v8c0 134 -65 197 -159 197c-96 0 -161 -73 -161 -200v-8c0 -132 72 -195 154 -195z" />
    <glyph glyph-name="amacron.alt" horiz-adv-x="615" 
d="M285 60c89 0 166 64 166 198v8c0 134 -65 197 -159 197c-96 0 -161 -73 -161 -200v-8c0 -132 72 -195 154 -195zM276 -9c-125 0 -231 97 -231 260v8c0 160 107 273 239 273c81 0 134 -40 164 -91v82h83v-523h-83v88c-30 -51 -102 -97 -172 -97zM169 648v64h262v-64h-262z
" />
    <glyph glyph-name="agrave.alt" horiz-adv-x="615" 
d="M285 60c89 0 166 64 166 198v8c0 134 -65 197 -159 197c-96 0 -161 -73 -161 -200v-8c0 -132 72 -195 154 -195zM276 -9c-125 0 -231 97 -231 260v8c0 160 107 273 239 273c81 0 134 -40 164 -91v82h83v-523h-83v88c-30 -51 -102 -97 -172 -97zM276 613l-104 147h104
l62 -147h-62z" />
    <glyph glyph-name="adieresis.alt" horiz-adv-x="615" 
d="M285 60c89 0 166 64 166 198v8c0 134 -65 197 -159 197c-96 0 -161 -73 -161 -200v-8c0 -132 72 -195 154 -195zM276 -9c-125 0 -231 97 -231 260v8c0 160 107 273 239 273c81 0 134 -40 164 -91v82h83v-523h-83v88c-30 -51 -102 -97 -172 -97zM396 634
c-29 0 -53 24 -53 53s24 53 53 53s53 -24 53 -53s-24 -53 -53 -53zM208 634c-29 0 -53 24 -53 53s24 53 53 53s53 -24 53 -53s-24 -53 -53 -53z" />
    <glyph glyph-name="uni0446.bgr" horiz-adv-x="610" 
d="M590 -127h-67l-6 127h-90v83c-24 -49 -82 -92 -166 -92c-104 0 -182 57 -182 201v331h83v-327c0 -92 39 -133 121 -133c74 0 144 49 144 143v317h83v-453h80v-197z" />
    <glyph glyph-name="acircumflex.alt" horiz-adv-x="615" 
d="M285 60c89 0 166 64 166 198v8c0 134 -65 197 -159 197c-96 0 -161 -73 -161 -200v-8c0 -132 72 -195 154 -195zM276 -9c-125 0 -231 97 -231 260v8c0 160 107 273 239 273c81 0 134 -40 164 -91v82h83v-523h-83v88c-30 -51 -102 -97 -172 -97zM155 613l108 144h75
l107 -144h-61l-85 75l-85 -75h-59z" />
    <glyph glyph-name="uni0447.bgr" horiz-adv-x="556" 
d="M472 0h-83v244c-31 -33 -80 -58 -150 -58c-94 0 -175 57 -175 201v136h83v-132c0 -92 41 -133 114 -133c56 0 101 22 128 58v207h83v-523z" />
    <glyph glyph-name="abreve.alt" horiz-adv-x="615" 
d="M285 60c89 0 166 64 166 198v8c0 134 -65 197 -159 197c-96 0 -161 -73 -161 -200v-8c0 -132 72 -195 154 -195zM276 -9c-125 0 -231 97 -231 260v8c0 160 107 273 239 273c81 0 134 -40 164 -91v82h83v-523h-83v88c-30 -51 -102 -97 -172 -97zM298 619
c-72 0 -128 56 -132 132h66c7 -39 26 -64 66 -64c42 0 64 24 72 64h64c-4 -76 -64 -132 -136 -132z" />
    <glyph glyph-name="uni0448.bgr" horiz-adv-x="910" 
d="M826 523v-523h-83v83c-24 -49 -81 -92 -156 -92c-67 0 -126 28 -153 98c-36 -68 -114 -98 -179 -98c-94 0 -176 56 -176 208v324h83v-330c0 -92 39 -130 111 -130c68 0 138 46 138 140v320h83v-330c0 -92 39 -130 111 -130c68 0 138 49 138 143v317h83z" />
    <glyph glyph-name="eight.num" horiz-adv-x="313" 
d="M156 368c-69 0 -129 34 -129 101c0 44 25 74 63 87c-31 13 -50 37 -50 71c0 58 56 92 117 92c62 0 116 -34 116 -91c0 -35 -20 -58 -51 -71c40 -15 64 -44 64 -86c0 -67 -58 -103 -130 -103zM157 576c31 0 52 18 52 48c0 29 -23 47 -52 47c-30 0 -53 -18 -53 -48
s25 -47 53 -47zM157 418c35 0 62 20 62 58c0 36 -27 57 -62 57c-34 0 -62 -21 -62 -58s28 -57 62 -57z" />
    <glyph glyph-name="uni0449.bgr" horiz-adv-x="926" 
d="M906 -127h-67l-6 127h-90v83c-24 -49 -81 -92 -156 -92c-67 0 -126 28 -153 98c-36 -68 -114 -98 -179 -98c-94 0 -176 56 -176 208v324h83v-330c0 -92 39 -130 111 -130c68 0 138 46 138 140v320h83v-330c0 -92 39 -130 111 -130c68 0 138 49 138 143v317h83v-453h80
v-197z" />
    <glyph glyph-name="minus.sup" horiz-adv-x="339" 
d="M41 574v53h257v-53h-257z" />
    <glyph glyph-name="uni044A.bgr" horiz-adv-x="579" 
d="M169 453h-139v70h222v-191c16 3 49 8 90 8c117 0 203 -47 203 -167v-3c0 -122 -97 -178 -190 -178c-116 0 -186 63 -186 189v272zM355 55c71 0 107 47 107 111v3c0 71 -35 106 -119 106c-41 0 -75 -5 -91 -8v-86c0 -80 30 -126 103 -126z" />
    <glyph glyph-name="plus.sup" horiz-adv-x="339" 
d="M142 469v105h-101v53h101v106h55v-106h101v-53h-101v-105h-55z" />
    <glyph glyph-name="nine.sup" horiz-adv-x="321" 
d="M156 596c38 0 64 26 64 62c0 44 -26 71 -64 71c-37 0 -62 -27 -62 -67c0 -39 24 -66 62 -66zM151 426c-70 0 -112 35 -120 95h63c6 -26 21 -43 57 -43c48 0 73 39 74 114c-16 -25 -43 -43 -83 -43c-66 0 -114 43 -114 111c0 71 49 118 128 118c91 0 136 -61 136 -160v-17
c0 -112 -50 -175 -141 -175z" />
    <glyph glyph-name="uni044C.bgr" horiz-adv-x="489" 
d="M265 -8c-116 0 -186 63 -186 189v342h83v-191c16 3 49 8 90 8c117 0 203 -47 203 -167v-3c0 -122 -97 -178 -190 -178zM265 55c71 0 107 47 107 111v3c0 71 -35 106 -119 106c-41 0 -75 -5 -91 -8v-86c0 -80 30 -126 103 -126z" />
    <glyph glyph-name="eight.sup" horiz-adv-x="314" 
d="M156 426c-69 0 -129 34 -129 101c0 44 25 74 63 87c-31 13 -50 37 -50 71c0 58 56 92 117 92c62 0 116 -34 116 -91c0 -35 -20 -58 -51 -71c40 -15 64 -44 64 -86c0 -67 -58 -103 -130 -103zM157 634c31 0 52 18 52 48c0 29 -23 47 -52 47c-30 0 -53 -18 -53 -48
s25 -47 53 -47zM157 476c35 0 62 20 62 58c0 36 -27 57 -62 57c-34 0 -62 -21 -62 -58s28 -57 62 -57z" />
    <glyph glyph-name="seven.sup" horiz-adv-x="269" 
d="M66 431l108 287h-157v55h241v-8l-124 -334h-68z" />
    <glyph glyph-name="uni044E.bgr" horiz-adv-x="784" 
d="M491 -9c-141 0 -236 101 -245 242h-79v-233h-83v773h83v-470h80c15 137 109 229 245 229c148 0 247 -109 247 -266v-8c0 -158 -99 -267 -248 -267zM492 60c105 0 161 79 161 197v7c0 121 -57 199 -161 199c-105 0 -161 -78 -161 -198v-8c0 -119 55 -197 161 -197z" />
    <glyph glyph-name="six.sup" horiz-adv-x="321" 
d="M165 426c-100 0 -135 69 -135 161v9c0 117 60 181 146 181c61 0 102 -30 110 -91h-62c-6 25 -19 40 -51 40c-46 0 -74 -40 -76 -116c16 26 43 44 84 44c65 0 113 -44 113 -111c0 -70 -49 -117 -129 -117zM165 475c37 0 62 27 62 66c0 40 -24 67 -62 67s-65 -26 -65 -63
c0 -44 27 -70 65 -70z" />
    <glyph glyph-name="five.sup" horiz-adv-x="303" 
d="M145 426c-81 0 -120 44 -124 104h63c5 -31 17 -52 61 -52c37 0 58 26 58 67c0 40 -22 65 -59 65c-34 0 -55 -11 -70 -29h-36l4 192h210v-52h-159l-1 -92c14 16 38 30 75 30c62 0 105 -43 105 -115c0 -73 -52 -118 -127 -118z" />
    <glyph glyph-name="four.sup" horiz-adv-x="318" 
d="M189 431v69h-172v24l153 249h83v-224h45v-49h-45v-69h-64zM89 549h101v173z" />
    <glyph glyph-name="three.sup" horiz-adv-x="312" 
d="M152 426c-83 0 -129 44 -131 111h61c4 -35 23 -61 68 -61c43 0 63 21 63 54c0 36 -20 54 -60 54h-26v47h25c38 0 56 18 56 49c0 27 -17 47 -52 47s-58 -21 -62 -55h-61c4 61 50 105 124 105c73 0 115 -40 115 -92c0 -38 -23 -62 -57 -74c40 -9 67 -37 67 -82
c0 -64 -50 -103 -130 -103z" />
    <glyph glyph-name="two.sup" horiz-adv-x="287" 
d="M8 431v11l128 136c33 34 54 65 54 97c0 31 -18 50 -50 50c-33 0 -54 -19 -60 -66h-61c4 75 50 118 123 118c72 0 114 -40 114 -101c0 -45 -26 -83 -66 -122l-73 -72h142v-51h-251z" />
    <glyph glyph-name="one.sup" horiz-adv-x="232" 
d="M105 431v276l-81 -54v59l89 61h60v-342h-68z" />
    <glyph glyph-name="zero.sup" horiz-adv-x="350" 
d="M175 426c-90 0 -145 67 -145 168v14c0 103 57 169 145 169s145 -65 145 -167v-14c0 -101 -54 -170 -145 -170zM176 480c51 0 77 40 77 116v14c0 72 -27 115 -78 115s-77 -41 -77 -116v-14c0 -76 28 -115 78 -115z" />
    <glyph glyph-name="minus.sub" horiz-adv-x="339" 
d="M41 56v53h257v-53h-257z" />
    <glyph glyph-name="plus.sub" horiz-adv-x="339" 
d="M142 -49v105h-101v53h101v106h55v-106h101v-53h-101v-105h-55z" />
    <glyph glyph-name="nine.sub" horiz-adv-x="321" 
d="M156 79c38 0 64 26 64 62c0 44 -26 71 -64 71c-37 0 -62 -27 -62 -67c0 -39 24 -66 62 -66zM151 -91c-70 0 -112 35 -120 95h63c6 -26 21 -43 57 -43c48 0 73 39 74 114c-16 -25 -43 -43 -83 -43c-66 0 -114 43 -114 111c0 71 49 118 128 118c91 0 136 -61 136 -160v-17
c0 -112 -50 -175 -141 -175z" />
    <glyph glyph-name="eight.sub" horiz-adv-x="314" 
d="M156 -91c-69 0 -129 34 -129 101c0 44 25 74 63 87c-31 13 -50 37 -50 71c0 58 56 92 117 92c62 0 116 -34 116 -91c0 -35 -20 -58 -51 -71c40 -15 64 -44 64 -86c0 -67 -58 -103 -130 -103zM157 117c31 0 52 18 52 48c0 29 -23 47 -52 47c-30 0 -53 -18 -53 -48
s25 -47 53 -47zM157 -41c35 0 62 20 62 58c0 36 -27 57 -62 57c-34 0 -62 -21 -62 -58s28 -57 62 -57z" />
    <glyph glyph-name="seven.sub" horiz-adv-x="269" 
d="M66 -86l108 287h-157v55h241v-8l-124 -334h-68z" />
    <glyph glyph-name="six.sub" horiz-adv-x="321" 
d="M165 -91c-100 0 -135 69 -135 161v9c0 117 60 181 146 181c61 0 102 -30 110 -91h-62c-6 25 -19 40 -51 40c-46 0 -74 -40 -76 -116c16 26 43 44 84 44c65 0 113 -44 113 -111c0 -70 -49 -117 -129 -117zM165 -42c37 0 62 27 62 66c0 40 -24 67 -62 67s-65 -26 -65 -63
c0 -44 27 -70 65 -70z" />
    <glyph glyph-name="five.sub" horiz-adv-x="303" 
d="M145 -91c-81 0 -120 44 -124 104h63c5 -31 17 -52 61 -52c37 0 58 26 58 67c0 40 -22 65 -59 65c-34 0 -55 -11 -70 -29h-36l4 192h210v-52h-159l-1 -92c14 16 38 30 75 30c62 0 105 -43 105 -115c0 -73 -52 -118 -127 -118z" />
    <glyph glyph-name="uni045D.bgr" horiz-adv-x="594" 
d="M261 -9c-104 0 -182 57 -182 201v331h83v-327c0 -92 39 -133 121 -133c74 0 144 49 144 143v317h83v-523h-83v83c-24 -49 -82 -92 -166 -92zM272 613l-104 147h104l62 -147h-62z" />
    <glyph glyph-name="four.sub" horiz-adv-x="318" 
d="M189 -86v69h-172v24l153 249h83v-224h45v-49h-45v-69h-64zM89 32h101v173z" />
    <glyph glyph-name="three.sub" horiz-adv-x="312" 
d="M152 -91c-83 0 -129 44 -131 111h61c4 -35 23 -61 68 -61c43 0 63 21 63 54c0 36 -20 54 -60 54h-26v47h25c38 0 56 18 56 49c0 27 -17 47 -52 47s-58 -21 -62 -55h-61c4 61 50 105 124 105c73 0 115 -40 115 -92c0 -38 -23 -62 -57 -74c40 -9 67 -37 67 -82
c0 -64 -50 -103 -130 -103z" />
    <glyph glyph-name="two.sub" horiz-adv-x="287" 
d="M8 -86v11l128 136c33 34 54 65 54 97c0 31 -18 50 -50 50c-33 0 -54 -19 -60 -66h-61c4 75 50 118 123 118c72 0 114 -40 114 -101c0 -45 -26 -83 -66 -122l-73 -72h142v-51h-251z" />
    <glyph glyph-name="one.sub" horiz-adv-x="232" 
d="M105 -87v276l-81 -54v59l89 61h60v-342h-68z" />
    <glyph glyph-name="zero.sub" horiz-adv-x="350" 
d="M175 -91c-90 0 -145 67 -145 168v14c0 103 57 169 145 169s145 -65 145 -167v-14c0 -101 -54 -170 -145 -170zM176 -37c51 0 77 40 77 116v14c0 72 -27 115 -78 115s-77 -41 -77 -116v-14c0 -76 28 -115 78 -115z" />
    <glyph glyph-name="nine.den" horiz-adv-x="321" 
d="M156 165c38 0 64 26 64 62c0 44 -26 71 -64 71c-37 0 -62 -27 -62 -67c0 -39 24 -66 62 -66zM151 -5c-70 0 -112 35 -120 95h63c6 -26 21 -43 57 -43c48 0 73 39 74 114c-16 -25 -43 -43 -83 -43c-66 0 -114 43 -114 111c0 71 49 118 128 118c91 0 136 -61 136 -160v-17
c0 -112 -50 -175 -141 -175z" />
    <glyph glyph-name="uni20B4.old" horiz-adv-x="584" 
d="M287 -9c-129 0 -225 61 -225 178c0 39 9 71 25 97h-57v57h116c36 24 83 43 137 62c13 4 24 9 35 13h-288v57h381c17 22 22 48 22 85c0 65 -48 94 -128 94c-90 0 -138 -33 -153 -113h-75c12 117 96 181 228 181c120 0 209 -54 209 -161c0 -35 -7 -63 -21 -86h61v-57h-117
c-36 -24 -83 -43 -138 -64c-10 -4 -20 -7 -29 -11h284v-57h-378c-21 -23 -30 -52 -30 -94c0 -79 61 -113 141 -113c120 0 161 65 171 142h81c-12 -113 -85 -210 -252 -210z" />
    <glyph glyph-name="uni20B4.oldtab" 
d="M295 -9c-129 0 -225 61 -225 178c0 39 9 71 25 97h-57v57h116c36 24 83 43 137 62c13 4 24 9 35 13h-288v57h381c17 22 22 48 22 85c0 65 -48 94 -128 94c-90 0 -138 -33 -153 -113h-75c12 117 96 181 228 181c120 0 209 -54 209 -161c0 -35 -7 -63 -21 -86h61v-57h-117
c-36 -24 -83 -43 -138 -64c-10 -4 -20 -7 -29 -11h284v-57h-378c-21 -23 -30 -52 -30 -94c0 -79 61 -113 141 -113c120 0 161 65 171 142h81c-12 -113 -85 -210 -252 -210z" />
    <glyph glyph-name="uni20B4.tab" 
d="M295 -9c-122 0 -212 63 -212 183c0 41 8 74 24 101h-57v58h109c34 26 79 46 132 64c13 5 25 9 36 14h-277v58h357c15 23 18 51 18 88c0 67 -42 97 -111 97c-81 0 -122 -34 -138 -117h-78c13 121 91 187 216 187c112 0 195 -56 195 -166c0 -36 -7 -65 -19 -89h60v-58h-110
c-34 -26 -79 -46 -133 -66c-11 -4 -20 -8 -29 -12h272v-58h-355c-17 -24 -25 -55 -25 -97c0 -82 54 -117 125 -117c110 0 146 67 156 147h84c-12 -117 -81 -217 -240 -217z" />
    <glyph glyph-name="eight.den" horiz-adv-x="314" 
d="M156 -5c-69 0 -129 34 -129 101c0 44 25 74 63 87c-31 13 -50 37 -50 71c0 58 56 92 117 92c62 0 116 -34 116 -91c0 -35 -20 -58 -51 -71c40 -15 64 -44 64 -86c0 -67 -58 -103 -130 -103zM157 203c31 0 52 18 52 48c0 29 -23 47 -52 47c-30 0 -53 -18 -53 -48
s25 -47 53 -47zM157 45c35 0 62 20 62 58c0 36 -27 57 -62 57c-34 0 -62 -21 -62 -58s28 -57 62 -57z" />
    <glyph glyph-name="uni20B8.old" horiz-adv-x="546" 
d="M517 637h-488v57h488v-57zM231 0v499h-202v68h488v-68h-202v-499h-84z" />
    <glyph glyph-name="uni20B8.oldtab" 
d="M544 637h-488v57h488v-57zM258 0v499h-202v68h488v-68h-202v-499h-84z" />
    <glyph glyph-name="uni20B8.tab" 
d="M542 653h-483v62h483v-62zM257 0v514h-198v71h483v-71h-198v-514h-87z" />
    <glyph glyph-name="seven.den" horiz-adv-x="269" 
d="M66 0l108 287h-157v55h241v-8l-124 -334h-68z" />
    <glyph glyph-name="uni20BD.old" horiz-adv-x="601" 
d="M217 360h122c102 0 157 50 157 142v4c0 101 -60 139 -157 139h-122v-285zM447 160h-230v-160h-87v160h-100v56h100v76h-100v56h100v367h203c137 0 250 -60 250 -209v-4c0 -152 -114 -211 -250 -211h-116v-75h230v-56z" />
    <glyph glyph-name="uni20BD.oldtab" 
d="M217 348h102c102 0 157 46 157 138v4c0 101 -60 134 -157 134h-102v-276zM427 148h-210v-148h-87v148h-100v56h100v76h-100v56h100v358h183c137 0 250 -55 250 -204v-4c0 -152 -114 -207 -250 -207h-96v-75h210v-56z" />
    <glyph glyph-name="uni20BD.tab" 
d="M217 360h102c102 0 157 50 157 142v4c0 101 -60 139 -157 139h-102v-285zM440 165h-223v-165h-87v165h-100v58h100v78h-100v58h100v356h183c137 0 250 -60 250 -209v-4c0 -152 -114 -211 -250 -211h-96v-68h223v-58z" />
    <glyph glyph-name="six.den" horiz-adv-x="321" 
d="M165 -5c-100 0 -135 69 -135 161v9c0 117 60 181 146 181c61 0 102 -30 110 -91h-62c-6 25 -19 40 -51 40c-46 0 -74 -40 -76 -116c16 26 43 44 84 44c65 0 113 -44 113 -111c0 -70 -49 -117 -129 -117zM165 44c37 0 62 27 62 66c0 40 -24 67 -62 67s-65 -26 -65 -63
c0 -44 27 -70 65 -70z" />
    <glyph glyph-name="five.den" horiz-adv-x="303" 
d="M145 -5c-81 0 -120 44 -124 104h63c5 -31 17 -52 61 -52c37 0 58 26 58 67c0 40 -22 65 -59 65c-34 0 -55 -11 -70 -29h-36l4 192h210v-52h-159l-1 -92c14 16 38 30 75 30c62 0 105 -43 105 -115c0 -73 -52 -118 -127 -118z" />
    <glyph glyph-name="four.den" horiz-adv-x="318" 
d="M189 0v69h-172v24l153 249h83v-224h45v-49h-45v-69h-64zM89 118h101v173z" />
    <glyph glyph-name="three.den" horiz-adv-x="312" 
d="M152 -5c-83 0 -129 44 -131 111h61c4 -35 23 -61 68 -61c43 0 63 21 63 54c0 36 -20 54 -60 54h-26v47h25c38 0 56 18 56 49c0 27 -17 47 -52 47s-58 -21 -62 -55h-61c4 61 50 105 124 105c73 0 115 -40 115 -92c0 -38 -23 -62 -57 -74c40 -9 67 -37 67 -82
c0 -64 -50 -103 -130 -103z" />
    <glyph glyph-name="two.den" horiz-adv-x="287" 
d="M8 0v11l128 136c33 34 54 65 54 97c0 31 -18 50 -50 50c-33 0 -54 -19 -60 -66h-61c4 75 50 118 123 118c72 0 114 -40 114 -101c0 -45 -26 -83 -66 -122l-73 -72h142v-51h-251z" />
    <glyph glyph-name="one.den" horiz-adv-x="232" 
d="M105 0v276l-81 -54v59l89 61h60v-342h-68z" />
    <glyph glyph-name="zero.den" horiz-adv-x="350" 
d="M175 -5c-90 0 -145 67 -145 168v14c0 103 57 169 145 169s145 -65 145 -167v-14c0 -101 -54 -170 -145 -170zM176 49c51 0 77 40 77 116v14c0 72 -27 115 -78 115s-77 -41 -77 -116v-14c0 -76 28 -115 78 -115z" />
    <glyph glyph-name="nine.num" horiz-adv-x="320" 
d="M156 538c38 0 64 26 64 62c0 44 -26 71 -64 71c-37 0 -62 -27 -62 -67c0 -39 24 -66 62 -66zM151 368c-70 0 -112 35 -120 95h63c6 -26 21 -43 57 -43c48 0 73 39 74 114c-16 -25 -43 -43 -83 -43c-66 0 -114 43 -114 111c0 71 49 118 128 118c91 0 136 -61 136 -160v-17
c0 -112 -50 -175 -141 -175z" />
    <glyph glyph-name="uni02BC" unicode="&#x2bc;" horiz-adv-x="255" 
d="M98 488l-51 26l89 212l79 -36z" />
    <glyph glyph-name="uni00AD" unicode="&#xad;" horiz-adv-x="334" 
d="M60 236v78h214v-78h-214z" />
    <glyph glyph-name="uni2116" unicode="&#x2116;" horiz-adv-x="1083" 
d="M867 333c-109 0 -188 81 -188 192v6c0 115 80 193 189 193c108 0 188 -77 188 -192v-5c0 -116 -80 -194 -189 -194zM868 397c67 0 108 51 108 129v5c0 79 -41 130 -108 130s-109 -51 -109 -130v-5c0 -79 41 -129 109 -129zM90 0v715h113l308 -587v587h83v-715h-100
l-321 609v-609h-83zM691 201v66h353v-66h-353z" />
    </font>
</defs>
</svg>
